SplineFontDB: 3.0
FontName: AkzidenzGroteskBQ-Reg
FullName: Akzidenz-Grotesk BQ Regular
FamilyName: Akzidenz-Grotesk BQ
Weight: Regular
Copyright: Copyright (c) 1997, 2001, Berthold LLC. All rights reserved. Akzidenz-Grotesk is a trademark of Berthold Types Limited.
Version: 001.001
ItalicAngle: 0
UnderlinePosition: -176
UnderlineWidth: 75
Ascent: 800
Descent: 200
InvalidEm: 0
sfntRevision: 0x00010000
LayerCount: 2
Layer: 0 0 "Back" 1
Layer: 1 0 "Fore" 0
XUID: [1021 23 -821672044 7795739]
UniqueID: 4903003
StyleMap: 0x0000
FSType: 0
OS2Version: 2
OS2_WeightWidthSlopeOnly: 0
OS2_UseTypoMetrics: 0
CreationTime: 1179417602
ModificationTime: 1483805527
PfmFamily: 81
TTFWeight: 500
TTFWidth: 5
LineGap: 0
VLineGap: 0
Panose: 0 0 0 0 0 0 0 0 0 0
OS2TypoAscent: 706
OS2TypoAOffset: 0
OS2TypoDescent: -224
OS2TypoDOffset: 0
OS2TypoLinegap: 65
OS2WinAscent: 943
OS2WinAOffset: 0
OS2WinDescent: 233
OS2WinDOffset: 0
HheadAscent: 943
HheadAOffset: 0
HheadDescent: -233
HheadDOffset: 0
OS2SubXSize: 650
OS2SubYSize: 650
OS2SubXOff: 0
OS2SubYOff: 150
OS2SupXSize: 650
OS2SupYSize: 650
OS2SupXOff: 0
OS2SupYOff: 500
OS2StrikeYSize: 50
OS2StrikeYPos: 225
OS2CapHeight: 706
OS2XHeight: 471
OS2CodePages: 20000111.41000000
OS2UnicodeRanges: 8000002f.0000000a.00000000.00000000
Lookup: 258 0 0 "'kern' Horizontal Kerning in Latin lookup 0" { "'kern' Horizontal Kerning in Latin lookup 0 subtable"  } ['kern' ('latn' <'dflt' > ) ]
DEI: 91125
LangName: 1033 "Copyright +/6kA 1997, 2001, Berthold LLC. All rights reserved. Akzidenz-Grotesk is a trademark of Berthold Types Limited." "" "Regular" "Akzidenz-Grotesk BQ Regular:1179435602" "AkzidenzGroteskBQ-Reg" "001.001"
Encoding: UnicodeBmp
UnicodeInterp: none
NameList: AGL For New Fonts
DisplaySize: -48
AntiAlias: 1
FitToEm: 0
WinInfo: 0 17 8
BeginPrivate: 7
BlueValues 23 [-18 0 471 486 706 724]
OtherBlues 11 [-233 -224]
BlueScale 7 0.36364
StdHW 4 [64]
StdVW 4 [79]
StemSnapH 7 [64 79]
StemSnapV 10 [79 87 95]
EndPrivate
BeginChars: 65537 215

StartChar: exclam
Encoding: 33 33 2
Width: 271
Flags: MW
HStem: 0 90<115 194 115 194> 686 20<115 194 194 194>
VStem: 115 79<0 90 429 706> 127 55 127 67
LayerCount: 2
Fore
SplineSet
194 418 m 1xf8
 170 147 l 1
 139 147 l 1
 115 429 l 1
 115 706 l 1
 194 706 l 1
 194 418 l 1xf8
194 0 m 1
 115 0 l 1
 115 90 l 1
 194 90 l 1
 194 0 l 1
EndSplineSet
Validated: 8388609
EndChar

StartChar: quotedbl
Encoding: 34 34 3
Width: 347
Flags: MW
HStem: 449 21<73 105 73 73 243 274 243 243> 723 20<44 133 133 133 214 302 302 302>
VStem: 58 61 228 60
LayerCount: 2
Fore
SplineSet
302 743 m 1
 274 449 l 1
 243 449 l 1
 214 743 l 1
 302 743 l 1
133 743 m 1
 105 449 l 1
 73 449 l 1
 44 743 l 1
 133 743 l 1
EndSplineSet
Validated: 1
EndChar

StartChar: numbersign
Encoding: 35 35 4
Width: 667
Flags: MW
HStem: 0 21<146 227 146 146 338 417 338 338> 229 77<42 181 42 191 270 371 42 260 461 600> 414 77<65 207 65 217 65 286 297 397 487 625> 685 20<248 328 328 328 439 517 517 517>
LayerCount: 2
Fore
SplineSet
625 414 m 1
 477 414 l 1
 461 306 l 1
 600 306 l 1
 600 229 l 1
 450 229 l 1
 417 0 l 1
 338 0 l 1
 371 229 l 1
 260 229 l 1
 227 0 l 1
 146 0 l 1
 181 229 l 1
 42 229 l 1
 42 306 l 1
 191 306 l 1
 207 414 l 1
 65 414 l 1
 65 491 l 1
 217 491 l 1
 248 705 l 1
 328 705 l 1
 297 491 l 1
 407 491 l 1
 439 705 l 1
 517 705 l 1
 487 491 l 1
 625 491 l 1
 625 414 l 1
397 414 m 1
 286 414 l 1
 270 306 l 1
 382 306 l 1
 397 414 l 1
EndSplineSet
Validated: 1
EndChar

StartChar: dollar
Encoding: 36 36 5
Width: 625
Flags: MW
HStem: -137 21<287 354 287 287> -18 21<287 287 354 366 354 354> 806 20<287 354 354 354>
VStem: 64 101<527.5 541.5> 287 67<-137 -18 -137 -18> 496 104<161.5 185 150.5 202>
LayerCount: 2
Fore
SplineSet
600 185 m 0
 600 116 560 57 502 22 c 0
 465 0 410 -18 366 -18 c 2
 354 -18 l 1
 354 -137 l 1
 287 -137 l 1
 287 -18 l 1
 266 -15 190 -4 129 37 c 0
 49 91 27 173 20 204 c 1
 122 215 l 1
 139 133 199 92 225 80 c 0
 237 74 258 67 287 61 c 1
 287 314 l 1
 276 318 196 340 145 375 c 0
 124 390 64 438 64 521 c 0
 64 562 80 594 87 606 c 0
 142 703 259 712 287 716 c 1
 287 826 l 1
 354 826 l 1
 355 716 l 1
 368 712 382 709 395 706 c 0
 419 700 454 690 498 656 c 0
 507 649 532 629 550 601 c 0
 560 587 572 564 582 527 c 1
 489 518 l 1
 476 560 445 602 406 623 c 0
 394 629 381 635 354 639 c 1
 355 403 l 1
 375 397 418 385 467 362 c 0
 494 349 601 301 600 185 c 0
287 422 m 1
 287 642 l 1
 277 641 256 639 234 630 c 0
 194 613 165 578 165 532 c 0
 165 523 166 504 177 485 c 0
 199 449 251 433 287 422 c 1
496 172 m 0
 496 232 452 264 354 295 c 1
 355 58 l 1
 362 58 370 59 377 60 c 0
 394 62 447 69 478 115 c 0
 490 132 496 151 496 172 c 0
EndSplineSet
Validated: 33
EndChar

StartChar: percent
Encoding: 37 37 6
Width: 896
Flags: MW
HStem: -29 21<303 303> -9 21<673.5 694.5> 224 58<176 205 176 208.5> 663 20<165.5 196>
VStem: 523 64<188.5 220 188.5 300> 784 65<213 213>
LayerCount: 2
Fore
SplineSet
849 213 m 0x7c
 849 201 849 76 776 20 c 0
 741 -7 702 -9 687 -9 c 0
 660 -9 602 -2 562 58 c 0
 541 90 523 137 523 218 c 0
 523 382 603 450 685 450 c 0
 765 450 851 380 849 213 c 0x7c
620 656 m 1
 303 -29 l 1xbc
 248 -3 l 1
 566 682 l 1
 620 656 l 1
353 450 m 0
 353 433 354 326 291 265 c 0
 265 239 227 224 190 224 c 0
 149 224 110 242 84 271 c 0
 58 300 26 359 26 452 c 0
 26 515 45 602 96 648 c 0
 108 658 142 683 189 683 c 0
 203 683 228 681 258 664 c 0
 357 609 353 467 353 450 c 0
784 213 m 0
 785 279 771 326 756 350 c 0
 734 385 700 391 684 391 c 0
 655 390 629 374 615 351 c 0
 600 328 586 284 587 220 c 0
 587 157 600 116 615 92 c 0
 637 55 671 48 688 48 c 0
 714 48 738 62 752 81 c 0
 778 116 783 174 784 213 c 0
288 450 m 0
 288 514 279 551 264 577 c 0
 242 617 206 626 188 626 c 0
 163 626 139 612 124 592 c 0
 90 548 92 460 92 456 c 0
 92 451 90 368 121 320 c 0
 136 297 162 282 190 282 c 0
 220 282 245 298 261 321 c 0
 278 346 288 386 288 450 c 0
EndSplineSet
Validated: 33
EndChar

StartChar: ampersand
Encoding: 38 38 7
Width: 604
Flags: MW
HStem: -9 21<224 243> -8 77 -8 84<537 558.5> 681 20<281 368>
LayerCount: 2
Fore
SplineSet
593 -4 m 1x30
 577 -7 562 -8 555 -8 c 0x50
 472 -8 429 41 409 64 c 1
 396 53 383 43 369 34 c 0
 312 -3 255 -9 231 -9 c 0x90
 217 -9 183 -7 147 10 c 0
 111 26 38 76 38 185 c 0
 38 239 55 281 89 322 c 0
 106 342 121 354 128 359 c 0
 152 377 179 388 203 406 c 1
 186 451 170 486 170 536 c 0
 170 628 234 701 328 701 c 0
 408 701 473 643 473 560 c 0
 473 541 469 521 462 503 c 0
 440 451 389 416 377 407 c 0
 359 395 339 384 320 373 c 1
 337 335 359 297 381 260 c 0
 394 238 406 217 420 195 c 1
 435 224 451 258 467 325 c 1
 544 325 l 1
 530 228 487 159 468 128 c 1
 478 114 509 76 565 76 c 0
 572 76 580 77 593 79 c 1
 593 -4 l 1x30
394 570 m 0
 394 576 393 588 388 601 c 0
 378 625 354 640 327 640 c 0
 319 640 308 639 293 631 c 0
 253 610 250 566 250 553 c 0
 251 530 259 492 283 443 c 1
 364 478 394 529 394 570 c 0
362 121 m 1
 336 158 315 198 292 236 c 0
 259 292 251 304 236 337 c 1
 212 326 201 319 190 311 c 0
 135 271 123 223 123 195 c 0
 123 187 124 170 132 150 c 0
 151 100 192 69 247 69 c 0
 308 70 349 109 362 121 c 1
EndSplineSet
Validated: 1
EndChar

StartChar: quoteright
Encoding: 8217 8217 8
Width: 229
Flags: MW
HStem: 440 21<74 121 74 74> 686 20<63 162 162 162>
VStem: 63 99<618 654 654 706 618 706>
LayerCount: 2
Fore
SplineSet
162 654 m 2
 162 582 150 507 121 440 c 1
 74 440 l 1
 91 489 107 544 107 596 c 1
 63 596 l 1
 63 706 l 1
 162 706 l 1
 162 654 l 2
EndSplineSet
Validated: 1
EndChar

StartChar: parenleft
Encoding: 40 40 9
Width: 315
Flags: MW
HStem: -163 21<287 287> 778 20<284 284>
VStem: 40 93<285.5 378.5>
LayerCount: 2
Fore
SplineSet
319 -117 m 1
 287 -163 l 1
 277 -155 270 -149 265 -145 c 0
 222 -111 185 -72 152 -27 c 0
 120 16 95 62 78 109 c 0
 54 172 40 250 40 321 c 0
 40 436 74 554 134 646 c 0
 152 673 173 699 196 723 c 0
 224 752 240 766 284 798 c 1
 317 758 l 1
 271 716 256 700 232 667 c 0
 168 580 133 459 133 328 c 0
 133 145 205 -27 319 -117 c 1
EndSplineSet
Validated: 1
EndChar

StartChar: parenright
Encoding: 41 41 10
Width: 319
Flags: MW
HStem: -160 21<38 38> 781 20<37 37>
VStem: 190 93<282 352.5 282 402.5>
LayerCount: 2
Fore
SplineSet
283 317 m 0
 283 247 269 171 245 105 c 0
 218 32 178 -31 126 -85 c 0
 98 -115 82 -128 38 -160 c 1
 5 -121 l 1
 51 -79 66 -63 90 -29 c 0
 154 58 190 180 190 311 c 0
 190 494 119 665 4 755 c 1
 37 801 l 1
 47 793 54 787 59 783 c 0
 102 749 138 710 171 665 c 0
 203 621 229 575 246 529 c 0
 270 466 283 388 283 317 c 0
EndSplineSet
Validated: 1
EndChar

StartChar: asterisk
Encoding: 42 42 11
Width: 349
Flags: MW
HStem: 426 21<109 109 234 234> 688 20<137 199 199 199>
VStem: 137 62<605 708 603 708>
LayerCount: 2
Fore
SplineSet
323 583 m 1
 219 546 l 1
 282 463 l 1
 234 426 l 1
 168 511 l 1
 109 426 l 1
 59 462 l 1
 118 547 l 1
 18 575 l 1
 35 632 l 1
 137 605 l 1
 137 708 l 1
 199 708 l 1
 199 603 l 1
 302 637 l 1
 323 583 l 1
EndSplineSet
Validated: 1
EndChar

StartChar: plus
Encoding: 43 43 12
Width: 724
Flags: MW
HStem: 33 21<318 406 318 318> 262 78<94 318 94 318 406 631> 548 20<318 406 406 406>
VStem: 318 88<33 262 33 262 340 568>
LayerCount: 2
Fore
SplineSet
631 262 m 1
 406 262 l 1
 406 33 l 1
 318 33 l 1
 318 262 l 1
 94 262 l 1
 94 340 l 1
 318 340 l 1
 318 568 l 1
 406 568 l 1
 406 340 l 1
 631 340 l 1
 631 262 l 1
EndSplineSet
Validated: 1
EndChar

StartChar: comma
Encoding: 44 44 13
Width: 229
Flags: MW
HStem: -156 21<74 121 74 74> 0 21<63 107 63 63> 89 20<63 162 162 162>
VStem: 63 99<13.5 49 49 109 13.5 109>
LayerCount: 2
Fore
SplineSet
162 49 m 2
 162 -22 150 -91 121 -156 c 1
 74 -156 l 1
 91 -107 107 -52 107 0 c 1
 63 0 l 1
 63 109 l 1
 162 109 l 1
 162 49 l 2
EndSplineSet
Validated: 1
EndChar

StartChar: hyphen
Encoding: 45 45 14
Width: 370
Flags: MW
HStem: 262 76<45 325 45 325>
LayerCount: 2
Fore
SplineSet
325 262 m 1
 45 262 l 1
 45 338 l 1
 325 338 l 1
 325 262 l 1
EndSplineSet
Validated: 1
EndChar

StartChar: period
Encoding: 46 46 15
Width: 229
Flags: MW
HStem: 0 113<64 163 64 163>
VStem: 64 99<0 113>
LayerCount: 2
Fore
SplineSet
163 0 m 1
 64 0 l 1
 64 113 l 1
 163 113 l 1
 163 0 l 1
EndSplineSet
Validated: 1
EndChar

StartChar: slash
Encoding: 47 47 16
Width: 333
Flags: MW
HStem: 0 21<13 90 13 13> 682 20<246 321 321 321>
LayerCount: 2
Fore
SplineSet
321 702 m 1
 90 0 l 1
 13 0 l 1
 246 702 l 1
 321 702 l 1
EndSplineSet
Validated: 1
EndChar

StartChar: zero
Encoding: 48 48 17
Width: 583
Flags: MW
HStem: -6 78<293 298.5 293 316.5> 660 20<276.5 300>
VStem: 49 89<327 346> 445 90<299.5 336 255.5 344>
LayerCount: 2
Fore
SplineSet
535 336 m 0
 535 175 480 85 425 40 c 0
 387 9 342 -6 291 -6 c 0
 252 -6 214 4 181 24 c 0
 115 65 49 158 49 332 c 0
 49 360 48 534 154 629 c 0
 206 675 263 680 290 680 c 0
 310 680 354 677 400 649 c 0
 467 608 536 512 535 336 c 0
445 336 m 0
 445 352 446 477 392 550 c 0
 357 597 317 601 293 601 c 0
 244 601 216 578 203 565 c 0
 193 556 179 539 166 510 c 0
 144 459 138 390 138 336 c 0
 138 318 135 201 188 127 c 0
 201 108 231 71 293 72 c 0
 304 72 333 73 359 90 c 0
 430 137 445 263 445 336 c 0
EndSplineSet
Validated: 33
EndChar

StartChar: one
Encoding: 49 49 18
Width: 583
Flags: MW
HStem: 0 21<263 357 263 263> 493 62<118 161.5 118 263 118 161.5> 654 20<290 357 357 357>
VStem: 263 94<0 493 493 493>
LayerCount: 2
Fore
SplineSet
357 0 m 1
 263 0 l 1
 263 493 l 1
 118 493 l 1
 118 555 l 1
 205 555 246 577 269 614 c 0
 284 637 289 666 290 674 c 1
 357 674 l 1
 357 0 l 1
EndSplineSet
Validated: 1
EndChar

StartChar: two
Encoding: 50 50 19
Width: 583
Flags: MW
HStem: 0 77<197 520 197 520> 602 78<264.5 307 255 332>
VStem: 419 93<441.5 497.5 441.5 512.5>
LayerCount: 2
Fore
SplineSet
520 0 m 1
 79 0 l 1
 80 86 l 1
 94 93 108 101 122 109 c 0
 150 127 219 177 288 242 c 0
 354 303 419 375 419 473 c 0
 419 552 372 602 292 602 c 0
 237 602 205 579 191 561 c 0
 181 547 175 530 173 525 c 0
 166 501 165 477 165 469 c 0
 165 448 167 429 177 389 c 1
 89 389 l 1
 84 406 77 430 77 469 c 0
 77 494 79 573 140 628 c 0
 164 649 215 680 295 680 c 0
 319 680 385 677 440 630 c 0
 487 591 512 528 512 467 c 0
 512 416 497 345 421 260 c 0
 404 240 386 220 345 186 c 0
 320 164 294 143 266 123 c 0
 243 107 220 92 197 77 c 1
 520 77 l 1
 520 0 l 1
EndSplineSet
Validated: 1
EndChar

StartChar: three
Encoding: 51 51 20
Width: 583
Flags: MW
HStem: -6 80<273 301.5 241.5 306> 308 78<222 317> 606 74<263.5 293 263.5 305.5>
VStem: 435 94<175.5 213.5>
LayerCount: 2
Fore
SplineSet
529 188 m 0
 529 163 525 107 477 59 c 0
 413 -7 319 -6 293 -6 c 0
 253 -6 88 -2 48 155 c 0
 44 171 41 189 40 223 c 1
 130 223 l 1
 131 214 132 182 142 153 c 0
 158 110 195 74 288 74 c 0
 315 74 435 75 435 195 c 0
 435 232 422 253 412 265 c 0
 391 292 353 308 281 308 c 0
 261 308 241 307 221 305 c 1
 222 386 l 1
 298 380 346 388 376 408 c 0
 391 418 419 443 419 492 c 0
 419 522 408 542 401 552 c 0
 375 590 328 606 283 606 c 0
 239 606 200 590 175 550 c 0
 156 518 154 483 152 448 c 1
 63 452 l 1
 65 485 66 509 76 541 c 0
 117 673 243 680 284 680 c 0
 302 680 340 679 384 664 c 0
 492 626 509 533 509 492 c 0
 509 480 507 425 477 389 c 0
 463 372 446 361 427 349 c 1
 449 339 460 331 468 325 c 0
 491 306 529 263 529 188 c 0
EndSplineSet
Validated: 33
EndChar

StartChar: four
Encoding: 52 52 21
Width: 583
Flags: MW
HStem: 0 21<347 434 347 347> 162 76<133 347 133 347 434 532> 654 20<364 434 434 434>
VStem: 349 85
LayerCount: 2
Fore
SplineSet
532 162 m 1
 434 162 l 1
 434 0 l 1
 347 0 l 1
 347 162 l 1
 42 162 l 1
 42 243 l 1
 364 674 l 1
 434 674 l 1
 434 238 l 1
 532 238 l 1
 532 162 l 1
351 540 m 1
 133 238 l 1
 347 238 l 1
 351 540 l 1
EndSplineSet
Validated: 1
EndChar

StartChar: five
Encoding: 53 53 22
Width: 583
Flags: MW
HStem: -6 21<212 309> 452 20<302 324.5> 595 79<162 477 162 162>
VStem: 83 74 432 93<191 248>
LayerCount: 2
Fore
SplineSet
525 236 m 0
 525 139 473 44 379 9 c 0
 363 3 331 -6 287 -6 c 0
 137 -6 78 92 59 146 c 0
 54 161 50 178 47 210 c 1
 136 216 l 1
 137 204 140 188 150 163 c 0
 165 124 188 96 227 81 c 0
 237 77 256 71 284 71 c 0
 304 71 327 75 345 83 c 0
 383 99 432 143 432 239 c 0
 432 257 430 279 425 295 c 0
 414 334 384 369 346 384 c 0
 334 388 315 394 286 394 c 0
 274 394 239 393 209 373 c 0
 205 371 198 366 190 358 c 0
 166 335 160 323 153 307 c 1
 72 307 l 1
 94 674 l 1
 477 674 l 1
 477 595 l 1
 162 595 l 1
 153 418 l 1
 177 438 223 473 302 472 c 0
 347 472 378 461 394 454 c 0
 480 416 525 326 525 236 c 0
EndSplineSet
Validated: 33
EndChar

StartChar: six
Encoding: 54 54 23
Width: 583
Flags: MW
HStem: -6 80<283 314.5 262 351.5> 660 20<286.5 311.5>
VStem: 62 100<214.5 341.5> 439 88<222 234.5>
LayerCount: 2
Fore
SplineSet
527 228 m 0
 527 212 526 177 511 137 c 0
 478 47 400 -6 303 -6 c 0
 263 -6 176 4 116 94 c 0
 83 143 62 207 62 329 c 0
 62 354 63 447 94 528 c 0
 104 556 117 578 135 601 c 0
 161 632 191 656 230 668 c 0
 242 672 269 680 304 680 c 0
 319 680 348 679 384 666 c 0
 462 638 490 581 509 506 c 1
 422 494 l 1
 414 538 396 578 351 596 c 0
 343 599 327 604 305 604 c 0
 294 604 250 601 218 575 c 0
 204 563 183 537 168 494 c 0
 151 445 151 414 148 363 c 1
 150 365 160 379 169 388 c 0
 189 408 238 445 315 445 c 0
 330 445 364 444 401 428 c 0
 444 409 527 354 527 228 c 0
439 222 m 0
 439 247 434 262 431 272 c 0
 419 310 389 344 351 357 c 0
 329 364 311 364 302 364 c 0
 295 364 270 364 247 354 c 0
 192 332 162 277 162 220 c 0
 162 209 163 188 172 163 c 0
 183 135 219 74 305 74 c 0
 324 74 343 78 360 85 c 0
 415 109 440 167 439 222 c 0
EndSplineSet
Validated: 33
EndChar

StartChar: seven
Encoding: 55 55 24
Width: 583
Flags: MW
HStem: 0 21<168 274 168 168> 594 80<168 435 168 168>
VStem: 96 72<466 594>
LayerCount: 2
Fore
SplineSet
509 577 m 2
 509 540 500 531 470 478 c 2
 435 417 l 2
 415 381 396 345 378 308 c 0
 365 281 353 254 341 227 c 0
 328 197 315 167 305 136 c 0
 297 112 291 88 286 64 c 0
 281 43 277 22 274 0 c 1
 168 0 l 1
 187 150 293 338 372 461 c 2
 402 508 l 2
 431 553 435 561 435 594 c 1
 168 594 l 1
 168 466 l 1
 96 466 l 1
 96 674 l 1
 509 674 l 1
 509 577 l 2
EndSplineSet
Validated: 1
EndChar

StartChar: eight
Encoding: 56 56 25
Width: 583
Flags: MW
HStem: -6 21<277.5 356> 322 75<256.5 294> 660 20<238.5 328>
VStem: 52 91<196 224>
LayerCount: 2
Fore
SplineSet
533 203 m 0
 533 186 532 144 508 102 c 0
 481 53 420 -6 292 -6 c 0
 263 -6 147 -4 85 90 c 0
 55 136 52 180 52 201 c 0
 52 247 70 298 103 331 c 0
 112 340 123 348 144 362 c 1
 92 397 69 439 69 501 c 0
 69 553 87 585 99 603 c 0
 130 646 184 680 293 680 c 0
 363 680 438 668 482 606 c 0
 513 564 514 519 514 501 c 0
 514 481 512 424 464 381 c 0
 455 373 448 368 438 362 c 1
 472 341 533 304 533 203 c 0
424 502 m 0
 424 515 420 555 386 579 c 0
 352 603 295 603 288 603 c 0
 248 603 201 594 175 559 c 0
 163 543 158 524 158 503 c 0
 158 494 159 472 172 450 c 0
 189 419 221 397 292 397 c 0
 364 397 396 420 412 452 c 0
 417 461 424 478 424 502 c 0
440 204 m 0
 440 218 438 259 404 288 c 0
 366 322 299 322 289 322 c 0
 174 322 143 253 143 202 c 0
 143 190 144 161 163 133 c 0
 202 77 278 76 294 76 c 0
 308 76 370 77 408 117 c 0
 439 149 441 189 440 204 c 0
EndSplineSet
Validated: 33
EndChar

StartChar: nine
Encoding: 57 57 26
Width: 583
Flags: MW
HStem: -6 76<261.5 289 261.5 304> 218 80<241 292 241 320.5> 602 75<258.5 294 235 314.5>
VStem: 430 95<328.5 438>
LayerCount: 2
Fore
SplineSet
525 343 m 0
 525 314 527 168 449 71 c 0
 440 60 421 36 390 19 c 0
 368 7 333 -6 275 -6 c 0
 243 -6 225 -2 212 2 c 0
 186 10 133 34 98 97 c 0
 90 111 82 129 73 162 c 1
 160 178 l 1
 161 171 169 140 185 116 c 0
 208 83 242 70 281 70 c 0
 297 70 338 73 373 106 c 0
 420 152 439 242 439 304 c 1
 418 277 369 218 272 218 c 0
 141 218 52 313 52 444 c 0
 52 470 56 551 114 612 c 0
 140 639 190 677 280 677 c 0
 308 677 379 675 438 619 c 0
 487 572 525 489 525 343 c 0
430 432 m 0
 430 444 430 466 422 493 c 0
 401 560 350 602 279 602 c 0
 238 602 212 587 199 577 c 0
 142 536 141 455 141 439 c 0
 141 409 146 391 152 378 c 0
 164 349 200 298 282 298 c 0
 302 298 322 301 340 308 c 0
 369 318 427 349 430 432 c 0
EndSplineSet
Validated: 33
EndChar

StartChar: colon
Encoding: 58 58 27
Width: 271
Flags: MW
HStem: 0 113<106 205 106 205> 377 112<106 205 106 205>
VStem: 106 99<0 113 377 489>
LayerCount: 2
Fore
SplineSet
205 377 m 1
 106 377 l 1
 106 489 l 1
 205 489 l 1
 205 377 l 1
205 0 m 1
 106 0 l 1
 106 113 l 1
 205 113 l 1
 205 0 l 1
EndSplineSet
Validated: 1
EndChar

StartChar: semicolon
Encoding: 59 59 28
Width: 271
Flags: MW
HStem: -155 21<122 167 122 122> 0 21<107 147 107 107> 380 110<107 206 107 206>
VStem: 107 99<21 50 50 111 21 111 380 490>
LayerCount: 2
Fore
SplineSet
206 380 m 1
 107 380 l 1
 107 490 l 1
 206 490 l 1
 206 380 l 1
206 50 m 2
 206 -8 201 -66 181 -121 c 0
 177 -132 171 -144 167 -155 c 1
 122 -155 l 1
 138 -105 147 -52 147 0 c 1
 107 0 l 1
 107 111 l 1
 206 111 l 1
 206 50 l 2
EndSplineSet
Validated: 1
EndChar

StartChar: less
Encoding: 60 60 29
Width: 724
Flags: MW
HStem: 23 21<579 579> 561 20<579 579>
LayerCount: 2
Fore
SplineSet
579 23 m 1
 114 257 l 1
 114 346 l 1
 579 581 l 1
 579 493 l 1
 195 303 l 1
 579 114 l 1
 579 23 l 1
EndSplineSet
Validated: 1
EndChar

StartChar: equal
Encoding: 61 61 30
Width: 724
Flags: MW
HStem: 163 77<99 625 99 625> 350 78<99 625 99 625>
LayerCount: 2
Fore
SplineSet
625 350 m 1
 99 350 l 1
 99 428 l 1
 625 428 l 1
 625 350 l 1
625 163 m 1
 99 163 l 1
 99 240 l 1
 625 240 l 1
 625 163 l 1
EndSplineSet
Validated: 1
EndChar

StartChar: greater
Encoding: 62 62 31
Width: 724
Flags: MW
HStem: 21 21<144 144> 559 20<144 144>
LayerCount: 2
Fore
SplineSet
609 256 m 1
 144 21 l 1
 144 110 l 1
 528 299 l 1
 144 488 l 1
 144 579 l 1
 609 346 l 1
 609 256 l 1
EndSplineSet
Validated: 1
EndChar

StartChar: question
Encoding: 63 63 32
Width: 562
Flags: HMW
HStem: 0 97<251 340 251 340> 451 20<71 158 71 71> 637 75<263.5 310 248 329>
VStem: 71 87<471 487 471 514.5> 251 85<0 302 97 302> 257 79<150 302>
LayerCount: 2
Fore
SplineSet
526 496 m 0xf4
 526 392 459 341 424 324 c 0
 397 311 364 305 336 302 c 1
 336 150 l 1
 257 150 l 1
 258 386 l 1
 285 386 l 2
 291 386 349 387 383 405 c 0
 403 415 415 429 420 436 c 0
 442 465 443 494 443 507 c 0
 443 541 431 564 424 575 c 0
 409 598 365 637 293 637 c 0
 234 637 206 613 191 594 c 0
 175 575 158 542 158 487 c 2
 158 471 l 1
 71 471 l 1
 71 558 94 602 120 633 c 0
 143 661 200 712 296 712 c 0
 324 712 390 707 451 657 c 0
 519 601 526 528 526 496 c 0xf4
340 0 m 1
 251 0 l 1
 251 97 l 1xf8
 340 97 l 1
 340 0 l 1
516 496 m 0
 516 526.689893616 509.34947087 595.992956021 444.642927471 649.280697644 c 0
 386.241005693 697.151125331 322.858510787 702 296 702 c 0
 203.814505503 702 149.529500651 653.194460851 127.694790369 626.613074421 c 0
 103.797021672 598.119580975 83.0573965523 561.147056565 81.1046519166 481 c 1
 148 481 l 1
 148 487 l 2
 148 544.072345785 165.965062968 579.795690209 183.249094984 600.320478229 c 0
 199.490472723 620.892890032 230.996304865 647 293 647 c 0
 368.82373571 647 415.63838174 606.127188289 432.406622769 580.415885378 c 0
 440.090535808 568.341164889 453 543.426618927 453 507 c 0
 453 493.362357426 451.796867177 461.368347894 428.053787381 430.070651799 c 0
 422.575827685 422.401508225 409.218408277 406.928864251 387.576125058 396.107722642 c 0
 350.402466184 376.427550296 291.530108643 376 285 376 c 2
 267.957716891 376 l 1
 267.042462654 160 l 1
 326 160 l 1
 326 302 l 1
 326 310.9858056 l 1
 334.934668764 311.943091539 l 2
 362.373817867 314.883000372 394.402087099 320.847911613 419.661843812 333.010016698 c 0
 452.471941139 348.946349685 516 396.943969565 516 496 c 0
330 10 m 1
 330 87 l 1
 261 87 l 1
 261 10 l 1
 330 10 l 1
EndSplineSet
Validated: 524289
EndChar

StartChar: at
Encoding: 64 64 33
Width: 896
Flags: MW
HStem: -124 55<424.5 517 359.5 523> 71 64<369 400.5> 454 63<444.5 477.5 432.5 483> 658 54<412 598.5>
VStem: 69 56<159.5 344.5 138.5 361.5> 239 79<212.5 270 212.5 278> 769 58<399.5 496>
LayerCount: 2
Fore
SplineSet
827 424 m 0
 827 375 819 325 804 278 c 0
 776 193 699 70 596 70 c 0
 544 70 512 105 513 156 c 1
 477 109 432 71 369 71 c 0
 278 71 239 152 239 233 c 0
 239 323 279 431 355 484 c 0
 383 504 415 517 450 517 c 0
 505 517 546 483 565 433 c 1
 580 495 l 1
 648 495 l 1
 615 345 l 2
 603 291 587 229 587 173 c 0
 587 153 594 130 618 130 c 0
 642 130 668 153 683 171 c 0
 739 237 769 335 769 421 c 0
 769 571 672 658 525 658 c 0
 299 658 125 454 125 235 c 0
 125 42 267 -69 452 -69 c 0
 582 -69 695 -12 787 77 c 1
 820 36 l 1
 722 -62 593 -124 453 -124 c 0
 396 -124 332 -111 279 -89 c 0
 140 -30 69 85 69 234 c 0
 69 489 268 712 529 712 c 0
 704 712 827 603 827 424 c 0
540 357 m 0
 540 407 510 454 456 454 c 0
 433 454 410 442 393 428 c 0
 343 385 318 302 318 238 c 0
 318 187 340 135 398 135 c 0
 473 135 517 224 532 286 c 0
 537 309 540 333 540 357 c 0
EndSplineSet
Validated: 33
EndChar

StartChar: A
Encoding: 65 65 34
Width: 646
Flags: HMW
HStem: 0 21<10 110 10 10 535 634 535 535> 216 79<219 430 219 458 189 430> 686 20<279 377 377 377>
LayerCount: 2
Fore
SplineSet
634 0 m 1
 535 0 l 1
 458 216 l 1
 189 216 l 1
 110 0 l 1
 10 0 l 1
 279 706 l 1
 377 706 l 1
 634 0 l 1
430 295 m 1
 327 590 l 1
 219 295 l 1
 430 295 l 1
619.717816318 10 m 1
 369.998269576 696 l 1
 285.89109186 696 l 1
 24.5114884602 10 l 1
 103.009561196 10 l 1
 179.608429347 219.434880007 l 1
 182.009561196 226 l 1
 189 226 l 1
 458 226 l 1
 465.051583099 226 l 1
 467.419390721 219.357838359 l 1
 542.051583099 10 l 1
 619.717816318 10 l 1
439.441075589 298.296375544 m 1
 444.083538914 285 l 1
 430 285 l 1
 219 285 l 1
 204.689896466 285 l 1
 209.609523249 298.437869455 l 1
 317.609523249 593.437869455 l 1
 327.223135254 619.697272618 l 1
 336.441075589 593.296375544 l 1
 439.441075589 298.296375544 l 1
EndSplineSet
Validated: 524289
EndChar

StartChar: B
Encoding: 66 66 35
Width: 688
Flags: HMW
HStem: 0 83<166 353> 329 80<166 314 314 339 166 314> 623 83<166 367 166 166>
VStem: 77 89<83 329 409 623> 520 99<502 529.5> 543 97<195 206.5>
LayerCount: 2
Fore
SplineSet
640 195 m 0xf4
 639 68 550 25 505 12 c 0
 463 -1 433 0 353 0 c 2
 77 0 l 1
 77 706 l 1
 409 706 l 2
 466 706 516 694 561 655 c 0
 600 622 619 577 619 525 c 0xf8
 619 479 604 439 571 407 c 0
 556 393 539 383 533 380 c 0
 529 378 522 375 511 372 c 1
 531 366 549 359 567 347 c 0
 597 327 640 283 640 195 c 0xf4
520 520 m 0xf8
 520 539 519 579 476 605 c 0
 448 622 426 623 367 623 c 2
 166 623 l 1
 166 409 l 1
 314 409 l 2
 373 409 421 410 443 416 c 0
 469 422 520 447 520 520 c 0xf8
543 202 m 0xf4
 543 211 543 232 534 253 c 0
 526 272 503 311 449 323 c 0
 418 330 397 329 339 329 c 2
 166 329 l 1
 166 83 l 1
 375 83 l 2
 414 83 446 85 460 89 c 0
 466 90 481 94 496 103 c 0
 517 116 543 142 543 202 c 0xf4
630 195.039369469 m 0
 630 279.357432157 589.410860792 320.040921887 561.452998038 338.679497057 c 0
 544.544022763 349.95214724 527.677570028 356.556422483 508.126521144 362.421737148 c 2
 474.672870777 372.457832258 l 1
 508.368825942 381.647638212 l 2
 518.778289196 384.486582736 525.131479133 387.246079454 528.527864045 388.94427191 c 0
 533.552011434 391.456345605 550.297449912 401.356476271 564.107051874 414.245438101 c 0
 594.943666002 444.147609377 609 481.266520218 609 525 c 0
 609 574.504149672 591.242169738 616.310943787 554.495408381 647.404357243 c 0
 511.595779107 684.584035947 464.625495874 696 409 696 c 2
 87 696 l 1
 87 10 l 1
 353 10 l 2
 433.475446785 10 461.702894489 9.06658540701 502.133626072 21.5808594685 c 0
 545.37780911 34.0736234573 629.046834571 73.9873599429 630 195.039369469 c 0
530 520 m 0
 530 441.515575839 474.867267149 413.281184323 445.451683534 406.302461276 c 0
 421.129871273 399.872230676 373.215826208 399 314 399 c 2
 166 399 l 1
 156 399 l 1
 156 409 l 1
 156 623 l 1
 156 633 l 1
 166 633 l 1
 367 633 l 2
 425.562933063 633 450.749966172 632.029191506 481.189781342 613.547875152 c 0
 528.742154084 584.795277681 530 539.440134509 530 520 c 0
553 202 m 0
 553 138.652009102 524.628897322 108.961613547 501.204502803 94.4607978919 c 0
 485.062981872 84.7758853334 469.813896778 80.5943903302 462.206993966 79.2332203292 c 0
 446.943132082 75.0495343494 414.216327697 73 375 73 c 2
 166 73 l 1
 156 73 l 1
 156 83 l 1
 156 329 l 1
 156 339 l 1
 166 339 l 1
 339 339 l 2
 396.622669418 339 418.772423285 340.077355118 451.202608714 332.754410021 c 0
 509.442493308 319.812213444 534.554805529 277.451747029 543.216353751 256.880570001 c 0
 553.084127974 233.855763481 553 211.155321598 553 202 c 0
EndSplineSet
Validated: 524321
EndChar

StartChar: C
Encoding: 67 67 36
Width: 764
Flags: HMW
HStem: -18 79<380.5 403.5> 649 75<396.5 426 294 460.5>
VStem: 49 104<276 377.5 273 463>
LayerCount: 2
Fore
SplineSet
742 256 m 1
 740 246 735 225 725 200 c 0
 707 154 646 39 507 -2 c 0
 457 -17 413 -18 394 -18 c 0
 269 -18 198 32 160 67 c 0
 113 111 49 199 49 353 c 0
 49 573 182 724 406 724 c 0
 446 724 579 721 666 619 c 0
 695 585 713 549 728 508 c 1
 633 489 l 1
 621 523 610 542 601 555 c 0
 576 590 516 649 405 649 c 0
 388 649 345 647 302 629 c 0
 154 566 153 397 153 358 c 0
 153 188 234 108 303 79 c 0
 321 72 355 61 406 61 c 0
 418 61 446 61 478 70 c 0
 506 78 572 105 611 178 c 0
 622 199 631 222 640 268 c 1
 742 256 l 1
729.81342906 247.364747894 m 1
 647.975556441 256.992732908 l 1
 639.56817205 217.129533812 630.409916498 193.503895876 619.858315353 173.359930053 c 0
 578.974826559 96.8344253879 510.220755596 68.8057731857 480.747211279 60.3847605236 c 0
 447.379173862 51 418.173849497 51 406 51 c 0
 353.491891845 51 318.269976877 62.3321157059 299.249788028 69.7288558137 c 0
 226.308870624 100.385183418 143 184.452180581 143 358 c 0
 143 396.657160321 143.305784498 572.316034118 298.083328434 638.201069712 c 0
 343.113919428 657.051084547 387.221152418 659 405 659 c 0
 519.957448721 659 582.853253132 597.61009615 609.180070504 560.752551828 c 0
 617.984738405 548.034698194 628.264277038 530.406800074 639.464470586 500.490933144 c 1
 714.485577212 515.49515447 l 1
 700.912538501 550.301926842 683.897292994 582.607378579 658.39166048 612.510533939 c 0
 574.702132515 710.629290864 445.616945452 714 406 714 c 0
 187.614656144 714 59 568.399698432 59 353 c 0
 59 201.978750424 121.426985835 116.809135476 166.834242881 74.3002139863 c 0
 203.531208881 40.5003768811 271.893233435 -8 394 -8 c 0
 412.566535556 -8 455.529966627 -7.00070350284 504.126521144 7.57826285221 c 0
 638.842568253 47.3146508483 698.240233317 159.056349667 715.687572203 203.643993486 c 0
 722.716378476 221.216009169 726.881044317 235.541839238 729.81342906 247.364747894 c 1
EndSplineSet
Validated: 524289
EndChar

StartChar: D
Encoding: 68 68 37
Width: 708
Flags: HMW
HStem: 0 82<175 257> 1 21<313.5 356> 623 83<175 286 175 175>
VStem: 78 97<82 623 82 706 82 706> 562 96<332.5 385.5>
LayerCount: 2
Fore
SplineSet
658 352 m 0xb8
 658 313 655 269 646 231 c 0
 634 181 593 54 443 13 c 0
 412 4 387 1 325 1 c 0x78
 302 1 279 0 257 0 c 2
 78 0 l 1
 78 706 l 1
 358 706 l 2
 394 706 472 704 548 640 c 0
 602 594 658 511 658 352 c 0xb8
562 353 m 0
 562 418 550 497 507 550 c 0
 496 563 485 574 472 583 c 0
 446 602 424 609 412 612 c 0
 379 622 352 623 286 623 c 2
 175 623 l 1
 175 82 l 1
 342 82 l 2xb8
 368 82 447 85 501 148 c 0
 533 184 562 246 562 353 c 0
648 352 m 0
 648 508.500493422 593.369141096 588.215807325 541.515335444 632.387567695 c 0
 468.242039001 694.091396279 393.390769515 696 358 696 c 2
 88 696 l 1
 88 10 l 1
 257 10 l 2
 278.700237191 10 301.712882196 11 325 11 c 0
 386.929010777 11 410.110541093 13.8643586346 440.287473518 22.625403532 c 0
 585.079855406 62.2019879148 624.514305363 184.326139454 636.27612698 233.333729525 c 0
 644.982271246 270.093005315 648 313.532715228 648 352 c 0
572 353 m 0
 572 244.23583917 542.307599773 179.419056521 508.533940928 141.42369032 c 0
 451.473896499 74.8536384867 368.588169877 72 342 72 c 2
 175 72 l 1
 165 72 l 1
 165 82 l 1
 165 623 l 1
 165 633 l 1
 175 633 l 1
 286 633 l 2
 351.709855583 633 379.15994854 632.278770777 414.672832207 621.639718937 c 0
 426.943271985 618.525318521 450.858021683 610.835478146 477.797077745 591.149244869 c 0
 491.59134509 581.599367477 503.278447025 569.879459303 514.700562341 556.380595748 c 0
 560.262670196 500.222648857 572 419.015488426 572 353 c 0
EndSplineSet
Validated: 524289
EndChar

StartChar: E
Encoding: 69 69 38
Width: 604
Flags: HMW
HStem: 0 82<169 577 169 577> 323 82<169 513 169 513> 623 83<169 565 169 169>
VStem: 79 90<82 323 405 623>
LayerCount: 2
Fore
SplineSet
577 0 m 1
 79 0 l 1
 79 706 l 1
 565 706 l 1
 565 623 l 1
 169 623 l 1
 169 405 l 1
 513 405 l 1
 513 323 l 1
 169 323 l 1
 169 82 l 1
 577 82 l 1
 577 0 l 1
567 10 m 1
 567 72 l 1
 169 72 l 1
 159 72 l 1
 159 82 l 1
 159 323 l 1
 159 333 l 1
 169 333 l 1
 503 333 l 1
 503 395 l 1
 169 395 l 1
 159 395 l 1
 159 405 l 1
 159 623 l 1
 159 633 l 1
 169 633 l 1
 555 633 l 1
 555 696 l 1
 89 696 l 1
 89 10 l 1
 567 10 l 1
EndSplineSet
Validated: 1
EndChar

StartChar: F
Encoding: 70 70 39
Width: 542
Flags: HMW
HStem: 0 21<78 172 78 78> 332 82<172 506 172 506> 622 84<172 531 172 172>
VStem: 78 94<0 332 414 622>
LayerCount: 2
Fore
SplineSet
531 622 m 1
 172 622 l 1
 172 414 l 1
 506 414 l 1
 506 332 l 1
 172 332 l 1
 172 0 l 1
 78 0 l 1
 78 706 l 1
 531 706 l 1
 531 622 l 1
521 632 m 1
 521 696 l 1
 88 696 l 1
 88 10 l 1
 162 10 l 1
 162 332 l 1
 162 342 l 1
 172 342 l 1
 496 342 l 1
 496 404 l 1
 172 404 l 1
 162 404 l 1
 162 414 l 1
 162 622 l 1
 162 632 l 1
 172 632 l 1
 521 632 l 1
EndSplineSet
Validated: 1
EndChar

StartChar: G
Encoding: 71 71 40
Width: 812
Flags: HMW
HStem: -18 82<372.5 428 354.5 461.5> 0 21<659 741 659 659> 294 79<413 659 413 741> 646 78<363.5 424.5 339.5 430>
VStem: 50 104<339.5 367> 659 82<0 99 99 99 294 294>
LayerCount: 2
Fore
SplineSet
741 0 m 1x7c
 659 0 l 1x7c
 659 99 l 1
 653 91 647 79 631 64 c 0
 596 29 522 -18 401 -18 c 0
 344 -18 291 -8 240 16 c 0
 169 50 50 143 50 344 c 0
 50 390 56 511 146 612 c 0
 187 657 265 724 414 724 c 0
 435 724 488 723 544 703 c 0
 580 691 655 658 712 572 c 0
 723 555 732 538 741 519 c 1
 643 494 l 1
 633 523 620 549 598 573 c 0
 537 643 443 646 417 646 c 0
 310 646 254 597 226 565 c 0
 196 531 154 464 154 355 c 0
 154 324 156 239 209 164 c 0
 238 124 294 64 415 64 c 0xbc
 441 64 508 67 571 110 c 0
 658 170 660 257 659 294 c 1
 413 294 l 1
 413 373 l 1
 741 373 l 1
 741 0 l 1x7c
731 10 m 1
 731 363 l 1
 423 363 l 1
 423 304 l 1
 659 304 l 1
 668.733381364 304 l 1
 668.996349699 294.270171613 l 2
 670.01724241 256.497141311 667.886994784 164.671089538 576.677329558 101.767872141 c 0
 511.031231038 56.9618048967 441.812338839 54 415 54 c 0
 290.140285157 54 230.895029488 116.763243014 200.86831916 158.17939519 c 0
 145.817006287 236.082196426 144 323.452139876 144 355 c 0
 144 466.70552419 187.242370019 536.189064753 218.501621446 571.616216371 c 0
 247.581503727 604.850367548 306.61988857 656 417 656 c 0
 443.500567468 656 541.303136795 653.283177503 605.456496654 579.664567829 c 0
 626.244888154 556.986322556 638.704851628 534.060014329 649.338371854 505.937188623 c 1
 726.660388329 525.662192826 l 1
 720.326682584 538.413309678 711.97642478 553.628746493 703.634203648 566.521270061 c 0
 648.314123788 649.986653709 575.68742037 681.896601009 540.736810004 693.546804465 c 0
 486.253068901 713.00528343 434.633542474 714 414 714 c 0
 268.346902389 714 193.294571798 649.060645871 153.429173888 605.305940848 c 0
 66.0631807255 507.261881854 60 389.15743144 60 344 c 0
 60 147.617741106 175.636865749 57.9092511084 244.319049376 25.0191913435 c 0
 293.711355239 1.77575329037 345.201301769 -8 401 -8 c 0
 519.342533963 -8 590.576330583 37.7184662071 624.042952015 71.1850876386 c 0
 639.356178557 85.5412375214 644.032782292 95.7103763896 651 105 c 2
 669 129 l 1
 669 99 l 1
 669 10 l 1
 731 10 l 1
EndSplineSet
Validated: 524321
EndChar

StartChar: H
Encoding: 72 72 41
Width: 729
Flags: HMW
HStem: 0 21<79 172 79 79 556 651 556 556> 323 83<172 556 172 556> 686 20<79 172 172 172 556 651 651 651>
VStem: 79 93<0 323 0 406 406 706> 556 95<0 323 323 323 406 706>
LayerCount: 2
Fore
SplineSet
651 0 m 1
 556 0 l 1
 556 323 l 1
 172 323 l 1
 172 0 l 1
 79 0 l 1
 79 706 l 1
 172 706 l 1
 172 406 l 1
 556 406 l 1
 556 706 l 1
 651 706 l 1
 651 0 l 1
641 10 m 1
 641 696 l 1
 566 696 l 1
 566 406 l 1
 566 396 l 1
 556 396 l 1
 172 396 l 1
 162 396 l 1
 162 406 l 1
 162 696 l 1
 89 696 l 1
 89 10 l 1
 162 10 l 1
 162 323 l 1
 162 333 l 1
 172 333 l 1
 556 333 l 1
 566 333 l 1
 566 323 l 1
 566 10 l 1
 641 10 l 1
EndSplineSet
Validated: 1
EndChar

StartChar: I
Encoding: 73 73 42
Width: 229
Flags: HMW
HStem: 0 21<67 162 67 67> 686 20<67 162 162 162>
VStem: 67 95<0 706>
LayerCount: 2
Fore
SplineSet
162 0 m 1
 67 0 l 1
 67 706 l 1
 162 706 l 1
 162 0 l 1
152 10 m 1
 152 696 l 1
 77 696 l 1
 77 10 l 1
 152 10 l 1
EndSplineSet
Validated: 1
EndChar

StartChar: J
Encoding: 74 74 43
Width: 375
Flags: HMW
HStem: -18 21<93.5 118> 686 20<201 297 297 297>
VStem: 201 96<228 706>
LayerCount: 2
Fore
SplineSet
297 187 m 2
 297 131 297 88 259 44 c 0
 206 -18 131 -18 105 -18 c 0
 82 -18 56 -17 9 -8 c 1
 9 95 l 1
 21 89 l 2
 43 78 69 75 92 75 c 0
 99 75 108 74 123 77 c 0
 148 81 170 90 185 112 c 0
 201 136 201 168 201 228 c 2
 201 706 l 1
 297 706 l 1
 297 187 l 2
287 187 m 2
 287 696 l 1
 211 696 l 1
 211 228 l 2
 211 168.568105161 211.807288435 134.183176274 193.291613092 106.40966326 c 0
 176.196369522 81.3366393579 150.727511742 71.3092107578 124.771197656 67.1562005041 c 0
 109.104103093 64.0227815913 98.002468588 65 92 65 c 0
 68.8459442968 65 43.5710998571 67.4591578276 19 78.8555763711 c 1
 19 0.308204982369 l 1
 58.698167557 -6.86174881704 84.1535284704 -8 105 -8 c 0
 130.849983413 -8 201.624282186 -7.7289672051 251.398786556 50.497811492 c 0
 286.941263318 91.6522582683 287 130.65015462 287 187 c 2
EndSplineSet
Validated: 524321
EndChar

StartChar: K
Encoding: 75 75 44
Width: 625
Flags: HMW
HStem: 0 21<67 161 67 67 509 624 509 509> 686 20<67 161 161 161 496 612 612 612>
VStem: 67 94<0 246 361 706>
LayerCount: 2
Fore
SplineSet
624 0 m 1
 509 0 l 1
 261 348 l 1
 161 246 l 1
 161 0 l 1
 67 0 l 1
 67 706 l 1
 161 706 l 1
 161 361 l 1
 496 706 l 1
 612 706 l 1
 326 414 l 1
 624 0 l 1
604.480723918 10 m 1
 317.883912977 408.15798567 l 1
 312.968673989 414.986539163 l 1
 318.855915004 420.997288729 l 1
 588.207885632 696 l 1
 500.228539175 696 l 1
 168.17427838 354.033671718 l 1
 151 336.346728312 l 1
 151 361 l 1
 151 696 l 1
 77 696 l 1
 77 10 l 1
 151 10 l 1
 151 246 l 1
 151 250.084257069 l 1
 153.859271609 253.000714109 l 1
 253.859271609 355.000714109 l 1
 262.216004355 363.52458151 l 1
 269.143654572 353.803523948 l 1
 514.153062443 10 l 1
 604.480723918 10 l 1
EndSplineSet
Validated: 524289
EndChar

StartChar: L
Encoding: 76 76 45
Width: 521
Flags: HMW
HStem: 0 84<162 504 162 504> 686 20<68 162 162 162>
VStem: 68 94<84 706 84 706 84 706>
LayerCount: 2
Fore
SplineSet
504 0 m 1
 68 0 l 1
 68 706 l 1
 162 706 l 1
 162 84 l 1
 504 84 l 1
 504 0 l 1
494 10 m 1
 494 74 l 1
 162 74 l 1
 152 74 l 1
 152 84 l 1
 152 696 l 1
 78 696 l 1
 78 10 l 1
 494 10 l 1
EndSplineSet
Validated: 1
EndChar

StartChar: M
Encoding: 77 77 46
Width: 812
Flags: HMW
HStem: 0 21<68 160 68 68 369 442 369 369 652 746 652 652> 686 20<68 190 190 190 624 746 746 746>
VStem: 68 87 658 88
LayerCount: 2
Fore
SplineSet
746 0 m 1
 652 0 l 1
 665 592 l 1
 442 0 l 1
 369 0 l 1
 150 583 l 1
 160 0 l 1
 68 0 l 1
 68 706 l 1
 190 706 l 1
 406 127 l 1
 624 706 l 1
 746 706 l 1
 746 0 l 1
736 10 m 1
 736 696 l 1
 630.920208058 696 l 1
 415.358633808 123.476369309 l 1
 405.956848065 98.5055713939 l 1
 396.630736777 123.504730818 l 1
 183.057372108 696 l 1
 78 696 l 1
 78 10 l 1
 149.827002453 10 l 1
 140.001470744 582.828498641 l 1
 139.008876607 640.696736852 l 1
 159.361310641 586.516512916 l 1
 375.925832645 10 l 1
 435.080944366 10 l 1
 655.641915492 595.525089266 l 1
 676.283118695 650.321467277 l 1
 674.997589782 591.780458332 l 1
 662.222005393 10 l 1
 736 10 l 1
EndSplineSet
Validated: 524289
EndChar

StartChar: N
Encoding: 78 78 47
Width: 708
Flags: HMW
HStem: 0 21<78 167 78 78 545 630 545 545> 686 20<78 167 167 167 545 630 630 630>
VStem: 78 84 547 83
LayerCount: 2
Fore
SplineSet
630 0 m 1
 545 0 l 1
 158 574 l 1
 167 0 l 1
 78 0 l 1
 78 706 l 1
 167 706 l 1
 549 140 l 1
 545 706 l 1
 630 706 l 1
 630 0 l 1
620 10 m 1
 620 696 l 1
 555.070921097 696 l 1
 558.999750287 140.070669613 l 1
 559.233738439 106.961346151 l 1
 540.711173727 134.405774494 l 1
 161.684682308 696 l 1
 88 696 l 1
 88 10 l 1
 156.841976426 10 l 1
 148.001228998 573.843224845 l 1
 147.473490534 607.501211308 l 1
 166.291499848 579.590262093 l 1
 550.318383873 10 l 1
 620 10 l 1
EndSplineSet
Validated: 524289
EndChar

StartChar: O
Encoding: 79 79 48
Width: 812
Flags: HMW
HStem: -18 74<385 418 385 484> 648 76<407 426>
VStem: 51 102<306.5 374> 660 102<359 371.5>
LayerCount: 2
Fore
SplineSet
762 359 m 0
 762 322 759 209 688 113 c 0
 649 61 564 -18 404 -18 c 0
 361 -18 252 -13 161 72 c 0
 114 116 51 201 51 354 c 0
 51 394 53 516 139 613 c 0
 206 688 309 724 407 724 c 0
 455 724 503 716 547 699 c 0
 694 642 762 509 762 359 c 0
660 359 m 0
 660 384 660 480 605 555 c 0
 540 644 445 648 407 648 c 0
 292 647 234 590 207 551 c 0
 168 495 153 418 153 353 c 0
 153 260 181 197 200 166 c 0
 217 140 237 120 245 113 c 0
 274 88 300 77 313 72 c 0
 332 65 361 56 409 56 c 0
 427 56 471 57 516 77 c 0
 584 108 661 190 660 359 c 0
752 359 m 0
 752 506.007329037 685.892868841 634.418125679 543.384721455 689.67638691 c 0
 500.706262186 706.165791628 453.889384413 714 407 714 c 0
 311.288784998 714 211.107118076 678.706716549 146.457612074 606.337866547 c 0
 63.2516958933 512.48933318 61 393.550645267 61 354 c 0
 61 203.973900316 122.358384803 121.873357719 167.834242881 79.3002139863 c 0
 255.938397801 -2.99487577464 361.781069938 -8 404 -8 c 0
 560.33331988 -8 642.284059768 68.7120796912 680 119 c 0
 748.784279856 212.004096707 752 322.615456733 752 359 c 0
670 359.02958554 m 0
 671.019757433 186.690579326 591.849604898 100.588370238 520.148108477 67.9009233402 c 0
 472.921323936 46.9112413217 427.512832096 46 409 46 c 0
 359.72955793 46 329.227407228 55.3643990573 309.476400602 62.6410857093 c 0
 295.828548651 67.8902595363 268.619944861 79.4350891065 238.470603779 105.425900384 c 0
 229.570812727 113.213217555 209.438443532 133.291528049 191.550342065 160.649800881 c 0
 171.563628867 193.259701361 143 257.904672678 143 353 c 0
 143 419.394128126 158.071265618 498.241359778 198.793935843 556.714937538 c 0
 227.034838392 597.50735233 288.223298144 656.967537179 406.913046766 657.99962195 c 0
 445.738843491 657.99962195 545.116306203 653.949810363 613.075573389 560.897890677 c 0
 670.371091622 482.767638541 670 384.273324399 670 359.02958554 c 0
EndSplineSet
Validated: 524321
EndChar

StartChar: P
Encoding: 80 80 49
Width: 625
Flags: HMW
HStem: 0 21<76 167 76 76> 299 84<167 364 364 371 167 364> 625 81<167 381 381 385 167 167>
VStem: 76 91<0 299 0 383 383 625> 521 93<481.5 512.5>
LayerCount: 2
Fore
SplineSet
614 507 m 0
 614 417 569 333 477 308 c 0
 452 301 425 299 371 299 c 2
 167 299 l 1
 167 0 l 1
 76 0 l 1
 76 706 l 1
 381 706 l 2
 436 706 483 706 530 676 c 0
 609 626 614 534 614 507 c 0
521 509 m 0
 521 516 521 536 514 556 c 0
 502 589 475 611 442 620 c 0
 421 625 406 625 385 625 c 2
 167 625 l 1
 167 383 l 1
 364 383 l 2
 390 383 415 382 440 388 c 0
 497 403 521 454 521 509 c 0
604 507 m 0
 604 533.311722301 598.76782715 620.641461896 524.652024067 667.550198025 c 0
 480.386726017 695.804643589 436.259100812 696 381 696 c 2
 86 696 l 1
 86 10 l 1
 157 10 l 1
 157 299 l 1
 157 309 l 1
 167 309 l 1
 371 309 l 2
 424.86895711 309 450.78173534 311.043489884 474.303700745 317.629640197 c 0
 561.058528159 341.20432156 604 420.088661508 604 507 c 0
531 509 m 0
 531 451.392789533 505.350168021 394.856948056 442.439620533 378.301540822 c 0
 415.517777415 371.840298474 389.725973332 373 364 373 c 2
 167 373 l 1
 157 373 l 1
 157 383 l 1
 157 625 l 1
 157 635 l 1
 167 635 l 1
 385 635 l 2
 405.998469783 635 422.002073044 635.040950773 444.474343346 629.690410225 c 0
 480.42833427 619.884776336 510.147060835 595.85733248 523.418603422 559.360590366 c 0
 531.118240665 537.361626815 531 516.246946561 531 509 c 0
EndSplineSet
Validated: 524321
EndChar

StartChar: Q
Encoding: 81 81 50
Width: 812
Flags: HMW
HStem: -36 21<746 746> -18 76<366 425.5 366 449> 651 73<388 426>
VStem: 47 103<338 373 338 378> 661 101<337 368>
LayerCount: 2
Fore
SplineSet
806 34 m 1x78
 746 -36 l 1xb8
 634 59 l 1
 561 5 495 -18 403 -18 c 0
 318 -18 240 4 173 59 c 0
 122 101 47 191 47 353 c 0
 47 403 54 562 190 659 c 0
 229 687 295 724 408 724 c 0
 494 724 570 704 638 649 c 0
 691 605 762 515 762 350 c 0
 762 263 744 202 697 128 c 1
 806 34 l 1x78
661 353 m 0
 661 383 661 471 607 549 c 0
 542 643 447 651 405 651 c 0
 371 651 292 645 227 577 c 0
 150 495 150 390 150 356 c 0
 150 320 151 192 248 112 c 0
 273 91 324 58 408 58 c 0x78
 443 58 530 64 595 141 c 0
 662 222 661 321 661 353 c 0
791.919107598 32.938199626 m 1
 690.469229527 120.427085302 l 1
 683.927035439 126.068977451 l 1
 688.55869128 133.361371755 l 2
 734.784596083 206.142583572 752 264.504655734 752 350 c 0
 752 511.860531487 682.718462407 598.878265097 631.661618008 641.265079315 c 0
 565.806833217 694.529978778 492.420362296 714 408 714 c 0
 297.290600219 714 233.740194788 678.092853812 195.832067831 650.876762664 c 0
 64.160242726 556.963769758 57 402.36699053 57 353 c 0
 57 194.372752804 130.064475386 107.313205886 179.357072529 66.7193023562 c 0
 244.300464401 13.4075627592 319.733433732 -8 403 -8 c 0
 493.169194533 -8 556.386805159 14.0261274271 628.052993272 67.0394720583 c 2
 634.424587078 71.7527058323 l 1
 640.468574734 66.6261091597 l 1
 744.881789632 -21.9386713342 l 1
 791.919107598 32.938199626 l 1
671 353 m 0
 671 320.86628875 672.329984262 218.799088405 602.673662284 134.587714073 c 0
 534.735745049 54.107412118 444.02454297 48 408 48 c 0
 321.238475908 48 267.790365214 82.3162310467 241.568079136 104.342951352 c 0
 140.564929786 187.644517826 140 319.87125222 140 356 c 0
 140 390.229585162 139.728441134 498.66997038 219.710175073 583.845323407 c 0
 287.590414321 654.858496774 369.872455584 661 405 661 c 0
 448.126941784 661 547.481739687 652.654827551 615.225070685 554.687548878 c 0
 671.202501511 473.831259907 671 383.261184457 671 353 c 0
EndSplineSet
Validated: 524321
EndChar

StartChar: R
Encoding: 82 82 51
Width: 667
Flags: HMW
HStem: 0 21<78 170 78 78 545 657 545 545> 300 79<170 352 170 358> 628 78<170 341 341 353 170 170>
VStem: 78 92<0 300 0 379 379 628>
LayerCount: 2
Fore
SplineSet
657 0 m 1
 545 0 l 1
 352 300 l 1
 170 300 l 1
 170 0 l 1
 78 0 l 1
 78 706 l 1
 341 706 l 2
 363 706 386 707 408 706 c 0
 506 702 552 671 582 635 c 0
 601 612 625 570 625 500 c 0
 625 471 621 375 531 329 c 0
 514 320 497 313 459 306 c 1
 657 0 l 1
532 500 m 0
 532 520 530 575 476 608 c 0
 439 630 395 628 353 628 c 2
 170 628 l 1
 170 379 l 1
 358 379 l 2
 411 379 474 378 510 427 c 0
 526 449 532 473 532 500 c 0
638.618554864 10 m 1
 450.604298428 300.567487218 l 1
 442.478917072 313.124894769 l 1
 457.188375705 315.834531886 l 2
 494.707633419 322.745974096 509.898021992 329.143296385 526.384766773 337.871573034 c 0
 610.89508344 381.065734886 615 471.450476252 615 500 c 0
 615 567.606579162 592.063074934 607.116873616 574.290382484 628.63118553 c 0
 546.082327432 662.480851592 503.489601538 692.094138847 407.592176305 696.008319469 c 0
 386.103025763 696.985099039 363.31904861 696 341 696 c 2
 88 696 l 1
 88 10 l 1
 160 10 l 1
 160 300 l 1
 160 310 l 1
 170 310 l 1
 352 310 l 1
 357.457325933 310 l 1
 360.409962624 305.410409288 l 1
 550.457325933 10 l 1
 638.618554864 10 l 1
542 500 m 0
 542 471.502062685 535.50118007 445.062284461 518.087360843 421.118283023 c 0
 478.330064551 367.004185293 410.04361981 369 358 369 c 2
 170 369 l 1
 160 369 l 1
 160 379 l 1
 160 628 l 1
 160 638 l 1
 170 638 l 1
 353 638 l 2
 394.448362572 638 440.784545174 640.573104627 481.162816417 616.564402806 c 0
 539.978298686 580.621608086 542 520.591949087 542 500 c 0
EndSplineSet
Validated: 524321
EndChar

StartChar: S
Encoding: 83 83 52
Width: 667
Flags: HMW
HStem: -18 74<324.5 346 299.5 396> 651 73<312.5 361 312.5 387>
VStem: 517 101<189 220.5>
LayerCount: 2
Fore
SplineSet
618 203 m 0
 618 175 614 112 559 58 c 0
 520 20 456 -18 336 -18 c 0
 313 -18 217 -17 143 31 c 0
 121 45 101 64 86 84 c 0
 44 140 39 204 37 226 c 1
 138 239 l 1
 139 218 141 159 186 112 c 0
 211 86 258 56 341 56 c 0
 351 56 378 56 406 64 c 0
 436 72 517 100 517 197 c 0
 517 244 497 264 481 277 c 0
 453 299 416 307 383 314 c 2
 322 327 l 2
 271 338 214 350 167 376 c 0
 82 422 71 486 71 528 c 0
 71 584 96 631 138 666 c 0
 210 726 298 724 327 724 c 0
 395 724 461 713 516 671 c 0
 549 646 565 622 573 608 c 0
 592 576 600 543 606 507 c 1
 511 501 l 1
 510 515 508 529 504 543 c 0
 490 593 445 651 329 651 c 0
 284 651 223 641 192 604 c 0
 177 587 168 563 168 540 c 0
 168 530 170 508 185 488 c 0
 212 451 267 440 308 430 c 2
 386 411 l 2
 404 407 423 402 441 397 c 0
 463 392 549 373 592 301 c 0
 602 284 618 253 618 203 c 0
608 203 m 0
 608 250.808683264 592.961354522 279.64261439 583.380657848 295.929798734 c 0
 543.051081787 363.458391209 460.749899532 382.256373586 438.783788964 387.248671442 c 2
 438.552296493 387.301283367 l 1
 438.323561362 387.364820904 l 2
 420.351574773 392.357039401 401.697886448 397.267642504 383.731767705 401.260113335 c 2
 305.633305835 420.284097637 l 2
 265.476598145 430.078416586 207.017991111 440.862778862 176.960700376 482.052399499 c 0
 160.152628169 504.463162441 158 528.824673146 158 540 c 0
 158 565.470020143 167.87089153 591.768055799 184.416967091 610.520274768 c 0
 218.709856553 651.450497674 283.181013812 661 329 661 c 0
 449.001982438 661 498.520422647 599.657790505 513.629640197 545.696299255 c 0
 516.914465763 534.199409773 518.760177358 523.802233836 520.09682369 511.594460982 c 1
 594.228201615 516.276442745 l 1
 588.449710398 547.408577603 580.656877771 575.517054211 564.35891062 602.966262045 c 0
 556.716129346 616.341129274 541.776120397 638.927035127 509.96142312 663.029078518 c 0
 457.416404886 703.15436517 394.051849345 714 327 714 c 0
 297.945478239 714 213.221835952 715.6677805 144.401843997 658.317787204 c 0
 104.321741869 624.917702097 81 580.838300031 81 528 c 0
 81 488.023797854 90.5376871675 428.750057407 171.759497967 384.794724504 c 0
 217.124875168 359.698983925 273.008027474 347.796854828 324.108378723 336.775210441 c 2
 385.084339945 323.780364359 l 2
 418.025319915 316.792883759 456.691754829 308.816831073 487.242487928 284.812683638 c 0
 504.45721804 270.825715422 527 247.362083382 527 197 c 0
 527 92.7593498733 439.096428303 62.4762644166 408.662127327 54.360450823 c 0
 379.400549446 46 351.138602028 46 341 46 c 0
 255.458206301 46 205.554394049 77.2356791511 178.791669351 105.068912837 c 0
 137.506649472 148.188822489 130.501732839 199.913019375 128.596330505 227.707131952 c 1
 47.8619345363 217.315576035 l 1
 50.5380916821 191.310934939 58.6986579715 137.068456038 94 90 c 0
 108.27691838 70.9641088267 127.497483337 52.7183331589 148.368754922 39.4366148773 c 0
 219.446938598 -6.66815291233 313.367450417 -8 336 -8 c 0
 453.777849482 -8 514.755337666 28.8518196644 552.021352731 65.1622958814 c 0
 604.184555613 116.377076893 608 175.990050412 608 203 c 0
EndSplineSet
Validated: 524321
EndChar

StartChar: T
Encoding: 84 84 53
Width: 542
Flags: HMW
HStem: 0 21<223 317 223 223> 624 82<11 223 11 528 317 528 317 317>
VStem: 223 94<0 624 0 624>
LayerCount: 2
Fore
SplineSet
528 624 m 1
 317 624 l 1
 317 0 l 1
 223 0 l 1
 223 624 l 1
 11 624 l 1
 11 706 l 1
 528 706 l 1
 528 624 l 1
518 634 m 1
 518 696 l 1
 21 696 l 1
 21 634 l 1
 223 634 l 1
 233 634 l 1
 233 624 l 1
 233 10 l 1
 307 10 l 1
 307 624 l 1
 307 634 l 1
 317 634 l 1
 518 634 l 1
EndSplineSet
Validated: 1
EndChar

StartChar: U
Encoding: 85 85 54
Width: 688
Flags: HMW
HStem: -18 21<319.5 379.5> 686 20<76 170 170 170 516 611 611 611>
VStem: 76 94<269 282 282 706> 516 95<284 706>
LayerCount: 2
Fore
SplineSet
611 255 m 2
 611 248 612 206 605 173 c 0
 599 141 577 73 502 25 c 0
 473 7 421 -18 338 -18 c 0
 301 -18 259 -13 223 1 c 0
 159 25 107 78 86 144 c 0
 76 178 76 203 76 269 c 2
 76 706 l 1
 170 706 l 1
 170 282 l 2
 170 255 169 227 173 200 c 0
 175 184 183 137 219 103 c 0
 236 87 256 76 278 69 c 0
 303 62 331 62 339 62 c 0
 356 62 401 62 444 90 c 0
 514 135 516 211 516 284 c 2
 516 706 l 1
 611 706 l 1
 611 255 l 2
601 255 m 2
 601 696 l 1
 526 696 l 1
 526 284 l 2
 526 211.570380908 524.495232678 129.858851738 449.407575913 81.5882152462 c 0
 403.83256878 51.9114664157 356.25745499 52 339 52 c 0
 330.691879771 52 302.253311499 51.8244687916 275.134952544 59.4176092991 c 0
 251.603645214 66.9048434495 230.386479107 78.5508225703 212.14635301 95.7180000731 c 0
 173.349052223 132.359895261 165.157479623 182.117585531 163.091314269 198.646908362 c 0
 158.949068742 226.60706567 160 255.320359279 160 282 c 2
 160 696 l 1
 86 696 l 1
 86 269 l 2
 86 202.78747061 86.0998976499 179.100438284 95.5626135784 146.927204127 c 0
 115.529026541 84.1756205296 165.295067138 33.3193545049 226.567979555 10.3420123487 c 0
 261.005745122 -3.05045203878 301.85518751 -8 338 -8 c 0
 418.905313542 -8 468.900722975 16.2253095471 496.667662624 33.4599617432 c 0
 568.533644379 79.4541900661 589.46558087 144.412499962 595.193094298 174.959238245 c 0
 601.906051896 206.606038348 601 247.776082234 601 255 c 2
EndSplineSet
Validated: 524321
EndChar

StartChar: V
Encoding: 86 86 55
Width: 604
Flags: HMW
HStem: 0 21<250 343 250 250> 686 20<11 111 111 111 492 592 592 592>
LayerCount: 2
Fore
SplineSet
592 706 m 1
 343 0 l 1
 250 0 l 1
 11 706 l 1
 111 706 l 1
 298 116 l 1
 492 706 l 1
 592 706 l 1
577.869356893 696 m 1
 499.238584489 696 l 1
 307.49963514 112.876391157 l 1
 297.825157717 83.4540113661 l 1
 288.467353076 112.978635636 l 1
 103.679225727 696 l 1
 24.9427331652 696 l 1
 257.172194922 10 l 1
 335.923181256 10 l 1
 577.869356893 696 l 1
EndSplineSet
Validated: 524289
EndChar

StartChar: W
Encoding: 87 87 56
Width: 1021
Flags: HMW
HStem: 0 21<235 329 235 235 695 787 695 695> 686 20<18 117 117 117 463 555 555 555 906 1003 1003 1003>
LayerCount: 2
Fore
SplineSet
1003 706 m 1
 787 0 l 1
 695 0 l 1
 509 585 l 1
 329 0 l 1
 235 0 l 1
 18 706 l 1
 117 706 l 1
 284 121 l 1
 463 706 l 1
 555 706 l 1
 741 121 l 1
 906 706 l 1
 1003 706 l 1
989.482953815 696 m 1
 913.569640815 696 l 1
 750.62449676 118.28539835 l 1
 741.573150134 86.1942603135 l 1
 731.470100577 117.969980696 l 1
 547.686197003 696 l 1
 470.397826216 696 l 1
 293.562372956 118.074077335 l 1
 283.667399911 85.7357576043 l 1
 274.384140491 118.254959764 l 1
 109.455214475 696 l 1
 31.5353632052 696 l 1
 242.388054423 10 l 1
 321.614253455 10 l 1
 499.442209913 587.940858488 l 1
 508.843540115 618.495181645 l 1
 518.529899423 588.030019304 l 1
 702.313802997 10 l 1
 779.601933985 10 l 1
 989.482953815 696 l 1
EndSplineSet
Validated: 524289
EndChar

StartChar: X
Encoding: 88 88 57
Width: 625
Flags: HMW
HStem: 0 21<21 130 21 21 494 605 494 494> 686 20<34 146 146 146 469 580 580 580>
LayerCount: 2
Fore
SplineSet
605 0 m 1
 494 0 l 1
 311 287 l 1
 130 0 l 1
 21 0 l 1
 256 370 l 1
 34 706 l 1
 146 706 l 1
 311 452 l 1
 469 706 l 1
 580 706 l 1
 364 370 l 1
 605 0 l 1
586.552255959 10 m 1
 355.620741717 364.542158794 l 1
 352.088994396 369.964343479 l 1
 355.588215246 375.407575913 l 1
 561.683345016 696 l 1
 474.556381018 696 l 1
 319.491232429 446.718052269 l 1
 311.182897236 433.36161468 l 1
 302.61405554 446.552437654 l 1
 140.571347717 696 l 1
 52.5927315675 696 l 1
 264.343353207 375.512572654 l 1
 267.914673788 370.107330693 l 1
 264.44130872 364.638628245 l 1
 39.1978556454 10 l 1
 124.484037646 10 l 1
 302.541611195 292.334384577 l 1
 310.953598171 305.672728568 l 1
 319.431772557 292.376356717 l 1
 499.483595829 10 l 1
 586.552255959 10 l 1
EndSplineSet
Validated: 524289
EndChar

StartChar: Y
Encoding: 89 89 58
Width: 625
Flags: HMW
HStem: 0 21<262 357 262 262> 686 20<14 125 125 125 499 611 611 611>
VStem: 262 95<0 323 0 323>
LayerCount: 2
Fore
SplineSet
611 706 m 1
 357 323 l 1
 357 0 l 1
 262 0 l 1
 262 323 l 1
 14 706 l 1
 125 706 l 1
 311 407 l 1
 499 706 l 1
 611 706 l 1
592.368917712 696 m 1
 504.524835519 696 l 1
 319.465636461 401.677124901 l 1
 310.954660784 388.141051884 l 1
 302.508867862 401.717891045 l 1
 119.443743228 696 l 1
 32.3885564289 696 l 1
 270.393937135 328.435238667 l 1
 272 325.954907711 l 1
 272 323 l 1
 272 10 l 1
 347 10 l 1
 347 323 l 1
 347 326.014584709 l 1
 348.66613087 328.526900154 l 1
 592.368917712 696 l 1
EndSplineSet
Validated: 524289
EndChar

StartChar: Z
Encoding: 90 90 59
Width: 604
Flags: HMW
HStem: 0 85<127 571 127 571> 620 86<53 454 53 561>
LayerCount: 2
Fore
SplineSet
571 0 m 1
 18 0 l 1
 18 92 l 1
 454 620 l 1
 53 620 l 1
 53 706 l 1
 561 706 l 1
 561 618 l 1
 127 85 l 1
 571 85 l 1
 571 0 l 1
561 10 m 1
 561 75 l 1
 127 75 l 1
 105.961607008 75 l 1
 119.245539636 91.3141384577 l 1
 551 621.55636743 l 1
 551 696 l 1
 63 696 l 1
 63 630 l 1
 454 630 l 1
 475.22629032 630 l 1
 461.710864444 613.63269527 l 1
 28 88.4048594294 l 1
 28 10 l 1
 561 10 l 1
EndSplineSet
Validated: 524289
EndChar

StartChar: bracketleft
Encoding: 91 91 60
Width: 277
Flags: MW
HStem: -144 59<148 252 148 252> 720 59<148 252 148 148>
VStem: 68 80<-85 720 -85 779 -85 779> 68 184<-144 -85 720 779>
LayerCount: 2
Fore
SplineSet
252 -144 m 1xd0
 68 -144 l 1
 68 779 l 1
 252 779 l 1
 252 720 l 1xd0
 148 720 l 1
 148 -85 l 1xe0
 252 -85 l 1
 252 -144 l 1xd0
EndSplineSet
Validated: 1
EndChar

StartChar: backslash
Encoding: 92 92 61
Width: 333
Flags: MW
HStem: 0 21<246 321 246 246> 682 20<13 90 90 90>
LayerCount: 2
Fore
SplineSet
321 0 m 1
 246 0 l 1
 13 702 l 1
 90 702 l 1
 321 0 l 1
EndSplineSet
Validated: 1
EndChar

StartChar: bracketright
Encoding: 93 93 62
Width: 276
Flags: MW
HStem: -143 59<23 127 23 207 23 127> 721 58<23 127 23 207>
VStem: 23 184<-143 -84 -84 -84 721 779> 127 80<-84 721 721 721>
LayerCount: 2
Fore
SplineSet
207 -143 m 1xe0
 23 -143 l 1
 23 -84 l 1xe0
 127 -84 l 1
 127 721 l 1xd0
 23 721 l 1
 23 779 l 1
 207 779 l 1
 207 -143 l 1xe0
EndSplineSet
Validated: 1
EndChar

StartChar: asciicircum
Encoding: 94 94 63
Width: 724
Flags: MW
HStem: 287 21<113 207 113 113 520 611 520 520> 686 20<317 408 408 408>
LayerCount: 2
Fore
SplineSet
611 287 m 1
 520 287 l 1
 364 626 l 1
 207 287 l 1
 113 287 l 1
 317 706 l 1
 408 706 l 1
 611 287 l 1
EndSplineSet
Validated: 1
EndChar

StartChar: underscore
Encoding: 95 95 64
Width: 500
Flags: MW
HStem: -214 75<-10 510 -10 510>
LayerCount: 2
Fore
SplineSet
510 -214 m 1
 -10 -214 l 1
 -10 -139 l 1
 510 -139 l 1
 510 -214 l 1
EndSplineSet
Validated: 1
EndChar

StartChar: quoteleft
Encoding: 8216 8216 65
Width: 229
Flags: MW
HStem: 440 21<63 162 63 63> 686 20<105 152 152 152>
VStem: 63 56<491 549> 63 99<440 491 491 536>
LayerCount: 2
Fore
SplineSet
162 440 m 1xd0
 63 440 l 1
 63 491 l 2
 63 581 74 622 105 706 c 1
 152 706 l 1
 134 653 124 605 119 549 c 1xe0
 162 549 l 1
 162 440 l 1xd0
EndSplineSet
Validated: 1
EndChar

StartChar: a
Encoding: 97 97 66
Width: 500
Flags: MW
HStem: -13 67<177.5 230.5 177.5 237.5> -6 21<433 441.5> 328 158 425 61<233.5 244 180 289>
VStem: 32 88<106.5 133> 347 79<132.5 133 133 197.5>
LayerCount: 2
Fore
SplineSet
486 3 m 1x9c
 462 -5 448 -6 435 -6 c 0x6c
 431 -6 403 -6 385 6 c 0
 377 12 371 21 369 24 c 0
 356 42 355 54 353 64 c 1
 331 40 283 -13 192 -13 c 0
 160 -13 139 -7 127 -3 c 0
 71 16 32 61 32 122 c 0
 32 144 38 189 83 224 c 0
 131 260 214 273 274 277 c 2
 346 282 l 1
 346 295 346 308 345 321 c 0
 343 355 337 425 241 425 c 0
 226 425 163 425 144 368 c 0
 139 353 139 342 139 326 c 1
 56 331 l 1
 56 340 58 357 64 377 c 0
 79 422 123 486 237 486 c 0
 251 486 277 485 311 476 c 0
 330 471 393 452 416 388 c 0
 425 363 426 339 426 287 c 2
 426 133 l 2
 426 123 426 112 427 102 c 0
 428 91 429 66 462 66 c 0
 472 66 477 68 486 70 c 1
 486 3 l 1x9c
347 193 m 0
 347 202 346 212 346 221 c 2
 346 230 l 1
 309 224 215 212 178 196 c 0
 163 190 120 170 120 124 c 0
 120 89 146 54 209 54 c 0xac
 252 54 347 72 347 193 c 0
EndSplineSet
Validated: 1
EndChar

StartChar: b
Encoding: 98 98 67
Width: 562
Flags: MW
HStem: -15 68<278 306.5 253.5 329> 0 21<65 145 65 65> 413 73<281.5 323 281.5 330> 686 20<65 145 145 145>
VStem: 65 80<0 61 406 706> 439 85<223 246.5>
LayerCount: 2
Fore
SplineSet
524 236 m 0x7c
 524 210 524 130 473 63 c 0
 445 26 415 10 399 3 c 0
 383 -4 352 -15 306 -15 c 0xbc
 250 -15 219 1 198 13 c 0
 176 26 160 40 145 61 c 1
 145 0 l 1
 65 0 l 1
 65 706 l 1
 145 706 l 1
 145 406 l 1
 149 412 155 422 167 433 c 0
 204 470 256 486 307 486 c 0
 339 486 409 481 466 415 c 0
 493 383 524 331 524 236 c 0x7c
439 239 m 0
 439 254 440 299 417 340 c 0
 403 364 367 413 293 413 c 0
 236 413 204 386 189 370 c 0
 165 345 144 308 143 234 c 0
 143 182 154 150 165 130 c 0
 178 104 214 53 293 53 c 0
 320 53 347 59 369 74 c 0
 402 96 439 147 439 239 c 0
EndSplineSet
Validated: 33
EndChar

StartChar: c
Encoding: 99 99 68
Width: 521
Flags: MW
HStem: -15 21<266 283.5> 174 150 428 58<260 278.5>
VStem: 39 88<195.5 232>
LayerCount: 2
Fore
SplineSet
494 170 m 1
 481 91 440 47 415 27 c 0
 361 -15 294 -15 273 -15 c 0
 259 -15 222 -15 184 -1 c 0
 127 19 39 82 39 232 c 0
 40 383 122 450 182 472 c 0
 220 486 252 486 268 486 c 0
 393 486 450 418 472 370 c 0
 479 355 482 344 485 328 c 1
 397 320 l 1
 395 328 391 353 377 375 c 0
 344 426 288 428 269 428 c 0
 197 428 127 380 127 237 c 0
 127 154 154 107 181 81 c 0
 208 56 239 47 275 47 c 0
 296 47 316 50 335 59 c 0
 387 82 400 128 408 178 c 1
 494 170 l 1
EndSplineSet
Validated: 1
EndChar

StartChar: d
Encoding: 100 100 69
Width: 562
Flags: MW
HStem: -15 21<211 302.5> 0 21<417 497 417 417> 413 73<263.5 274> 686 20<417 497 497 497>
VStem: 39 86<225 258 225 267> 417 80<0 60 60 60 409 706>
LayerCount: 2
Fore
SplineSet
497 0 m 1x7c
 417 0 l 1x7c
 417 60 l 1
 393 32 349 -15 256 -15 c 0xbc
 166 -15 120 28 97 56 c 0
 70 88 39 142 39 237 c 0
 39 297 50 353 87 402 c 0
 108 431 160 486 255 486 c 0
 322 486 369 455 389 439 c 0
 401 429 408 421 417 409 c 1
 417 706 l 1
 497 706 l 1
 497 0 l 1x7c
419 236 m 0
 419 245 419 272 413 297 c 0
 397 365 345 412 274 413 c 0
 253 413 203 410 165 364 c 0
 133 326 125 282 125 234 c 0
 125 216 124 156 161 107 c 0
 199 58 249 56 272 56 c 0
 300 56 326 62 348 76 c 0
 383 98 420 146 419 236 c 0
EndSplineSet
Validated: 33
EndChar

StartChar: e
Encoding: 101 101 70
Width: 521
Flags: MW
HStem: -15 60<263 299.5 263 323> 221 58<127 396 127 483 125 396> 424 62<233.5 279 233.5 292>
VStem: 39 86<221 221 221 283.5>
LayerCount: 2
Fore
SplineSet
483 144 m 1
 479 134 470 106 452 78 c 0
 428 42 376 -15 270 -15 c 0
 221 -15 189 -4 171 4 c 0
 113 29 39 93 39 240 c 0
 39 327 68 376 92 405 c 0
 135 457 200 486 267 486 c 0
 291 486 319 481 341 473 c 0
 370 463 428 435 460 361 c 0
 473 330 483 292 483 221 c 1
 125 221 l 1
 124 137 164 89 193 69 c 0
 217 53 248 45 278 45 c 0
 321 45 343 61 357 74 c 0
 362 78 374 90 383 105 c 0
 395 126 400 149 402 155 c 1
 483 144 l 1
396 279 m 1
 394 303 392 314 389 325 c 0
 373 383 323 424 261 424 c 0
 176 424 134 354 127 279 c 1
 396 279 l 1
EndSplineSet
Validated: 33
EndChar

StartChar: f
Encoding: 102 102 71
Width: 271
Flags: MW
HStem: 0 21<89 167 89 89> 405 66<11 89 11 89 167 256> 681 20<204 218>
VStem: 89 78<0 405 0 405 471 512 512 544>
LayerCount: 2
Fore
SplineSet
271 695 m 1
 270 632 l 2
 267 633 244 637 227 637 c 0
 218 637 190 637 176 610 c 0
 168 596 167 584 167 553 c 2
 167 471 l 1
 256 471 l 1
 256 405 l 1
 167 405 l 1
 167 0 l 1
 89 0 l 1
 89 405 l 1
 11 405 l 1
 11 471 l 1
 89 471 l 1
 89 512 l 2
 89 576 89 606 101 636 c 0
 126 700 195 701 213 701 c 0
 223 701 244 700 271 695 c 1
EndSplineSet
Validated: 1
EndChar

StartChar: g
Encoding: 103 103 72
Width: 562
Flags: MW
HStem: -229 21<271 297.5> -15 21<235 278> 414 72<255.5 266> 451 20<414 497 497 497>
VStem: 41 82<208 244> 414 83<14 14 407 471>
LayerCount: 2
Fore
SplineSet
497 25 m 2xdc
 497 -39 496 -63 486 -97 c 0
 460 -185 392 -209 360 -218 c 0
 344 -222 317 -229 278 -229 c 0
 264 -229 235 -228 199 -218 c 0
 85 -187 69 -97 63 -54 c 1
 153 -54 l 1
 153 -65 153 -93 173 -119 c 0
 207 -165 267 -164 283 -164 c 0
 294 -164 363 -165 394 -116 c 0
 412 -87 415 -53 414 14 c 2
 413 68 l 1
 359 -6 297 -15 259 -15 c 0
 211 -15 175 0 160 8 c 0
 109 35 41 99 41 233 c 0
 41 255 42 340 90 404 c 0
 130 456 179 486 260 486 c 0xec
 272 486 296 484 324 474 c 0
 345 466 379 448 414 407 c 1
 414 471 l 1
 497 471 l 1
 497 25 l 2xdc
417 242 m 0
 417 251 416 285 407 314 c 0
 386 378 331 415 266 414 c 0
 245 414 223 409 205 400 c 0
 167 381 123 332 123 235 c 0
 123 181 136 121 182 85 c 0
 208 65 239 57 272 57 c 0
 320 57 347 75 362 88 c 0
 391 114 417 158 417 242 c 0
EndSplineSet
Validated: 33
EndChar

StartChar: h
Encoding: 104 104 73
Width: 521
Flags: MW
HStem: 0 21<66 146 66 66 377 458 377 377> 416 70<272.5 294.5> 686 20<66 146 146 146>
VStem: 66 80<0 229 0 706> 377 81<0 249 249 265>
LayerCount: 2
Fore
SplineSet
458 0 m 1
 377 0 l 1
 377 249 l 2
 377 281 379 323 368 354 c 0
 353 396 316 416 273 416 c 0
 253 416 199 410 168 357 c 0
 145 316 146 272 146 229 c 2
 146 0 l 1
 66 0 l 1
 66 706 l 1
 146 706 l 1
 147 424 l 1
 201 482 256 486 289 486 c 0
 352 486 389 464 409 446 c 0
 413 442 420 435 429 422 c 0
 460 377 458 326 458 273 c 2
 458 0 l 1
EndSplineSet
Validated: 33
EndChar

StartChar: i
Encoding: 105 105 74
Width: 208
Flags: MW
HStem: 0 21<69 146 69 69> 451 20<69 146 146 146> 614 92<69 146 69 146>
VStem: 69 77<0 471 614 706>
LayerCount: 2
Fore
SplineSet
146 614 m 1
 69 614 l 1
 69 706 l 1
 146 706 l 1
 146 614 l 1
146 0 m 1
 69 0 l 1
 69 471 l 1
 146 471 l 1
 146 0 l 1
EndSplineSet
Validated: 1
EndChar

StartChar: j
Encoding: 106 106 75
Width: 208
Flags: MW
HStem: 471 142<65 143 65 143> 613 93<65 143 65 143>
VStem: 65 78<-82 471 613 706>
LayerCount: 2
Fore
SplineSet
143 613 m 1xa0
 65 613 l 1xa0
 65 706 l 1
 143 706 l 1x60
 143 613 l 1xa0
143 -104 m 2
 143 -139 143 -172 118 -199 c 0
 87 -232 43 -229 29 -229 c 0
 12 -229 -6 -227 -23 -225 c 1
 -23 -154 l 1
 -4 -156 2 -157 13 -157 c 0
 18 -157 35 -157 49 -147 c 0
 65 -136 65 -118 65 -82 c 2
 65 471 l 1
 143 471 l 1
 143 -104 l 2
EndSplineSet
Validated: 8388641
EndChar

StartChar: k
Encoding: 107 107 76
Width: 458
Flags: MW
HStem: 0 21<65 146 65 65 372 472 372 372> 451 20<334 432 432 432> 686 20<65 146 146 146>
VStem: 65 81<0 166 271 706>
LayerCount: 2
Fore
SplineSet
472 0 m 1
 372 0 l 1
 203 226 l 1
 146 166 l 1
 146 0 l 1
 65 0 l 1
 65 706 l 1
 146 706 l 1
 146 271 l 1
 334 471 l 1
 432 471 l 1
 257 285 l 1
 472 0 l 1
EndSplineSet
Validated: 1
EndChar

StartChar: l
Encoding: 108 108 77
Width: 208
Flags: MW
HStem: 0 21<67 143 67 67> 686 20<67 143 143 143>
VStem: 67 76<0 706>
LayerCount: 2
Fore
SplineSet
143 0 m 1
 67 0 l 1
 67 706 l 1
 143 706 l 1
 143 0 l 1
EndSplineSet
Validated: 1
EndChar

StartChar: m
Encoding: 109 109 78
Width: 771
Flags: MW
HStem: 0 21<64 139 64 64 345 423 345 345 628 707 628 628> 411 75 451 20<64 139 139 139>
VStem: 64 75<0 280 0 471> 345 78<0 265 0 287> 628 79<0 276 276 295>
LayerCount: 2
Fore
SplineSet
707 0 m 1xdc
 628 0 l 1
 628 276 l 2
 628 322 635 375 585 401 c 0
 579 404 562 411 542 411 c 0xdc
 496 410 443 378 429 333 c 0
 424 318 423 299 423 265 c 2
 423 0 l 1
 345 0 l 1
 345 265 l 2
 345 309 353 366 309 395 c 0
 301 401 284 410 258 410 c 0
 253 410 242 410 229 406 c 0
 197 398 158 373 146 340 c 0
 140 325 139 311 139 280 c 2
 139 0 l 1
 64 0 l 1
 64 471 l 1
 139 471 l 1xbc
 140 408 l 1
 150 420 158 428 170 439 c 0
 203 468 235 486 281 486 c 0
 297 486 345 482 379 442 c 0
 391 429 399 414 408 399 c 1
 414 404 419 410 424 415 c 0
 438 429 492 487 566 486 c 0
 625 486 662 449 675 434 c 0
 709 394 707 345 707 295 c 2
 707 0 l 1xdc
EndSplineSet
Validated: 33
EndChar

StartChar: n
Encoding: 110 110 79
Width: 521
Flags: MW
HStem: 0 21<64 144 64 64 376 455 376 376> 411 75<259.5 287.5> 451 20<64 144 144 144>
VStem: 64 80<0 268 402 471> 376 79<0 281>
LayerCount: 2
Fore
SplineSet
455 0 m 1xd8
 376 0 l 1
 376 300 l 2
 376 314 380 360 340 390 c 0
 328 399 306 411 269 411 c 0xd8
 234 411 206 400 181 376 c 0
 175 370 161 355 153 333 c 0
 144 311 144 291 144 268 c 2
 144 0 l 1
 64 0 l 1
 64 471 l 1
 144 471 l 1xb8
 144 402 l 1
 154 419 164 430 169 435 c 0
 186 453 227 486 292 486 c 0
 313 486 384 480 426 421 c 0
 457 378 455 332 455 281 c 2
 455 0 l 1xd8
EndSplineSet
Validated: 33
EndChar

StartChar: o
Encoding: 111 111 80
Width: 542
Flags: MW
HStem: -15 64<272 283 272 321> 422 64<238 284.5>
LayerCount: 2
Fore
SplineSet
502 235 m 0
 502 209 499 129 447 64 c 0
 421 33 370 -15 272 -15 c 0
 244 -15 166 -12 109 47 c 0
 79 77 40 134 40 233 c 0
 40 294 56 355 94 404 c 0
 140 463 201 486 275 486 c 0
 307 486 341 480 369 468 c 0
 424 445 504 378 502 235 c 0
416 236 m 0
 417 249 417 310 392 356 c 0
 385 369 374 383 363 392 c 0
 329 421 292 422 277 422 c 0
 126 422 127 257 127 230 c 0
 127 207 130 189 131 182 c 0
 136 148 160 48 272 49 c 0
 294 49 348 54 384 108 c 0
 414 153 416 226 416 236 c 0
EndSplineSet
Validated: 33
EndChar

StartChar: p
Encoding: 112 112 81
Width: 562
Flags: MW
HStem: -224 21<65 143 65 65> -15 70<290.5 325.5> 411 75 451 20<65 143 143 143>
VStem: 65 78<-224 55 194.5 272.5>
LayerCount: 2
Fore
SplineSet
523 234 m 0xe8
 523 208 523 130 472 64 c 0
 447 32 399 -15 302 -15 c 0
 279 -15 218 -13 166 31 c 0
 160 36 153 43 143 55 c 1
 143 -224 l 1
 65 -224 l 1
 65 471 l 1
 143 471 l 1xd8
 144 404 l 1
 150 411 164 428 184 443 c 0
 233 481 292 486 311 486 c 0
 359 486 394 468 410 459 c 0
 459 432 523 367 523 234 c 0xe8
441 237 m 0
 441 247 441 283 429 316 c 0
 418 346 382 415 288 411 c 0xe8
 262 410 235 402 214 388 c 0
 181 366 143 318 143 227 c 0
 143 162 162 128 180 104 c 0
 193 88 210 75 229 67 c 0
 240 62 260 55 291 55 c 0
 360 55 389 85 406 109 c 0
 441 158 441 219 441 237 c 0
EndSplineSet
Validated: 33
EndChar

StartChar: q
Encoding: 113 113 82
Width: 562
Flags: MW
HStem: -225 21<416 497 416 416> -15 21<216.5 278> 451 20<416 497 497 497> 466 20<227.5 267.5>
VStem: 40 87<225.5 260.5> 416 81<-225 56 56 56 401 471> 422 75<174 228>
LayerCount: 2
Fore
SplineSet
497 -225 m 1xec
 416 -225 l 1
 416 56 l 1
 404 41 396 34 389 29 c 0
 350 -3 302 -15 254 -15 c 0
 179 -15 140 11 115 33 c 0
 39 99 40 201 40 229 c 0
 40 292 54 363 96 413 c 0
 103 422 119 439 143 454 c 0
 162 466 200 486 255 486 c 0xdc
 280 486 340 481 390 433 c 0
 398 425 405 418 416 401 c 1
 416 471 l 1
 497 471 l 1
 497 -225 l 1xec
422 219 m 0xea
 422 237 422 306 384 357 c 0
 379 364 362 385 336 398 c 0
 326 403 305 410 274 411 c 0
 260 411 222 411 188 387 c 0
 138 351 127 291 127 234 c 0
 127 217 124 130 181 82 c 0
 217 52 258 50 274 50 c 0
 288 50 317 51 348 68 c 0
 385 87 422 129 422 219 c 0xea
EndSplineSet
Validated: 33
EndChar

StartChar: r
Encoding: 114 114 83
Width: 313
Flags: MW
HStem: 0 21<65 145 65 65> 451 20<65 145 145 145> 457 20<275.5 306>
VStem: 65 80<0 218 385 471>
LayerCount: 2
Fore
SplineSet
306 391 m 1xb0
 277 395 261 394 247 391 c 0
 200 383 164 351 152 305 c 0
 145 281 145 264 145 218 c 2
 145 0 l 1
 65 0 l 1
 65 471 l 1
 145 471 l 1xd0
 145 385 l 1
 156 406 170 424 189 439 c 0
 208 454 245 477 306 477 c 1
 306 391 l 1xb0
EndSplineSet
Validated: 33
EndChar

StartChar: s
Encoding: 115 115 84
Width: 479
Flags: MW
HStem: -15 21<241 298> 425 61<225.5 257>
LayerCount: 2
Fore
SplineSet
447 134 m 0
 447 122 445 92 426 63 c 0
 402 26 348 -15 248 -15 c 0
 234 -15 160 -14 108 19 c 0
 100 24 88 32 74 49 c 0
 40 90 34 134 31 152 c 1
 122 165 l 1
 122 134 125 107 148 82 c 0
 176 51 214 46 253 46 c 0
 263 46 310 45 341 73 c 0
 362 92 363 114 363 125 c 0
 363 130 362 147 354 160 c 0
 337 187 291 195 265 200 c 2
 219 209 l 2
 160 221 133 231 108 246 c 0
 70 269 51 301 51 346 c 0
 51 360 53 392 76 423 c 0
 124 486 217 486 234 486 c 0
 333 486 387 437 410 403 c 0
 429 374 433 344 435 331 c 1
 349 321 l 1
 348 344 347 354 342 365 c 0
 330 391 291 425 223 425 c 0
 158 425 130 386 130 356 c 0
 130 350 131 342 137 331 c 0
 152 306 188 295 244 282 c 2
 290 271 l 2
 304 268 319 263 333 259 c 0
 395 240 447 206 447 134 c 0
EndSplineSet
Validated: 33
EndChar

StartChar: t
Encoding: 116 116 85
Width: 292
Flags: MW
HStem: -8 21<160.5 198.5> 405 66<16 92 16 92 174 259> 600 20<92 174 174 174>
VStem: 92 82<118.5 135 135 405 471 620> 92 167<0 405>
LayerCount: 2
Fore
SplineSet
259 0 m 1xe8
 253 -1 214 -8 183 -8 c 0
 138 -8 115 3 103 21 c 0
 91 39 92 58 92 99 c 2
 92 405 l 1
 16 405 l 1
 16 471 l 1
 92 471 l 1
 92 620 l 1
 174 620 l 1
 174 471 l 1xf0
 259 471 l 1
 259 405 l 1xe8
 174 405 l 1
 174 135 l 2xf0
 174 102 172 83 180 69 c 0
 186 58 196 55 209 55 c 0
 218 55 237 58 259 66 c 1
 259 0 l 1xe8
EndSplineSet
Validated: 33
EndChar

StartChar: u
Encoding: 117 117 86
Width: 521
Flags: MW
HStem: -12 75<215.5 242> 0 21<376 454 376 376> 451 20<65 144 144 144 376 454 454 454>
VStem: 67 79 378 78
LayerCount: 2
Fore
SplineSet
454 0 m 1x78
 376 0 l 1x78
 375 72 l 1
 371 66 366 59 355 48 c 0
 317 10 269 -12 215 -12 c 0
 198 -12 125 -9 89 50 c 0
 62 95 65 146 65 195 c 2
 65 471 l 1
 144 471 l 1
 144 203 l 2
 144 153 144 131 155 108 c 0
 165 88 190 63 241 63 c 0xb8
 259 63 319 67 353 117 c 0
 377 152 376 195 376 235 c 2
 376 471 l 1
 454 471 l 1
 454 0 l 1x78
EndSplineSet
Validated: 33
EndChar

StartChar: v
Encoding: 118 118 87
Width: 437
Flags: MW
HStem: 0 21<184 256 184 184> 451 20<12 95 95 95 344 426 426 426>
LayerCount: 2
Fore
SplineSet
426 471 m 1
 256 0 l 1
 184 0 l 1
 12 471 l 1
 95 471 l 1
 220 110 l 1
 344 471 l 1
 426 471 l 1
EndSplineSet
Validated: 1
EndChar

StartChar: w
Encoding: 119 119 88
Width: 729
Flags: MW
HStem: 0 21<175 248 175 175 476 546 476 476> 451 20<11 97 97 97 331 401 401 401 635 719 719 719>
LayerCount: 2
Fore
SplineSet
719 471 m 1
 546 0 l 1
 476 0 l 1
 363 351 l 1
 248 0 l 1
 175 0 l 1
 11 471 l 1
 97 471 l 1
 215 121 l 1
 331 471 l 1
 401 471 l 1
 512 121 l 1
 635 471 l 1
 719 471 l 1
EndSplineSet
Validated: 1
EndChar

StartChar: x
Encoding: 120 120 89
Width: 396
Flags: MW
HStem: 0 21<9 99 9 9 297 387 297 297> 451 20<16 108 108 108 297 387 387 387>
LayerCount: 2
Fore
SplineSet
387 0 m 1
 297 0 l 1
 197 168 l 1
 99 0 l 1
 9 0 l 1
 155 239 l 1
 16 471 l 1
 108 471 l 1
 202 309 l 1
 297 471 l 1
 387 471 l 1
 245 239 l 1
 387 0 l 1
EndSplineSet
Validated: 1
EndChar

StartChar: y
Encoding: 121 121 90
Width: 437
Flags: MW
HStem: -233 21<72 110> 451 20<14 99 99 99 342 425 425 425>
LayerCount: 2
Fore
SplineSet
425 471 m 1
 227 -86 l 2
 219 -108 208 -140 197 -160 c 0
 170 -213 140 -233 80 -233 c 0
 64 -233 41 -232 9 -223 c 1
 9 -151 l 1
 20 -154 35 -159 60 -159 c 0
 67 -159 87 -160 104 -149 c 0
 132 -131 145 -88 154 -61 c 2
 174 -3 l 1
 14 471 l 1
 99 471 l 1
 217 97 l 1
 342 471 l 1
 425 471 l 1
EndSplineSet
Validated: 33
EndChar

StartChar: z
Encoding: 122 122 91
Width: 417
Flags: MW
HStem: 0 66<109 389 13 13> 402 69<39 284 39 383>
LayerCount: 2
Fore
SplineSet
389 0 m 1
 13 0 l 1
 13 66 l 1
 284 402 l 1
 39 402 l 1
 39 471 l 1
 383 471 l 1
 383 407 l 1
 109 66 l 1
 389 66 l 1
 389 0 l 1
EndSplineSet
Validated: 1
EndChar

StartChar: braceleft
Encoding: 123 123 92
Width: 281
Flags: MW
HStem: -148 21<204.5 230 230 268> 763 20<268 268>
VStem: 102 81<14 18 18 20 20 181 181 183 454 615 615 616>
LayerCount: 2
Fore
SplineSet
268 -148 m 1
 230 -148 l 2
 179 -148 152 -138 131 -113 c 0
 120 -100 112 -85 108 -69 c 0
 103 -47 102 -32 102 14 c 2
 102 20 l 1
 102 181 l 2
 102 222 100 240 92 254 c 0
 81 274 60 284 17 288 c 1
 17 348 l 1
 47 350 58 353 73 362 c 0
 96 376 102 396 102 454 c 2
 102 615 l 1
 102 621 l 2
 102 666 103 682 108 704 c 0
 121 757 160 780 230 782 c 2
 268 783 l 1
 268 725 l 1
 251 725 l 2
 224 725 210 720 199 709 c 0
 193 702 189 695 187 687 c 0
 183 672 183 665 183 616 c 2
 183 452 l 2
 183 370 166 342 101 317 c 1
 124 310 133 306 148 293 c 0
 174 269 183 243 183 183 c 2
 183 18 l 2
 183 -28 183 -37 187 -52 c 0
 194 -78 214 -90 252 -90 c 2
 268 -90 l 1
 268 -148 l 1
EndSplineSet
Validated: 1
EndChar

StartChar: bar
Encoding: 124 124 93
Width: 236
Flags: MW
HStem: -143 21<77 157 77 77> 759 20<77 157 157 157>
VStem: 77 80<-143 779>
LayerCount: 2
Fore
SplineSet
157 -143 m 1
 77 -143 l 1
 77 779 l 1
 157 779 l 1
 157 -143 l 1
EndSplineSet
Validated: 1
EndChar

StartChar: braceright
Encoding: 125 125 94
Width: 281
Flags: MW
HStem: -148 21<12 51 12 12> 704 20<12 28 12 12> 762 20<12 50 50 75.5>
VStem: 97 81<182 182 433 452>
LayerCount: 2
Fore
SplineSet
263 287 m 1
 233 284 222 281 207 272 c 0
 184 259 178 239 178 181 c 2
 179 19 l 1
 179 14 l 2
 179 -32 177 -47 172 -70 c 0
 159 -123 120 -148 51 -148 c 2
 12 -148 l 1
 12 -90 l 1
 29 -90 l 2
 57 -90 70 -86 81 -74 c 0
 87 -68 91 -60 93 -52 c 0
 97 -38 98 -29 98 18 c 2
 97 182 l 2
 96 265 114 292 179 318 c 1
 156 324 147 329 132 342 c 0
 106 365 97 392 97 452 c 2
 98 616 l 2
 98 662 97 672 93 687 c 0
 86 713 66 724 28 724 c 2
 12 724 l 1
 12 782 l 1
 50 782 l 2
 101 782 128 773 149 747 c 0
 160 734 168 720 172 704 c 0
 177 681 179 666 179 620 c 2
 179 615 l 1
 178 453 l 2
 178 413 181 395 188 381 c 0
 200 360 220 351 263 347 c 1
 263 287 l 1
EndSplineSet
Validated: 33
EndChar

StartChar: asciitilde
Encoding: 126 126 95
Width: 724
Flags: MW
HStem: 215 21<475 502.5> 368 20<212.5 249.5>
LayerCount: 2
Fore
SplineSet
651 315 m 1
 620 277 606 263 579 245 c 0
 548 225 519 215 486 215 c 0
 464 215 448 219 420 230 c 0
 403 236 387 243 366 253 c 2
 331 270 l 2
 285 292 256 301 227 301 c 0
 215 301 204 299 194 295 c 0
 171 286 158 271 125 233 c 2
 119 226 l 1
 74 287 l 1
 98 321 108 331 127 348 c 0
 156 374 193 388 232 388 c 0
 267 388 293 379 365 347 c 2
 410 327 l 2
 456 306 469 302 489 302 c 0
 511 302 536 311 555 325 c 0
 572 337 581 346 606 375 c 1
 651 315 l 1
EndSplineSet
Validated: 1
EndChar

StartChar: exclamdown
Encoding: 161 161 96
Width: 271
Flags: MW
HStem: 0 21<77 156 77 77> 616 90<77 156 77 156>
VStem: 77 67 77 79<0 277 616 706> 89 55
LayerCount: 2
Fore
SplineSet
156 616 m 1xf8
 77 616 l 1
 77 706 l 1
 156 706 l 1
 156 616 l 1xf8
156 0 m 1
 77 0 l 1
 77 288 l 1
 101 559 l 1
 132 559 l 1
 156 277 l 1
 156 0 l 1
EndSplineSet
Validated: 8388609
EndChar

StartChar: cent
Encoding: 162 162 97
Width: 500
Flags: MW
HStem: -115 21<231 291 231 231> 176 144 557 20<232 291 291 291>
VStem: 28 85<212 272.5> 113 118<212 282> 231 60<-115 -12 -115 -12 54 417> 291 105<180 180 180 417>
LayerCount: 2
Fore
SplineSet
484 172 m 1xe2
 463 73 413 26 360 4 c 0
 331 -8 299 -11 291 -12 c 1
 291 -115 l 1
 231 -115 l 1
 231 -12 l 1xe4
 221 -10 159 -3 110 39 c 0
 47 95 28 180 28 237 c 0
 28 308 54 409 153 458 c 0
 187 475 221 479 232 481 c 1
 232 577 l 1
 291 577 l 1
 291 482 l 1xf2
 341 475 431 457 474 324 c 1
 384 316 l 1
 376 391 321 409 291 417 c 1xe4
 291 53 l 1
 338 61 391 90 396 180 c 1
 484 172 l 1xe2
231 54 m 2
 231 419 l 1
 225 417 213 415 198 407 c 0
 148 381 113 327 113 237 c 0xf4
 113 187 123 110 187 71 c 0
 204 61 228 54 231 54 c 2
EndSplineSet
Validated: 8388609
EndChar

StartChar: sterling
Encoding: 163 163 98
Width: 667
Flags: MW
HStem: -15 86 -12 21<474 502.5> 164 117<128 163.5> 281 65<36 213 36 36 327 327 327 500> 704 20<353 379.5>
VStem: 106 108<491 526> 560 93<172 178>
LayerCount: 2
Fore
SplineSet
653 172 m 1xbe
 648 107 616 33 554 2 c 0
 540 -5 520 -12 485 -12 c 0x7e
 463 -12 430 -10 381 7 c 0
 353 17 326 32 299 43 c 1
 287 34 276 24 263 16 c 0
 234 -3 193 -15 158 -15 c 0
 147 -15 133 -13 122 -10 c 0
 59 6 46 52 46 77 c 0
 46 84 47 103 59 121 c 0
 72 141 101 164 155 164 c 0
 172 164 211 161 255 146 c 1
 256 151 258 158 257 168 c 0
 255 195 242 228 240 233 c 0
 229 257 219 272 213 281 c 1
 36 281 l 1
 36 346 l 1
 167 347 l 1
 119 425 106 468 106 514 c 0
 106 538 111 589 152 636 c 0
 224 719 338 724 368 724 c 0
 391 724 458 722 518 682 c 0
 551 660 612 605 615 499 c 1
 510 489 l 1
 511 496 513 514 509 535 c 0
 502 575 470 652 361 652 c 0
 351 652 329 652 303 643 c 0
 275 634 214 605 214 523 c 0
 214 450 255 406 291 346 c 1
 500 346 l 1
 500 281 l 1
 327 281 l 1
 339 245 348 227 348 188 c 0
 348 175 346 147 337 112 c 1
 341 110 346 107 350 104 c 0
 358 99 415 71 461 71 c 0
 525 71 559 119 560 178 c 1
 653 172 l 1xbe
227 77 m 1
 215 82 203 85 191 88 c 0
 189 89 171 94 157 94 c 0
 147 94 136 92 129 82 c 0
 128 81 125 75 125 70 c 0
 125 60 135 46 157 46 c 0
 172 46 199 52 227 77 c 1
EndSplineSet
Validated: 8388641
EndChar

StartChar: yen
Encoding: 165 165 99
Width: 625
Flags: MW
HStem: 0 21<263 357 263 263> 234 72<69 263 69 263 357 552 357 357> 357 71<69 182 69 231 69 182> 657 20<14 126 126 126 500 611 611 611>
VStem: 263 94<0 234 0 234 0 306>
LayerCount: 2
Fore
SplineSet
611 677 m 1
 440 430 l 1
 552 430 l 1
 552 358 l 1
 393 358 l 1
 355 306 l 1
 552 306 l 1
 552 234 l 1
 357 234 l 1
 357 0 l 1
 263 0 l 1
 263 234 l 1
 69 234 l 1
 69 306 l 1
 263 306 l 1
 231 357 l 1
 69 357 l 1
 69 428 l 1
 182 428 l 1
 14 677 l 1
 126 677 l 1
 311 390 l 1
 500 677 l 1
 611 677 l 1
EndSplineSet
Validated: 1
EndChar

StartChar: florin
Encoding: 402 402 100
Width: 437
Flags: MW
HStem: -229 21<40.5 77.5> 409 62<160 217 145 232 309 379> 694 20<351 393.5>
LayerCount: 2
Fore
SplineSet
437 704 m 1
 423 644 l 1
 408 649 391 649 387 649 c 0
 344 649 340 601 334 575 c 2
 309 471 l 1
 394 471 l 1
 379 409 l 1
 295 409 l 1
 165 -132 l 2
 144 -218 99 -229 56 -229 c 0
 25 -229 11 -222 -4 -217 c 1
 11 -158 l 1
 21 -162 31 -165 42 -165 c 0
 84 -165 90 -130 97 -100 c 2
 217 409 l 1
 145 409 l 1
 160 471 l 1
 232 471 l 1
 266 603 l 2
 271 621 274 635 282 652 c 0
 297 687 321 714 381 714 c 0
 406 714 429 707 437 704 c 1
EndSplineSet
Validated: 1
EndChar

StartChar: section
Encoding: 167 167 101
Width: 625
Flags: MW
HStem: -122 79<305 365 305 377.5> 698 73<291 297 297 330 291 334>
VStem: 37 91<365.5 402.5> 90 91<604.5 647.5> 446 99<28.5 31 31 57.5> 502 87<264.5 297>
LayerCount: 2
Fore
SplineSet
589 297 m 0xd4
 589 232 551 172 495 140 c 1
 524 114 545 80 545 40 c 0
 545 17 538 -5 527 -25 c 0
 490 -93 415 -122 340 -122 c 0
 253 -122 156 -80 79 -41 c 1
 119 33 l 1
 181 -11 267 -43 343 -43 c 0
 387 -43 446 -26 446 28 c 2
 446 31 l 2
 446 84 395 94 354 112 c 0
 275 147 126 204 72 271 c 0
 49 299 37 335 37 371 c 0xe8
 37 434 78 493 132 524 c 1
 106 550 90 575 90 613 c 0
 90 682 142 734 204 756 c 0
 232 766 261 771 291 771 c 2
 297 771 l 2
 363 771 426 750 486 723 c 0
 504 715 522 705 540 698 c 1
 500 627 l 1
 435 664 373 698 295 698 c 0
 254 698 181 681 181 628 c 0
 181 581 229 566 265 552 c 0
 323 530 381 510 437 483 c 0
 516 445 589 396 589 297 c 0xd4
502 288 m 0
 502 306 495 324 485 339 c 0
 445 397 338 430 275 456 c 2
 211 482 l 1
 171 468 128 425 128 381 c 0
 128 350 143 327 166 308 c 0
 213 268 358 209 415 183 c 1
 458 199 502 239 502 288 c 0
EndSplineSet
Validated: 1
EndChar

StartChar: currency
Encoding: 164 164 102
Width: 663
Flags: MW
HStem: 52 21<561 561> 76 85<300.5 361> 518 84<302.5 361.5 302.5 382.5> 605 20<562 562>
VStem: 69 86<310 370> 508 86<310 367.5 310 389.5>
LayerCount: 2
Fore
SplineSet
618 569 m 1
 543 494 l 1
 580 439 594 396 594 339 c 0
 594 281 579 236 542 183 c 1
 617 107 l 1
 561 52 l 1
 486 128 l 1
 426 88 391 76 331 76 c 0
 270 76 232 89 176 128 c 1
 100 54 l 1
 45 109 l 1
 121 183 l 1
 83 236 69 280 69 340 c 0
 69 400 83 441 121 495 c 1
 47 569 l 1
 102 624 l 1
 176 550 l 1
 227 587 273 602 332 602 c 0
 391 602 443 585 487 550 c 1
 562 625 l 1
 618 569 l 1
508 338 m 0
 508 441 433 518 332 518 c 0
 232 518 155 441 155 340 c 0
 155 238 232 161 335 161 c 0
 432 161 508 238 508 338 c 0
EndSplineSet
Validated: 1
EndChar

StartChar: quotesingle
Encoding: 39 39 103
Width: 177
Flags: MW
HStem: 449 21<73 105 73 73> 723 20<44 133 133 133>
VStem: 58 61
LayerCount: 2
Fore
SplineSet
133 743 m 1
 105 449 l 1
 73 449 l 1
 44 743 l 1
 133 743 l 1
EndSplineSet
Validated: 1
EndChar

StartChar: quotedblleft
Encoding: 8220 8220 104
Width: 375
Flags: MW
HStem: 440 109<119 162 119 162 63 162 268 311 119 212> 686 20<105 152 152 152 254 300 300 300>
VStem: 63 99<440 497 497 533> 212 99<440 497 497 532.5>
LayerCount: 2
Fore
SplineSet
311 440 m 1
 212 440 l 1
 212 497 l 2
 212 568 225 640 254 706 c 1
 300 706 l 1
 282 664 269 596 268 549 c 1
 311 549 l 1
 311 440 l 1
162 440 m 1
 63 440 l 1
 63 497 l 2
 63 569 76 640 105 706 c 1
 152 706 l 1
 135 659 119 599 119 549 c 1
 162 549 l 1
 162 440 l 1
EndSplineSet
Validated: 1
EndChar

StartChar: guillemotleft
Encoding: 171 171 105
Width: 396
Flags: MW
HStem: 137 21<177 177> 433 20<334 334>
LayerCount: 2
Fore
SplineSet
334 141 m 1
 200 254 l 1
 200 337 l 1
 334 453 l 1
 334 364 l 1
 254 293 l 1
 334 227 l 1
 334 141 l 1
177 137 m 1
 42 250 l 1
 42 335 l 1
 177 452 l 1
 177 361 l 1
 99 293 l 1
 177 226 l 1
 177 137 l 1
EndSplineSet
Validated: 1
EndChar

StartChar: guilsinglleft
Encoding: 8249 8249 106
Width: 250
Flags: MW
HStem: 141 21<182 182> 433 20<182 182>
LayerCount: 2
Fore
SplineSet
182 141 m 1
 48 254 l 1
 48 337 l 1
 182 453 l 1
 182 364 l 1
 102 293 l 1
 182 227 l 1
 182 141 l 1
EndSplineSet
Validated: 1
EndChar

StartChar: guilsinglright
Encoding: 8250 8250 107
Width: 250
Flags: MW
HStem: 134 21<68 68> 426 20<68 68>
LayerCount: 2
Fore
SplineSet
202 250 m 1
 68 134 l 1
 68 224 l 1
 148 294 l 1
 68 361 l 1
 68 446 l 1
 202 333 l 1
 202 250 l 1
EndSplineSet
Validated: 1
EndChar

StartChar: endash
Encoding: 8211 8211 108
Width: 600
Flags: MW
HStem: 262 76<45 555 45 555>
LayerCount: 2
Fore
SplineSet
555 262 m 1
 45 262 l 1
 45 338 l 1
 555 338 l 1
 555 262 l 1
EndSplineSet
Validated: 1
EndChar

StartChar: dagger
Encoding: 8224 8224 109
Width: 458
Flags: MW
HStem: 0 21<191 271 191 191> 421 79<20 191 20 191 271 441> 686 20<191 271 271 271>
VStem: 191 80<0 421 0 421 500 706>
LayerCount: 2
Fore
SplineSet
441 421 m 1
 271 421 l 1
 271 0 l 1
 191 0 l 1
 191 421 l 1
 20 421 l 1
 20 500 l 1
 191 500 l 1
 191 706 l 1
 271 706 l 1
 271 500 l 1
 441 500 l 1
 441 421 l 1
EndSplineSet
Validated: 1
EndChar

StartChar: daggerdbl
Encoding: 8225 8225 110
Width: 458
Flags: MW
HStem: 0 21<191 271 191 191> 181 79<19 191 19 191 271 441> 421 79<20 191 20 191 271 441> 686 20<191 271 271 271>
VStem: 191 80<0 181 0 181 260 421 500 706>
LayerCount: 2
Fore
SplineSet
441 181 m 1
 271 181 l 1
 271 0 l 1
 191 0 l 1
 191 181 l 1
 19 181 l 1
 19 260 l 1
 191 260 l 1
 191 421 l 1
 20 421 l 1
 20 500 l 1
 191 500 l 1
 191 706 l 1
 271 706 l 1
 271 500 l 1
 441 500 l 1
 441 421 l 1
 271 421 l 1
 271 260 l 1
 441 260 l 1
 441 181 l 1
EndSplineSet
Validated: 1
EndChar

StartChar: periodcentered
Encoding: 183 183 111
Width: 200
Flags: MW
HStem: 228 124<49 151 49 151>
VStem: 49 102<228 352>
LayerCount: 2
Fore
SplineSet
151 228 m 1
 49 228 l 1
 49 352 l 1
 151 352 l 1
 151 228 l 1
EndSplineSet
Validated: 1
EndChar

StartChar: paragraph
Encoding: 182 182 112
Width: 642
Flags: MW
HStem: -167 21<232 289 232 232 435 492 435 435> 652 54<300 435 289 525 492 525 492 492>
VStem: 232 57<-167 323 323 323> 435 57<-167 652 -167 652>
LayerCount: 2
Fore
SplineSet
525 652 m 1
 492 652 l 1
 492 -167 l 1
 435 -167 l 1
 435 652 l 1
 289 652 l 1
 289 -167 l 1
 232 -167 l 1
 232 323 l 1
 207 327 200 329 186 334 c 0
 118 359 76 426 76 509 c 0
 76 565 95 615 131 650 c 0
 172 690 218 706 300 706 c 2
 525 706 l 1
 525 652 l 1
EndSplineSet
Validated: 1
EndChar

StartChar: bullet
Encoding: 8226 8226 113
Width: 333
Flags: MW
HStem: 241 21<53 281 53 53> 448 20<53 281 281 281>
LayerCount: 2
Fore
SplineSet
281 241 m 1
 53 241 l 1
 53 468 l 1
 281 468 l 1
 281 241 l 1
EndSplineSet
Validated: 1
EndChar

StartChar: quotesinglbase
Encoding: 8218 8218 114
Width: 229
Flags: MW
HStem: -156 21<74 121 74 74> 0 21<63 107 63 63> 89 20<63 162 162 162>
VStem: 63 99<13.5 49 49 109 13.5 109>
LayerCount: 2
Fore
SplineSet
162 49 m 2
 162 -22 150 -91 121 -156 c 1
 74 -156 l 1
 91 -107 107 -52 107 0 c 1
 63 0 l 1
 63 109 l 1
 162 109 l 1
 162 49 l 2
EndSplineSet
Validated: 1
EndChar

StartChar: quotedblbase
Encoding: 8222 8222 115
Width: 375
Flags: MW
HStem: -156 21<74 121 74 74 223 269 223 223> 0 109<63 107 63 162 212 255 63 212>
VStem: 63 99<13.5 49 49 109 13.5 109> 212 99<13 42 42 109 13 109> 255 56<0 42>
LayerCount: 2
Fore
SplineSet
311 42 m 2xf0
 311 -16 300 -73 281 -127 c 0
 277 -137 273 -146 269 -156 c 1
 223 -156 l 1
 242 -99 250 -61 255 0 c 1xe8
 212 0 l 1
 212 109 l 1
 311 109 l 1
 311 42 l 2xf0
162 49 m 2
 162 -22 150 -91 121 -156 c 1
 74 -156 l 1
 91 -107 107 -52 107 0 c 1
 63 0 l 1
 63 109 l 1
 162 109 l 1
 162 49 l 2
EndSplineSet
Validated: 1
EndChar

StartChar: quotedblright
Encoding: 8221 8221 116
Width: 375
Flags: MW
HStem: 440 21<74 121 74 74 223 269 223 223> 596 110<63 107 63 162 212 255 63 212>
VStem: 63 99<609.5 645 645 706 609.5 706> 212 99<610 639 639 706 610 706> 255 56<596 639>
LayerCount: 2
Fore
SplineSet
311 639 m 2xf0
 311 581 301 524 281 469 c 0
 277 459 273 450 269 440 c 1
 223 440 l 1
 243 499 249 533 255 596 c 1xe8
 212 596 l 1
 212 706 l 1
 311 706 l 1
 311 639 l 2xf0
162 645 m 2
 162 574 150 505 121 440 c 1
 74 440 l 1
 91 489 107 544 107 596 c 1
 63 596 l 1
 63 706 l 1
 162 706 l 1
 162 645 l 2
EndSplineSet
Validated: 1
EndChar

StartChar: guillemotright
Encoding: 187 187 117
Width: 396
Flags: MW
HStem: 134 21<62 62> 430 20<218 218>
LayerCount: 2
Fore
SplineSet
353 253 m 1
 218 136 l 1
 218 226 l 1
 297 295 l 1
 218 361 l 1
 218 450 l 1
 353 337 l 1
 353 253 l 1
196 250 m 1
 62 134 l 1
 62 224 l 1
 142 294 l 1
 62 361 l 1
 62 446 l 1
 196 333 l 1
 196 250 l 1
EndSplineSet
Validated: 1
EndChar

StartChar: ellipsis
Encoding: 8230 8230 118
Width: 1000
Flags: MW
HStem: 0 93<119 213 119 213 452 547 786 881>
VStem: 119 94<0 93 0 93> 452 95<0 93 0 93> 786 95<0 93 0 93>
LayerCount: 2
Fore
SplineSet
881 0 m 1
 786 0 l 1
 786 93 l 1
 881 93 l 1
 881 0 l 1
547 0 m 1
 452 0 l 1
 452 93 l 1
 547 93 l 1
 547 0 l 1
213 0 m 1
 119 0 l 1
 119 93 l 1
 213 93 l 1
 213 0 l 1
EndSplineSet
Validated: 1
EndChar

StartChar: perthousand
Encoding: 8240 8240 119
Width: 1250
Flags: MW
HStem: -29 21<303 303> -9 58<1047 1063> 224 58<191 201.5 191 207> 392 58<1064 1064> 626 57<183.5 188 183.5 190>
VStem: 26 66 288 65<432 450 432 463.5> 523 64<213 213> 784 65<213 213> 898 69 1160 67<219 219>
LayerCount: 2
Fore
SplineSet
1227 220 m 0x7fe0
 1226 66 1153 -8 1063 -9 c 0
 1031 -9 1008 -1 995 6 c 0
 939 35 898 106 898 213 c 0
 898 271 909 366 973 418 c 0
 1011 449 1052 450 1063 450 c 0
 1088 450 1113 444 1135 431 c 0
 1192 397 1228 326 1227 220 c 0x7fe0
849 213 m 0
 848 177 844 141 832 106 c 0
 806 29 756 -8 689 -9 c 0
 593 -10 524 62 523 213 c 0
 522 273 531 381 615 431 c 0
 627 438 651 450 683 450 c 0
 778 451 851 364 849 213 c 0
620 656 m 1
 303 -29 l 1xbfe0
 248 -3 l 1
 566 682 l 1
 620 656 l 1
353 450 m 0
 353 414 349 377 337 341 c 0
 300 235 224 224 190 224 c 0
 161 224 136 234 126 239 c 0
 43 281 26 394 26 449 c 0
 25 507 42 624 127 668 c 0
 153 681 179 683 188 683 c 0
 281 684 354 599 353 450 c 0
1160 219 m 0
 1160 318 1134 390 1064 392 c 0
 1029 393 1010 375 997 357 c 0
 967 318 964 260 964 221 c 0
 964 205 965 188 967 172 c 0
 975 91 1014 49 1063 49 c 0x7fe0
 1153 48 1160 175 1160 219 c 0
784 213 m 0
 784 242 782 271 775 301 c 0
 759 371 719 391 684 391 c 0
 613 390 585 314 587 213 c 0
 588 117 621 48 688 48 c 0
 753 48 783 117 784 213 c 0
288 450 m 0
 288 477 287 504 281 532 c 0
 266 602 226 625 190 626 c 0
 170 626 153 617 145 612 c 0
 107 587 91 529 92 451 c 0
 93 352 122 281 191 282 c 0
 212 282 230 291 238 297 c 0
 274 324 288 377 288 450 c 0
EndSplineSet
Validated: 33
EndChar

StartChar: questiondown
Encoding: 191 191 120
Width: 562
Flags: MW
HStem: -6 75<231 275 231 315> 609 97<222 311 222 311>
VStem: 37 82<189 218 189 245.5> 227 78<404 556 320 556> 227 84<404 609 556 609> 405 87<201.5 218>
LayerCount: 2
Fore
SplineSet
311 609 m 1xec
 222 609 l 1
 222 706 l 1
 311 706 l 1
 311 609 l 1xec
492 232 m 1
 492 171 481 116 439 67 c 0
 414 39 362 -6 268 -6 c 0
 145 -6 37 81 37 210 c 0
 37 281 74 350 139 382 c 0
 167 396 197 402 227 404 c 1
 227 556 l 1
 305 556 l 1
 305 320 l 1xf4
 294 321 273 320 273 320 c 2
 270 320 211 317 179 301 c 0
 160 292 147 277 143 271 c 0
 134 260 119 236 119 200 c 0
 119 178 124 156 135 137 c 0
 150 111 192 69 270 69 c 0
 280 69 315 70 344 86 c 0
 372 102 405 141 405 215 c 0
 405 221 404 227 404 233 c 1
 492 232 l 1
EndSplineSet
Validated: 33
EndChar

StartChar: grave
Encoding: 96 96 121
Width: 271
Flags: MW
HStem: 521 21<153 201 153 153> 645 20<70 159 159 159>
LayerCount: 2
Fore
SplineSet
201 521 m 1
 153 521 l 1
 70 665 l 1
 159 665 l 1
 201 521 l 1
EndSplineSet
Validated: 1
EndChar

StartChar: acute
Encoding: 180 180 122
Width: 271
Flags: MW
HStem: 522 21<72 113 72 72> 646 20<113 199 199 199>
LayerCount: 2
Fore
SplineSet
199 666 m 1
 113 522 l 1
 72 522 l 1
 113 666 l 1
 199 666 l 1
EndSplineSet
Validated: 1
EndChar

StartChar: circumflex
Encoding: 710 710 123
Width: 271
Flags: MW
HStem: 523 21<3 73 3 3 193 268 193 193> 654 20<97 164 164 164>
LayerCount: 2
Fore
SplineSet
268 523 m 1
 193 523 l 1
 132 618 l 1
 73 523 l 1
 3 523 l 1
 97 674 l 1
 164 674 l 1
 268 523 l 1
EndSplineSet
Validated: 1
EndChar

StartChar: tilde
Encoding: 732 732 124
Width: 271
Flags: MW
HStem: 535 103<76 199>
LayerCount: 2
Fore
SplineSet
282 635 m 1
 281 635 l 1
 281 631 270 534 199 535 c 0
 176 535 154 544 113 560 c 0
 93 567 82 570 72 570 c 0
 46 570 39 545 39 539 c 1
 -10 539 l 1
 -10 549 1 639 76 638 c 0
 108 638 135 623 165 613 c 0
 165 612 186 604 201 604 c 0
 228 604 233 628 233 635 c 1
 282 635 l 1
EndSplineSet
Validated: 37
EndChar

StartChar: macron
Encoding: 175 175 125
Width: 271
Flags: MW
HStem: 541 68<-7 278 -7 278>
LayerCount: 2
Fore
SplineSet
278 541 m 1
 -7 541 l 1
 -7 609 l 1
 278 609 l 1
 278 541 l 1
EndSplineSet
Validated: 1
EndChar

StartChar: dieresis
Encoding: 168 168 126
Width: 271
Flags: MW
HStem: 541 103<-7 80 -7 80 189 278>
VStem: -7 87<541 644> 189 89<541 644>
LayerCount: 2
Fore
SplineSet
278 541 m 1
 189 541 l 1
 189 644 l 1
 278 644 l 1
 278 541 l 1
80 541 m 1
 -7 541 l 1
 -7 644 l 1
 80 644 l 1
 80 541 l 1
EndSplineSet
Validated: 1
EndChar

StartChar: cedilla
Encoding: 184 184 127
Width: 271
Flags: MW
HStem: -203 21<76 76> -4 20<141 141>
LayerCount: 2
Fore
SplineSet
203 -117 m 0
 203 -124 201 -141 190 -158 c 0
 165 -194 116 -201 76 -203 c 1
 77 -180 l 2
 80 -181 90 -182 100 -179 c 0
 116 -175 128 -161 128 -144 c 0
 128 -136 124 -127 122 -125 c 0
 110 -107 88 -105 68 -96 c 1
 141 16 l 1
 170 9 l 1
 141 -43 l 1
 151 -49 162 -54 172 -60 c 0
 198 -79 203 -106 203 -117 c 0
EndSplineSet
Validated: 1
EndChar

StartChar: emdash
Encoding: 8212 8212 128
Width: 895
Flags: MW
HStem: 262 76<45 850 45 850>
LayerCount: 2
Fore
SplineSet
850 262 m 1
 45 262 l 1
 45 338 l 1
 850 338 l 1
 850 262 l 1
EndSplineSet
Validated: 1
EndChar

StartChar: AE
Encoding: 198 198 129
Width: 1042
Flags: MW
HStem: 0 82<607 1014 607 1014> 232 81<317 514 317 514 262 514> 313 79<607 926 607 926> 623 83<607 1002 607 607>
VStem: 514 93<82 232 232 232 392 615 615 615>
LayerCount: 2
Fore
SplineSet
1014 0 m 1xb8
 514 0 l 1
 514 232 l 1
 262 232 l 1xd8
 108 0 l 1
 -2 0 l 1
 481 706 l 1
 1002 706 l 1
 1002 623 l 1
 607 623 l 1
 607 392 l 1
 926 392 l 1
 926 313 l 1
 607 313 l 1
 607 82 l 1
 1014 82 l 1
 1014 0 l 1xb8
514 313 m 1
 514 615 l 1
 317 313 l 1
 514 313 l 1
EndSplineSet
Validated: 8388609
EndChar

StartChar: ordfeminine
Encoding: 170 170 130
Width: 313
Flags: MW
HStem: 419 177<96 211> 677 41<147.5 180>
VStem: 211 50<543 560 560 560 596 607 607 619>
LayerCount: 2
Fore
SplineSet
298 429 m 1
 293 427 283 424 271 423 c 0
 236 422 222 442 214 460 c 1
 192 436 166 418 118 419 c 0
 74 419 30 445 30 498 c 0
 30 576 105 590 211 596 c 1
 211 607 l 2
 211 644 205 677 155 677 c 0
 140 677 98 676 98 624 c 2
 98 618 l 1
 43 622 l 2
 44 623 46 647 53 662 c 0
 74 709 119 718 154 718 c 0
 210 718 243 692 255 659 c 0
 260 647 261 630 261 619 c 2
 261 510 l 2
 261 497 262 470 283 470 c 0
 291 470 294 472 298 475 c 1
 298 429 l 1
211 543 m 2
 211 560 l 1
 190 557 l 2
 150 551 110 541 99 529 c 0
 88 517 88 507 88 503 c 0
 86 472 114 462 137 462 c 0
 167 463 211 477 211 543 c 2
EndSplineSet
Validated: 33
EndChar

StartChar: Oslash
Encoding: 216 216 131
Width: 812
Flags: MW
HStem: -18 74<368 450.5 368 475.5> 649 75<384 418 335.5 451>
VStem: 50 104<334.5 374.5> 659 104<329 355>
LayerCount: 2
Fore
SplineSet
763 355 m 0
 763 303 752 249 733 201 c 0
 675 59 552 -18 399 -18 c 0
 301 -18 236 10 161 71 c 1
 96 9 l 1
 47 59 l 1
 116 125 l 1
 94 163 50 239 50 353 c 0
 50 396 58 525 152 623 c 0
 191 665 267 724 404 724 c 0
 432 724 459 721 486 716 c 0
 528 707 576 691 646 634 c 1
 715 699 l 1
 763 648 l 1
 693 580 l 1
 717 545 763 468 763 355 c 0
580 571 m 1
 554 600 501 649 401 649 c 0
 367 649 282 643 220 567 c 0
 172 509 154 422 154 350 c 0
 154 319 156 263 186 193 c 1
 580 571 l 1
659 341 m 0
 659 369 656 440 621 512 c 1
 224 131 l 1
 278 78 330 56 406 56 c 0
 495 56 546 94 573 119 c 0
 655 196 659 309 659 341 c 0
EndSplineSet
Validated: 1
EndChar

StartChar: OE
Encoding: 338 338 132
Width: 1146
Flags: MW
HStem: -18 78<367.5 406 367.5 449.5> 0 82<708 1119 618 618> 321 82<708 1031 708 1031> 622 84<708 1108 708 708> 651 73<374 409.5>
VStem: 50 100<317.5 410.5 317.5 422.5> 618 90<0 321 82 321 82 391.5>
LayerCount: 2
Fore
SplineSet
1119 0 m 1x76
 618 0 l 1
 618 82 l 1x76
 584 45 513 -18 386 -18 c 0
 344 -18 244 -12 161 70 c 0
 117 113 50 203 50 356 c 0
 50 489 100 567 136 610 c 0
 203 690 293 724 396 724 c 0xae
 437 724 539 721 618 632 c 1
 618 706 l 1
 1108 706 l 1
 1108 622 l 1
 708 622 l 1
 708 403 l 1
 1031 403 l 1
 1031 321 l 1
 708 321 l 1
 708 82 l 1
 1119 82 l 1
 1119 0 l 1x76
618 356 m 0
 618 427 612 495 571 557 c 0
 514 643 428 651 391 651 c 0
 357 651 281 644 221 575 c 0
 188 536 150 469 150 352 c 0
 150 283 163 217 204 158 c 0
 264 71 347 60 388 60 c 0xae
 424 60 510 70 567 152 c 0
 610 215 617 283 618 356 c 0
EndSplineSet
Validated: 1
EndChar

StartChar: ordmasculine
Encoding: 186 186 133
Width: 333
Flags: MW
HStem: 417 44 671 45<158 166>
VStem: 26 57<561 569.5> 250 57<527 591>
LayerCount: 2
Fore
SplineSet
307 565 m 0
 307 482 256 417 168 417 c 0
 80 416 28 479 26 561 c 0
 26 578 28 596 33 613 c 0
 59 711 148 716 168 716 c 0
 260 716 307 642 307 565 c 0
250 567 m 0
 250 615 229 670 166 671 c 0
 122 671 83 641 83 565 c 0
 83 551 85 538 88 525 c 0
 94 503 112 463 165 461 c 0
 210 460 250 487 250 567 c 0
EndSplineSet
Validated: 33
EndChar

StartChar: ae
Encoding: 230 230 134
Width: 812
Flags: MW
HStem: -15 65<543.5 578> 214 58<437 694 436 779 437 437> 333 153 425 61<237.5 250 192.5 270.5>
LayerCount: 2
Fore
SplineSet
779 214 m 1xe0
 437 214 l 1
 437 197 436 142 471 97 c 0
 484 80 515 50 572 50 c 0
 624 50 663 80 681 128 c 0
 683 134 685 139 687 150 c 1
 771 137 l 1
 765 114 755 81 716 44 c 0
 656 -13 594 -15 562 -15 c 0
 523 -15 438 -9 385 84 c 1
 361 53 304 -15 194 -15 c 0
 183 -15 159 -14 132 -6 c 0
 74 11 33 54 33 118 c 0
 33 178 72 226 124 249 c 0
 179 274 238 271 357 272 c 1
 357 302 356 316 352 331 c 0
 339 385 299 425 242 425 c 0xd0
 233 425 214 424 194 415 c 0
 176 406 144 382 141 330 c 1
 57 336 l 1
 60 361 64 381 77 404 c 0
 96 438 145 486 240 486 c 0
 260 486 320 485 367 442 c 0
 375 435 386 424 399 402 c 1
 401 405 417 427 431 439 c 0
 450 457 494 486 561 486 c 0
 595 486 664 480 720 409 c 0
 748 375 780 316 779 214 c 1xe0
694 272 m 1
 693 287 691 334 658 373 c 0
 648 385 613 420 562 420 c 0
 540 420 495 412 463 364 c 0
 438 327 436 286 436 272 c 1
 694 272 l 1
357 214 m 1
 310 214 l 2
 297 214 253 214 210 205 c 0
 200 203 160 195 135 167 c 0
 130 162 116 144 116 121 c 0
 116 92 141 48 210 48 c 0
 229 48 275 51 312 90 c 0
 333 112 355 147 357 214 c 1
EndSplineSet
Validated: 33
EndChar

StartChar: oslash
Encoding: 248 248 135
Width: 542
Flags: MW
HStem: -15 64<276 288.5> 422 64<256 298>
VStem: 41 84<231.5 242> 421 82<226.5 238.5>
LayerCount: 2
Fore
SplineSet
506 432 m 1
 460 386 l 1
 471 371 475 363 478 355 c 0
 488 334 503 294 503 234 c 0
 503 219 502 180 488 139 c 0
 471 91 415 -15 270 -15 c 0
 210 -15 155 5 113 49 c 1
 73 9 l 1
 38 45 l 1
 81 87 l 1
 65 113 41 158 41 233 c 0
 41 251 42 295 61 342 c 0
 97 430 178 486 273 486 c 0
 330 486 384 463 427 425 c 1
 471 468 l 1
 506 432 l 1
373 372 m 1
 359 387 327 422 269 422 c 0
 243 422 219 415 198 401 c 0
 165 380 125 332 125 242 c 0
 125 221 125 191 142 148 c 1
 373 372 l 1
421 230 m 0
 421 247 421 289 401 328 c 1
 169 103 l 1
 174 96 177 91 183 85 c 0
 197 72 227 48 276 49 c 0
 301 49 326 56 346 69 c 0
 379 90 421 139 421 230 c 0
EndSplineSet
Validated: 33
EndChar

StartChar: oe
Encoding: 339 339 136
Width: 875
Flags: MW
HStem: -15 64<629 646.5 629 662> 214 60<483 838 483 483> 422 64<604 631>
VStem: 42 85<235 246.5> 403 80<204 274 204 275>
LayerCount: 2
Fore
SplineSet
838 214 m 1
 483 214 l 1
 483 194 485 148 517 105 c 0
 532 85 565 48 629 49 c 0
 664 49 690 60 713 84 c 0
 723 95 733 109 739 121 c 0
 746 134 749 147 751 152 c 1
 832 141 l 1
 814 87 784 56 768 41 c 0
 746 20 701 -15 623 -15 c 0
 594 -15 515 -9 459 57 c 0
 454 62 446 74 442 79 c 1
 421 47 370 -15 268 -15 c 0
 249 -15 202 -12 156 13 c 0
 107 40 41 103 42 235 c 0
 42 258 42 327 82 387 c 0
 105 422 162 486 271 486 c 0
 370 486 419 429 442 399 c 1
 465 431 514 486 614 486 c 0
 648 486 726 481 783 405 c 0
 836 334 838 236 838 214 c 1
750 275 m 1
 749 284 747 305 737 331 c 0
 707 408 650 422 616 422 c 0
 592 422 572 414 564 410 c 0
 512 385 488 328 483 274 c 1
 750 275 l 1
403 233 m 0
 403 317 374 367 345 391 c 0
 334 401 307 419 265 419 c 0
 238 419 217 410 208 406 c 0
 168 385 127 332 127 233 c 0
 127 218 126 120 193 74 c 0
 203 67 229 52 265 52 c 0
 277 52 300 53 327 68 c 0
 403 109 403 219 403 233 c 0
EndSplineSet
Validated: 33
EndChar

StartChar: germandbls
Encoding: 223 223 137
Width: 542
Flags: MW
HStem: -11 78<270 299.5 268 315.5> 0 21<64 143 64 64> 650 74<242.5 261>
VStem: 64 79<0 492 0 497 0 524.5> 370 80<553 591>
LayerCount: 2
Fore
SplineSet
503 232 m 0x78
 503 105 458 49 406 19 c 0
 385 7 345 -11 286 -11 c 0
 254 -11 223 -5 192 4 c 1
 192 88 l 1
 206 83 245 67 291 67 c 0xb8
 308 67 359 68 392 113 c 0
 421 153 422 214 422 224 c 0
 422 242 422 288 388 328 c 0
 352 370 304 383 200 383 c 1
 201 462 l 1
 277 454 317 468 343 494 c 0
 361 512 370 535 370 560 c 0
 370 622 317 651 261 650 c 0
 224 650 201 640 188 631 c 0
 139 599 143 542 143 492 c 2
 143 0 l 1
 64 0 l 1
 64 497 l 2
 64 552 63 607 97 655 c 0
 121 689 169 724 259 724 c 0
 277 724 338 724 387 689 c 0
 411 672 450 636 450 563 c 0
 450 543 448 494 407 455 c 0
 387 435 372 430 360 425 c 1
 457 412 488 332 496 301 c 0
 503 272 503 242 503 232 c 0x78
EndSplineSet
Validated: 33
EndChar

StartChar: Ydieresis
Encoding: 376 376 138
Width: 625
Flags: MW
HStem: 0 21<262 357 262 262> 686 20<14 125 125 125 499 611 611 611> 781 102<171 258 171 258 367 454>
VStem: 171 87<781 883> 262 95<0 323 0 323> 367 87<781 883>
LayerCount: 2
Fore
SplineSet
454 781 m 1
 367 781 l 1
 367 883 l 1
 454 883 l 1
 454 781 l 1
258 781 m 1
 171 781 l 1
 171 883 l 1
 258 883 l 1
 258 781 l 1
611 706 m 1
 357 323 l 1
 357 0 l 1
 262 0 l 1
 262 323 l 1
 14 706 l 1
 125 706 l 1
 311 407 l 1
 499 706 l 1
 611 706 l 1
EndSplineSet
Validated: 1
EndChar

StartChar: trademark
Encoding: 8482 8482 139
Width: 694
Flags: MW
HStem: 374 21<119 178 119 119 307 363 307 307 437 491 437 437 567 621 567 567> 657 49<23 119 23 273 178 273 178 178>
VStem: 119 59<374 657 374 657> 307 55<631 631 631 706> 568 53
LayerCount: 2
Fore
SplineSet
621 374 m 1
 567 374 l 1
 569 635 l 1
 491 374 l 1
 437 374 l 1
 362 631 l 1
 363 374 l 1
 307 374 l 1
 307 706 l 1
 385 706 l 1
 467 441 l 1
 546 706 l 1
 621 706 l 1
 621 374 l 1
273 657 m 1
 178 657 l 1
 178 374 l 1
 119 374 l 1
 119 657 l 1
 23 657 l 1
 23 706 l 1
 273 706 l 1
 273 657 l 1
EndSplineSet
Validated: 1
EndChar

StartChar: scaron
Encoding: 353 353 140
Width: 479
Flags: MW
HStem: -15 61<242.5 290 242.5 314.5> 425 61<193.5 255> 653 20<101 175 175 175 295 366 366 366>
VStem: 51 79 363 84<102 149.5>
LayerCount: 2
Fore
SplineSet
366 673 m 1
 270 522 l 1
 203 522 l 1
 101 673 l 1
 175 673 l 1
 236 577 l 1
 295 673 l 1
 366 673 l 1
447 134 m 0
 447 59 381 -15 248 -15 c 0
 150 -15 91 19 59 71 c 0
 49 87 36 114 31 152 c 1
 122 166 l 1
 122 157 l 2
 122 44 233 46 252 46 c 0
 328 46 363 79 363 125 c 0
 363 174 333 186 265 200 c 2
 220 209 l 2
 154 222 49 245 51 348 c 0
 52 420 109 486 234 486 c 0
 324 486 385 444 413 399 c 0
 430 370 434 339 435 331 c 1
 349 320 l 1
 349 330 347 353 343 363 c 0
 328 395 286 425 224 425 c 0
 163 425 129 389 130 354 c 0
 132 311 182 297 244 282 c 2
 289 271 l 2
 357 254 447 229 447 134 c 0
EndSplineSet
Validated: 33
EndChar

StartChar: Scaron
Encoding: 352 352 141
Width: 667
Flags: MW
HStem: -18 74<338 338> 651 73<309 332 309 376.5> 875 20<196 272 272 272 393 468 468 468>
VStem: 71 97 517 101<196 196>
LayerCount: 2
Fore
SplineSet
468 895 m 1
 367 771 l 1
 302 771 l 1
 196 895 l 1
 272 895 l 1
 334 818 l 1
 393 895 l 1
 468 895 l 1
618 197 m 0
 615 86 528 -18 338 -18 c 0
 183 -18 93 42 55 140 c 0
 41 177 37 214 37 226 c 1
 138 239 l 1
 138 171 175 58 338 56 c 0
 416 55 516 89 517 196 c 0
 518 282 446 300 383 314 c 2
 323 327 l 2
 226 348 76 378 71 521 c 0
 68 615 137 689 235 714 c 0
 256 720 286 724 332 724 c 0
 462 723 537 673 577 601 c 0
 599 560 603 520 606 507 c 1
 511 500 l 1
 510 509 510 532 499 558 c 0
 476 613 423 651 330 651 c 0
 226 651 167 605 168 540 c 0
 169 457 256 443 308 430 c 2
 385 411 l 2
 405 406 419 403 439 398 c 0
 488 385 622 348 618 197 c 0
EndSplineSet
Validated: 33
EndChar

StartChar: ydieresis
Encoding: 255 255 142
Width: 437
Flags: MW
HStem: -233 21<72 110> 451 20<14 99 99 99 342 425 425 425> 541 103<78 165 78 165 274 363>
VStem: 78 87<541 644> 274 89<541 644>
LayerCount: 2
Fore
SplineSet
363 541 m 1
 274 541 l 1
 274 644 l 1
 363 644 l 1
 363 541 l 1
165 541 m 1
 78 541 l 1
 78 644 l 1
 165 644 l 1
 165 541 l 1
425 471 m 1
 227 -86 l 2
 219 -108 208 -140 197 -160 c 0
 170 -213 140 -233 80 -233 c 0
 64 -233 41 -232 9 -223 c 1
 9 -151 l 1
 20 -154 35 -159 60 -159 c 0
 67 -159 87 -160 104 -149 c 0
 132 -131 145 -88 154 -61 c 2
 174 -3 l 1
 14 471 l 1
 99 471 l 1
 217 97 l 1
 342 471 l 1
 425 471 l 1
EndSplineSet
Validated: 33
EndChar

StartChar: thorn
Encoding: 254 254 143
Width: 562
Flags: MW
HStem: -224 21<65 143 65 65> -15 70 411 75 686 20<65 143 143 143>
VStem: 65 78<-224 55 225 265.5 403 706> 441 82<233 233>
LayerCount: 2
Fore
SplineSet
523 233 m 0
 522 102 451 -17 299 -15 c 0
 223 -14 173 18 143 55 c 1
 143 -224 l 1
 65 -224 l 1
 65 706 l 1
 143 706 l 1
 143 403 l 1
 207 482 288 485 305 486 c 0
 362 488 407 464 429 447 c 0
 482 408 524 340 523 233 c 0
441 233 m 0
 442 322 399 415 289 411 c 0
 261 410 235 402 213 387 c 0
 172 360 143 306 143 225 c 0
 144 136 189 53 296 55 c 0
 332 56 357 66 372 75 c 0
 411 100 441 155 441 233 c 0
EndSplineSet
Validated: 33
EndChar

StartChar: yacute
Encoding: 253 253 144
Width: 437
Flags: MW
HStem: -233 74<47.5 119> 451 20<14 99 99 99 342 425 425 425> 646 20<237 323 323 323>
LayerCount: 2
Fore
SplineSet
323 666 m 1
 237 522 l 1
 196 522 l 1
 237 666 l 1
 323 666 l 1
425 471 m 1
 227 -86 l 2
 186 -202 156 -233 82 -233 c 0
 59 -233 38 -231 16 -225 c 2
 9 -223 l 1
 9 -151 l 1
 15 -153 37 -159 58 -159 c 0
 113 -160 131 -128 148 -78 c 2
 148 -78 150 -72 174 -3 c 1
 14 471 l 1
 99 471 l 1
 217 97 l 1
 342 471 l 1
 425 471 l 1
EndSplineSet
Validated: 33
EndChar

StartChar: udieresis
Encoding: 252 252 145
Width: 521
Flags: MW
HStem: -12 75<215.5 242> 0 21<376 454 376 376> 451 20<65 144 144 144 376 454 454 454> 541 103<116 203 116 203 312 401>
VStem: 67 79 118 87 314 89 378 78
LayerCount: 2
Fore
SplineSet
401 541 m 1x76
 312 541 l 1
 312 644 l 1
 401 644 l 1
 401 541 l 1x76
203 541 m 1
 116 541 l 1
 116 644 l 1
 203 644 l 1
 203 541 l 1
454 0 m 1x79
 376 0 l 1x79
 375 72 l 1
 371 66 366 59 355 48 c 0
 317 10 269 -12 215 -12 c 0
 198 -12 125 -9 89 50 c 0
 62 95 65 146 65 195 c 2
 65 471 l 1
 144 471 l 1
 144 203 l 2
 144 153 144 131 155 108 c 0
 165 88 190 63 241 63 c 0xba
 259 63 319 67 353 117 c 0
 377 152 376 195 376 235 c 2
 376 471 l 1
 454 471 l 1
 454 0 l 1x79
EndSplineSet
Validated: 33
EndChar

StartChar: ucircumflex
Encoding: 251 251 146
Width: 521
Flags: MW
HStem: -12 75<215.5 242> 0 21<376 454 376 376> 471 52<131 144 144 144 376 397> 654 20<225 293 293 293>
VStem: 67 79 378 78
LayerCount: 2
Fore
SplineSet
397 523 m 1x7c
 321 523 l 1
 260 618 l 1
 201 523 l 1
 131 523 l 1
 225 674 l 1
 293 674 l 1
 397 523 l 1x7c
454 0 m 1
 376 0 l 1x7c
 375 72 l 1
 371 66 366 59 355 48 c 0
 317 10 269 -12 215 -12 c 0
 198 -12 125 -9 89 50 c 0
 62 95 65 146 65 195 c 2
 65 471 l 1
 144 471 l 1
 144 203 l 2
 144 153 144 131 155 108 c 0
 165 88 190 63 241 63 c 0xbc
 259 63 319 67 353 117 c 0
 377 152 376 195 376 235 c 2
 376 471 l 1
 454 471 l 1
 454 0 l 1
EndSplineSet
Validated: 33
EndChar

StartChar: uacute
Encoding: 250 250 147
Width: 521
Flags: MW
HStem: -12 75<215.5 242> 0 21<376 454 376 376> 451 20<65 144 144 144 376 454 454 454> 646 20<274 360 360 360>
VStem: 67 79 378 78
LayerCount: 2
Fore
SplineSet
360 666 m 1x7c
 274 522 l 1
 232 522 l 1
 274 666 l 1
 360 666 l 1x7c
454 0 m 1
 376 0 l 1x7c
 375 72 l 1
 371 66 366 59 355 48 c 0
 317 10 269 -12 215 -12 c 0
 198 -12 125 -9 89 50 c 0
 62 95 65 146 65 195 c 2
 65 471 l 1
 144 471 l 1
 144 203 l 2
 144 153 144 131 155 108 c 0
 165 88 190 63 241 63 c 0xbc
 259 63 319 67 353 117 c 0
 377 152 376 195 376 235 c 2
 376 471 l 1
 454 471 l 1
 454 0 l 1
EndSplineSet
Validated: 33
EndChar

StartChar: ugrave
Encoding: 249 249 148
Width: 521
Flags: MW
HStem: -12 75<215.5 242> 0 21<376 454 376 376> 451 20<65 144 144 144 376 454 454 454> 645 20<165 254 254 254>
VStem: 67 79 378 78
LayerCount: 2
Fore
SplineSet
295 521 m 1x7c
 247 521 l 1
 165 665 l 1
 254 665 l 1
 295 521 l 1x7c
454 0 m 1
 376 0 l 1x7c
 375 72 l 1
 371 66 366 59 355 48 c 0
 317 10 269 -12 215 -12 c 0
 198 -12 125 -9 89 50 c 0
 62 95 65 146 65 195 c 2
 65 471 l 1
 144 471 l 1
 144 203 l 2
 144 153 144 131 155 108 c 0
 165 88 190 63 241 63 c 0xbc
 259 63 319 67 353 117 c 0
 377 152 376 195 376 235 c 2
 376 471 l 1
 454 471 l 1
 454 0 l 1
EndSplineSet
Validated: 33
EndChar

StartChar: divide
Encoding: 247 247 149
Width: 724
Flags: MW
HStem: 82 110<318 407 318 407> 260 81<79 645 79 645> 409 110<318 407 318 407>
VStem: 318 89<82 192 409 519>
LayerCount: 2
Fore
SplineSet
407 409 m 1
 318 409 l 1
 318 519 l 1
 407 519 l 1
 407 409 l 1
645 260 m 1
 79 260 l 1
 79 341 l 1
 645 341 l 1
 645 260 l 1
407 82 m 1
 318 82 l 1
 318 192 l 1
 407 192 l 1
 407 82 l 1
EndSplineSet
Validated: 1
EndChar

StartChar: odieresis
Encoding: 246 246 150
Width: 542
Flags: MW
HStem: -15 64<270 303 270 306.5> 422 64<237.5 284.5> 541 103<133 220 133 220 330 418>
VStem: 40 87<230 243.5 230 247> 133 87<541 644> 330 88<541 644>
LayerCount: 2
Fore
SplineSet
418 541 m 1
 330 541 l 1
 330 644 l 1
 418 644 l 1
 418 541 l 1
220 541 m 1
 133 541 l 1
 133 644 l 1
 220 644 l 1
 220 541 l 1
502 235 m 0
 502 203 497 91 404 25 c 0
 381 8 341 -15 272 -15 c 0
 246 -15 170 -12 114 42 c 0
 83 72 40 132 40 233 c 0
 40 261 43 336 93 403 c 0
 139 463 200 486 275 486 c 0
 307 486 341 480 369 468 c 0
 424 445 504 378 502 235 c 0
416 236 m 0
 417 248 417 308 394 353 c 0
 383 373 369 387 363 392 c 0
 329 421 293 422 276 422 c 0
 127 422 127 257 127 230 c 0
 128 190 133 150 155 113 c 0
 168 90 200 48 270 49 c 0
 336 49 370 87 384 108 c 0
 414 153 416 227 416 236 c 0
EndSplineSet
Validated: 33
EndChar

StartChar: otilde
Encoding: 245 245 151
Width: 542
Flags: MW
HStem: -15 64<272 283 272 321> 422 64<238 284.5> 535 103<212 334>
LayerCount: 2
Fore
SplineSet
417 635 m 1
 416 631 405 534 334 535 c 0
 311 535 289 544 247 560 c 0
 227 567 217 570 206 570 c 0
 180 570 175 545 173 539 c 1
 125 539 l 1
 126 549 137 639 212 638 c 0
 243 638 271 623 299 613 c 0
 301 612 322 604 337 604 c 0
 364 604 368 628 369 635 c 1
 417 635 l 1
502 235 m 0
 502 209 499 129 447 64 c 0
 421 33 370 -15 272 -15 c 0
 244 -15 166 -12 109 47 c 0
 79 77 40 134 40 233 c 0
 40 294 56 355 94 404 c 0
 140 463 201 486 275 486 c 0
 307 486 341 480 369 468 c 0
 424 445 504 378 502 235 c 0
416 236 m 0
 417 249 417 310 392 356 c 0
 385 369 374 383 363 392 c 0
 329 421 292 422 277 422 c 0
 126 422 127 257 127 230 c 0
 127 207 130 189 131 182 c 0
 136 148 160 48 272 49 c 0
 294 49 348 54 384 108 c 0
 414 153 416 226 416 236 c 0
EndSplineSet
Validated: 33
EndChar

StartChar: ocircumflex
Encoding: 244 244 152
Width: 542
Flags: MW
HStem: -15 64<272 283 272 321> 422 64<238 284.5> 486 37<142 291> 654 20<236 303 303 303>
LayerCount: 2
Fore
SplineSet
407 523 m 1xb0
 332 523 l 1
 271 618 l 1
 212 523 l 1
 142 523 l 1
 236 674 l 1
 303 674 l 1
 407 523 l 1xb0
502 235 m 0
 502 209 499 129 447 64 c 0
 421 33 370 -15 272 -15 c 0
 244 -15 166 -12 109 47 c 0
 79 77 40 134 40 233 c 0
 40 294 56 355 94 404 c 0
 140 463 201 486 275 486 c 0xd0
 307 486 341 480 369 468 c 0
 424 445 504 378 502 235 c 0
416 236 m 0
 417 249 417 310 392 356 c 0
 385 369 374 383 363 392 c 0
 329 421 292 422 277 422 c 0
 126 422 127 257 127 230 c 0
 127 207 130 189 131 182 c 0
 136 148 160 48 272 49 c 0
 294 49 348 54 384 108 c 0
 414 153 416 226 416 236 c 0
EndSplineSet
Validated: 8388641
EndChar

StartChar: oacute
Encoding: 243 243 153
Width: 542
Flags: MW
HStem: -15 64<272 283 272 321> 422 64<238 284.5> 646 20<284 370 370 370>
LayerCount: 2
Fore
SplineSet
370 666 m 1
 284 522 l 1
 243 522 l 1
 284 666 l 1
 370 666 l 1
502 235 m 0
 502 209 499 129 447 64 c 0
 421 33 370 -15 272 -15 c 0
 244 -15 166 -12 109 47 c 0
 79 77 40 134 40 233 c 0
 40 294 56 355 94 404 c 0
 140 463 201 486 275 486 c 0
 307 486 341 480 369 468 c 0
 424 445 504 378 502 235 c 0
416 236 m 0
 417 249 417 310 392 356 c 0
 385 369 374 383 363 392 c 0
 329 421 292 422 277 422 c 0
 126 422 127 257 127 230 c 0
 127 207 130 189 131 182 c 0
 136 148 160 48 272 49 c 0
 294 49 348 54 384 108 c 0
 414 153 416 226 416 236 c 0
EndSplineSet
Validated: 33
EndChar

StartChar: ograve
Encoding: 242 242 154
Width: 542
Flags: MW
HStem: -15 64<272 283 272 321> 422 64<238 284.5> 645 20<175 264 264 264>
LayerCount: 2
Fore
SplineSet
305 521 m 1
 258 521 l 1
 175 665 l 1
 264 665 l 1
 305 521 l 1
502 235 m 0
 502 209 499 129 447 64 c 0
 421 33 370 -15 272 -15 c 0
 244 -15 166 -12 109 47 c 0
 79 77 40 134 40 233 c 0
 40 294 56 355 94 404 c 0
 140 463 201 486 275 486 c 0
 307 486 341 480 369 468 c 0
 424 445 504 378 502 235 c 0
416 236 m 0
 417 249 417 310 392 356 c 0
 385 369 374 383 363 392 c 0
 329 421 292 422 277 422 c 0
 126 422 127 257 127 230 c 0
 127 207 130 189 131 182 c 0
 136 148 160 48 272 49 c 0
 294 49 348 54 384 108 c 0
 414 153 416 226 416 236 c 0
EndSplineSet
Validated: 33
EndChar

StartChar: ntilde
Encoding: 241 241 155
Width: 521
Flags: MW
HStem: 0 21<64 144 64 64 376 455 376 376> 411 75<259.5 287.5> 451 20<64 144 144 144> 535 103<202 323>
VStem: 64 80<0 268 402 471> 376 79<0 281>
LayerCount: 2
Fore
SplineSet
406 635 m 1xdc
 406 631 395 534 323 535 c 0
 301 535 279 544 237 560 c 0
 217 567 206 570 196 570 c 0
 170 570 165 545 163 539 c 1
 114 539 l 1
 116 549 127 639 202 638 c 0
 233 638 261 623 289 613 c 0
 291 612 311 604 327 604 c 0
 353 604 357 628 359 635 c 1
 406 635 l 1xdc
455 0 m 1
 376 0 l 1
 376 300 l 2
 376 314 380 360 340 390 c 0
 328 399 306 411 269 411 c 0xdc
 234 411 206 400 181 376 c 0
 175 370 161 355 153 333 c 0
 144 311 144 291 144 268 c 2
 144 0 l 1
 64 0 l 1
 64 471 l 1
 144 471 l 1xbc
 144 402 l 1
 154 419 164 430 169 435 c 0
 186 453 227 486 292 486 c 0
 313 486 384 480 426 421 c 0
 457 378 455 332 455 281 c 2
 455 0 l 1
EndSplineSet
Validated: 33
EndChar

StartChar: eth
Encoding: 240 240 156
Width: 542
Flags: MW
HStem: -15 64<272 311.5 197 343> 422 64<271 271> 698 20<301 301>
VStem: 40 87<229 235 229 264> 416 86<236 243 243 310>
LayerCount: 2
Fore
SplineSet
502 257 m 0
 502 208 496 174 490 154 c 0
 471 83 414 -15 272 -15 c 0
 57 -16 40 180 40 235 c 0
 40 293 52 331 63 356 c 0
 107 454 195 488 272 486 c 0
 337 485 373 457 401 429 c 1
 399 436 380 519 341 572 c 1
 163 514 l 1
 145 559 l 1
 310 614 l 1
 284 648 251 677 239 689 c 1
 301 718 l 1
 332 690 333 686 376 635 c 1
 461 664 l 1
 480 617 l 1
 406 593 l 1
 477 478 502 372 502 257 c 0
416 236 m 2
 416 243 l 2
 416 377 348 425 271 422 c 0
 156 418 128 316 127 235 c 0
 127 223 122 49 272 49 c 0
 351 49 416 101 416 236 c 2
EndSplineSet
Validated: 33
EndChar

StartChar: idieresis
Encoding: 239 239 157
Width: 208
Flags: MW
HStem: 0 21<67 144 67 67> 451 20<67 144 144 144> 541 103<-37 50 -37 50 160 248>
VStem: -37 87<541 644> 67 77<0 471> 160 88<541 644>
LayerCount: 2
Fore
SplineSet
248 541 m 1
 160 541 l 1
 160 644 l 1
 248 644 l 1
 248 541 l 1
50 541 m 1
 -37 541 l 1
 -37 644 l 1
 50 644 l 1
 50 541 l 1
144 0 m 1
 67 0 l 1
 67 471 l 1
 144 471 l 1
 144 0 l 1
EndSplineSet
Validated: 1
EndChar

StartChar: icircumflex
Encoding: 238 238 158
Width: 208
Flags: MW
HStem: 0 21<67 144 67 67> 451 20<67 144 144 144> 654 20<69 137 137 137>
VStem: 67 77<0 471>
LayerCount: 2
Fore
SplineSet
240 523 m 1
 165 523 l 1
 104 618 l 1
 45 523 l 1
 -25 523 l 1
 69 674 l 1
 137 674 l 1
 240 523 l 1
144 0 m 1
 67 0 l 1
 67 471 l 1
 144 471 l 1
 144 0 l 1
EndSplineSet
Validated: 1
EndChar

StartChar: iacute
Encoding: 237 237 159
Width: 208
Flags: MW
HStem: 0 21<67 144 67 67> 451 20<67 144 144 144> 646 20<117 203 203 203>
VStem: 67 77<0 471>
LayerCount: 2
Fore
SplineSet
203 666 m 1
 117 522 l 1
 76 522 l 1
 117 666 l 1
 203 666 l 1
144 0 m 1
 67 0 l 1
 67 471 l 1
 144 471 l 1
 144 0 l 1
EndSplineSet
Validated: 1
EndChar

StartChar: igrave
Encoding: 236 236 160
Width: 208
Flags: MW
HStem: 0 21<67 144 67 67> 451 20<67 144 144 144> 645 20<9 97 97 97>
VStem: 67 77<0 471>
LayerCount: 2
Fore
SplineSet
139 521 m 1
 91 521 l 1
 9 665 l 1
 97 665 l 1
 139 521 l 1
144 0 m 1
 67 0 l 1
 67 471 l 1
 144 471 l 1
 144 0 l 1
EndSplineSet
Validated: 1
EndChar

StartChar: edieresis
Encoding: 235 235 161
Width: 521
Flags: MW
HStem: -15 60<263 299.5 263 323> 221 58<127 396 127 483 125 396> 424 62<233.5 279 233.5 292> 541 103<130 217 130 217 326 415>
VStem: 39 86<221 221 221 283.5> 130 87<541 644> 326 89<541 644>
LayerCount: 2
Fore
SplineSet
415 541 m 1
 326 541 l 1
 326 644 l 1
 415 644 l 1
 415 541 l 1
217 541 m 1
 130 541 l 1
 130 644 l 1
 217 644 l 1
 217 541 l 1
483 144 m 1
 479 134 470 106 452 78 c 0
 428 42 376 -15 270 -15 c 0
 221 -15 189 -4 171 4 c 0
 113 29 39 93 39 240 c 0
 39 327 68 376 92 405 c 0
 135 457 200 486 267 486 c 0
 291 486 319 481 341 473 c 0
 370 463 428 435 460 361 c 0
 473 330 483 292 483 221 c 1
 125 221 l 1
 124 137 164 89 193 69 c 0
 217 53 248 45 278 45 c 0
 321 45 343 61 357 74 c 0
 362 78 374 90 383 105 c 0
 395 126 400 149 402 155 c 1
 483 144 l 1
396 279 m 1
 394 303 392 314 389 325 c 0
 373 383 323 424 261 424 c 0
 176 424 134 354 127 279 c 1
 396 279 l 1
EndSplineSet
Validated: 33
EndChar

StartChar: ecircumflex
Encoding: 234 234 162
Width: 521
Flags: MW
HStem: -15 60<263 299.5 263 323> 45 176<263 299.5> 221 58<127 396 127 483 125 396> 279 145<218.5 292 218.5 396 218.5 396> 424 62<233.5 279 233.5 292> 486 37<131 279> 654 20<225 293 293 293>
VStem: 39 86<221 221 221 283.5>
LayerCount: 2
Fore
SplineSet
397 523 m 1x07
 321 523 l 1
 260 618 l 1
 201 523 l 1
 131 523 l 1
 225 674 l 1
 293 674 l 1
 397 523 l 1x07
483 144 m 1
 479 134 470 106 452 78 c 0
 428 42 376 -15 270 -15 c 0
 221 -15 189 -4 171 4 c 0
 113 29 39 93 39 240 c 0
 39 327 68 376 92 405 c 0
 135 457 200 486 267 486 c 0
 291 486 319 481 341 473 c 0
 370 463 428 435 460 361 c 0
 473 330 483 292 483 221 c 1
 125 221 l 1
 124 137 164 89 193 69 c 0
 217 53 248 45 278 45 c 0xab
 321 45 343 61 357 74 c 0
 362 78 374 90 383 105 c 0
 395 126 400 149 402 155 c 1
 483 144 l 1
396 279 m 1
 394 303 392 314 389 325 c 0
 373 383 323 424 261 424 c 0x13
 176 424 134 354 127 279 c 1
 396 279 l 1
EndSplineSet
Validated: 8388641
EndChar

StartChar: eacute
Encoding: 233 233 163
Width: 521
Flags: MW
HStem: -15 60<263 299.5 263 323> 221 58<127 396 127 483 125 396> 424 62<233.5 279 233.5 292> 646 20<279 365 365 365>
VStem: 39 86<221 221 221 283.5>
LayerCount: 2
Fore
SplineSet
365 666 m 1
 279 522 l 1
 237 522 l 1
 279 666 l 1
 365 666 l 1
483 144 m 1
 479 134 470 106 452 78 c 0
 428 42 376 -15 270 -15 c 0
 221 -15 189 -4 171 4 c 0
 113 29 39 93 39 240 c 0
 39 327 68 376 92 405 c 0
 135 457 200 486 267 486 c 0
 291 486 319 481 341 473 c 0
 370 463 428 435 460 361 c 0
 473 330 483 292 483 221 c 1
 125 221 l 1
 124 137 164 89 193 69 c 0
 217 53 248 45 278 45 c 0
 321 45 343 61 357 74 c 0
 362 78 374 90 383 105 c 0
 395 126 400 149 402 155 c 1
 483 144 l 1
396 279 m 1
 394 303 392 314 389 325 c 0
 373 383 323 424 261 424 c 0
 176 424 134 354 127 279 c 1
 396 279 l 1
EndSplineSet
Validated: 33
EndChar

StartChar: egrave
Encoding: 232 232 164
Width: 521
Flags: MW
HStem: -15 60<263 299.5 263 323> 221 58<127 396 127 483 125 396> 424 62<233.5 279 233.5 292> 645 20<165 254 254 254>
VStem: 39 86<221 221 221 283.5>
LayerCount: 2
Fore
SplineSet
295 521 m 1
 247 521 l 1
 165 665 l 1
 254 665 l 1
 295 521 l 1
483 144 m 1
 479 134 470 106 452 78 c 0
 428 42 376 -15 270 -15 c 0
 221 -15 189 -4 171 4 c 0
 113 29 39 93 39 240 c 0
 39 327 68 376 92 405 c 0
 135 457 200 486 267 486 c 0
 291 486 319 481 341 473 c 0
 370 463 428 435 460 361 c 0
 473 330 483 292 483 221 c 1
 125 221 l 1
 124 137 164 89 193 69 c 0
 217 53 248 45 278 45 c 0
 321 45 343 61 357 74 c 0
 362 78 374 90 383 105 c 0
 395 126 400 149 402 155 c 1
 483 144 l 1
396 279 m 1
 394 303 392 314 389 325 c 0
 373 383 323 424 261 424 c 0
 176 424 134 354 127 279 c 1
 396 279 l 1
EndSplineSet
Validated: 33
EndChar

StartChar: ccedilla
Encoding: 231 231 165
Width: 521
Flags: MW
HStem: -203 21<211 251.5> 428 58<258.5 278.5>
VStem: 41 88
LayerCount: 2
Fore
SplineSet
494 170 m 1
 475 56 402 12 355 -3 c 0
 337 -8 325 -10 293 -13 c 1
 275 -43 l 1
 289 -52 338 -67 338 -117 c 0
 338 -166 292 -203 211 -203 c 1
 211 -180 l 2
 213 -181 215 -181 218 -181 c 0
 250 -181 264 -160 263 -143 c 0
 260 -110 222 -104 203 -96 c 1
 256 -14 l 1
 227 -11 195 -8 166 6 c 0
 95 40 36 120 39 242 c 0
 42 373 111 447 186 474 c 0
 213 483 245 486 272 486 c 0
 326 485 387 474 439 418 c 0
 464 392 474 366 478 356 c 0
 484 340 484 337 485 328 c 1
 397 319 l 1
 396 324 392 351 379 371 c 0
 343 429 284 428 273 428 c 0
 192 431 128 375 127 240 c 0
 126 101 195 47 275 47 c 0
 390 47 403 145 408 178 c 1
 494 170 l 1
EndSplineSet
Validated: 33
EndChar

StartChar: aring
Encoding: 229 229 166
Width: 500
Flags: MW
HStem: -13 67<177.5 230.5 177.5 237.5> -6 21<433 441.5> 328 158 425 61<233.5 244 180 289> 513 44<231.5 260.5 231.5 272> 660 43<231.5 246 220 260>
VStem: 32 88<106.5 133> 152 43<594 622 594 634> 297 44<595 622.5> 347 79<132.5 133 133 197.5>
LayerCount: 2
Fore
SplineSet
341 608 m 0x9fc0
 341 556 298 513 246 513 c 0
 193 513 152 556 152 608 c 0
 152 660 194 703 246 703 c 0
 299 702 341 660 341 608 c 0x9fc0
486 3 m 1
 462 -5 448 -6 435 -6 c 0x6fc0
 431 -6 403 -6 385 6 c 0
 377 12 371 21 369 24 c 0
 356 42 355 54 353 64 c 1
 331 40 283 -13 192 -13 c 0
 160 -13 139 -7 127 -3 c 0
 71 16 32 61 32 122 c 0
 32 144 38 189 83 224 c 0
 131 260 214 273 274 277 c 2
 346 282 l 1
 346 295 346 308 345 321 c 0
 343 355 337 425 241 425 c 0
 226 425 163 425 144 368 c 0
 139 353 139 342 139 326 c 1
 56 331 l 1
 56 340 58 357 64 377 c 0
 79 422 123 486 237 486 c 0
 251 486 277 485 311 476 c 0
 330 471 393 452 416 388 c 0
 425 363 426 339 426 287 c 2
 426 133 l 2
 426 123 426 112 427 102 c 0
 428 91 429 66 462 66 c 0
 472 66 477 68 486 70 c 1
 486 3 l 1
297 609 m 0
 297 636 274 660 246 660 c 0
 217 660 195 636 195 608 c 0
 195 580 217 557 246 557 c 0
 275 557 297 581 297 609 c 0
347 193 m 0
 347 202 346 212 346 221 c 2
 346 230 l 1
 309 224 215 212 178 196 c 0
 163 190 120 170 120 124 c 0
 120 89 146 54 209 54 c 0xafc0
 252 54 347 72 347 193 c 0
EndSplineSet
Validated: 1
EndChar

StartChar: adieresis
Encoding: 228 228 167
Width: 500
Flags: MW
HStem: -13 67<177.5 230.5 177.5 237.5> -6 21<433 441.5> 328 158 425 61<233.5 244 180 289> 541 103<105 192 105 192 301 390>
VStem: 32 88<106.5 133> 105 87<541 644> 301 89<541 644> 347 79<132.5 133 133 197.5>
LayerCount: 2
Fore
SplineSet
390 541 m 1xab
 301 541 l 1
 301 644 l 1
 390 644 l 1
 390 541 l 1xab
192 541 m 1
 105 541 l 1
 105 644 l 1
 192 644 l 1
 192 541 l 1
486 3 m 1
 462 -5 448 -6 435 -6 c 0x6c80
 431 -6 403 -6 385 6 c 0
 377 12 371 21 369 24 c 0
 356 42 355 54 353 64 c 1
 331 40 283 -13 192 -13 c 0xab
 160 -13 139 -7 127 -3 c 0
 71 16 32 61 32 122 c 0
 32 144 38 189 83 224 c 0
 131 260 214 273 274 277 c 2
 346 282 l 1
 346 295 346 308 345 321 c 0
 343 355 337 425 241 425 c 0
 226 425 163 425 144 368 c 0
 139 353 139 342 139 326 c 1
 56 331 l 1
 56 340 58 357 64 377 c 0
 79 422 123 486 237 486 c 0
 251 486 277 485 311 476 c 0
 330 471 393 452 416 388 c 0
 425 363 426 339 426 287 c 2
 426 133 l 2x9c80
 426 123 426 112 427 102 c 0
 428 91 429 66 462 66 c 0
 472 66 477 68 486 70 c 1
 486 3 l 1
347 193 m 0
 347 202 346 212 346 221 c 2
 346 230 l 1
 309 224 215 212 178 196 c 0
 163 190 120 170 120 124 c 0
 120 89 146 54 209 54 c 0xac80
 252 54 347 72 347 193 c 0
EndSplineSet
Validated: 1
EndChar

StartChar: atilde
Encoding: 227 227 168
Width: 500
Flags: MW
HStem: -13 67<177.5 230.5 177.5 237.5> -6 21<433 441.5> 328 158 425 61<233.5 244 180 289> 535 103<191 313>
VStem: 32 88<106.5 133> 347 79<132.5 133 133 197.5>
LayerCount: 2
Fore
SplineSet
396 635 m 1x9e
 395 631 384 534 313 535 c 0
 291 535 268 544 226 560 c 0
 207 567 196 570 186 570 c 0
 160 570 154 545 153 539 c 1
 104 539 l 1
 105 549 116 639 191 638 c 0
 222 638 250 624 279 613 c 0
 280 613 301 604 316 604 c 0
 343 604 347 628 348 635 c 1
 396 635 l 1x9e
486 3 m 1
 462 -5 448 -6 435 -6 c 0x6e
 431 -6 403 -6 385 6 c 0
 377 12 371 21 369 24 c 0
 356 42 355 54 353 64 c 1
 331 40 283 -13 192 -13 c 0
 160 -13 139 -7 127 -3 c 0
 71 16 32 61 32 122 c 0
 32 144 38 189 83 224 c 0
 131 260 214 273 274 277 c 2
 346 282 l 1
 346 295 346 308 345 321 c 0
 343 355 337 425 241 425 c 0
 226 425 163 425 144 368 c 0
 139 353 139 342 139 326 c 1
 56 331 l 1
 56 340 58 357 64 377 c 0
 79 422 123 486 237 486 c 0
 251 486 277 485 311 476 c 0
 330 471 393 452 416 388 c 0
 425 363 426 339 426 287 c 2
 426 133 l 2
 426 123 426 112 427 102 c 0
 428 91 429 66 462 66 c 0
 472 66 477 68 486 70 c 1
 486 3 l 1
347 193 m 0
 347 202 346 212 346 221 c 2
 346 230 l 1
 309 224 215 212 178 196 c 0
 163 190 120 170 120 124 c 0
 120 89 146 54 209 54 c 0xae
 252 54 347 72 347 193 c 0
EndSplineSet
Validated: 33
EndChar

StartChar: acircumflex
Encoding: 226 226 169
Width: 500
Flags: MW
HStem: -13 67<177.5 230.5 177.5 237.5> -6 21<433 441.5> 277 148<274 274> 328 158 425 61<233.5 244 180 289> 486 37<180 191 121 244> 654 20<215 282 282 282>
VStem: 32 88<106.5 133> 347 79<132.5 133 133 197.5>
LayerCount: 2
Fore
SplineSet
386 523 m 1xaf80
 311 523 l 1
 250 618 l 1
 191 523 l 1
 121 523 l 1
 215 674 l 1
 282 674 l 1
 386 523 l 1xaf80
486 3 m 1
 462 -5 448 -6 435 -6 c 0x5780
 431 -6 403 -6 385 6 c 0
 377 12 371 21 369 24 c 0
 356 42 355 54 353 64 c 1
 331 40 283 -13 192 -13 c 0
 160 -13 139 -7 127 -3 c 0
 71 16 32 61 32 122 c 0
 32 144 38 189 83 224 c 0
 131 260 214 273 274 277 c 2
 346 282 l 1
 346 295 346 308 345 321 c 0
 343 355 337 425 241 425 c 0
 226 425 163 425 144 368 c 0
 139 353 139 342 139 326 c 1
 56 331 l 1
 56 340 58 357 64 377 c 0
 79 422 123 486 237 486 c 0
 251 486 277 485 311 476 c 0
 330 471 393 452 416 388 c 0
 425 363 426 339 426 287 c 2
 426 133 l 2
 426 123 426 112 427 102 c 0
 428 91 429 66 462 66 c 0
 472 66 477 68 486 70 c 1
 486 3 l 1
347 193 m 0
 347 202 346 212 346 221 c 2
 346 230 l 1
 309 224 215 212 178 196 c 0
 163 190 120 170 120 124 c 0
 120 89 146 54 209 54 c 0x9780
 252 54 347 72 347 193 c 0
EndSplineSet
Validated: 8388609
EndChar

StartChar: aacute
Encoding: 225 225 170
Width: 500
Flags: MW
HStem: -13 67<177.5 230.5 177.5 237.5> -6 21<433 441.5> 328 158 425 61<233.5 244 180 289> 646 20<268 354 354 354>
VStem: 32 88<106.5 133> 347 79<132.5 133 133 197.5>
LayerCount: 2
Fore
SplineSet
354 666 m 1x9e
 268 522 l 1
 227 522 l 1
 268 666 l 1
 354 666 l 1x9e
486 3 m 1
 462 -5 448 -6 435 -6 c 0x6e
 431 -6 403 -6 385 6 c 0
 377 12 371 21 369 24 c 0
 356 42 355 54 353 64 c 1
 331 40 283 -13 192 -13 c 0
 160 -13 139 -7 127 -3 c 0
 71 16 32 61 32 122 c 0
 32 144 38 189 83 224 c 0
 131 260 214 273 274 277 c 2
 346 282 l 1
 346 295 346 308 345 321 c 0
 343 355 337 425 241 425 c 0
 226 425 163 425 144 368 c 0
 139 353 139 342 139 326 c 1
 56 331 l 1
 56 340 58 357 64 377 c 0
 79 422 123 486 237 486 c 0
 251 486 277 485 311 476 c 0
 330 471 393 452 416 388 c 0
 425 363 426 339 426 287 c 2
 426 133 l 2
 426 123 426 112 427 102 c 0
 428 91 429 66 462 66 c 0
 472 66 477 68 486 70 c 1
 486 3 l 1
347 193 m 0
 347 202 346 212 346 221 c 2
 346 230 l 1
 309 224 215 212 178 196 c 0
 163 190 120 170 120 124 c 0
 120 89 146 54 209 54 c 0xae
 252 54 347 72 347 193 c 0
EndSplineSet
Validated: 1
EndChar

StartChar: agrave
Encoding: 224 224 171
Width: 500
Flags: MW
HStem: -13 67<177.5 230.5 177.5 237.5> -6 21<433 441.5> 328 158 425 61<233.5 244 180 289> 645 20<149 238 238 238>
VStem: 32 88<106.5 133> 347 79<132.5 133 133 197.5>
LayerCount: 2
Fore
SplineSet
279 521 m 1x9e
 232 521 l 1
 149 665 l 1
 238 665 l 1
 279 521 l 1x9e
486 3 m 1
 462 -5 448 -6 435 -6 c 0x6e
 431 -6 403 -6 385 6 c 0
 377 12 371 21 369 24 c 0
 356 42 355 54 353 64 c 1
 331 40 283 -13 192 -13 c 0
 160 -13 139 -7 127 -3 c 0
 71 16 32 61 32 122 c 0
 32 144 38 189 83 224 c 0
 131 260 214 273 274 277 c 2
 346 282 l 1
 346 295 346 308 345 321 c 0
 343 355 337 425 241 425 c 0
 226 425 163 425 144 368 c 0
 139 353 139 342 139 326 c 1
 56 331 l 1
 56 340 58 357 64 377 c 0
 79 422 123 486 237 486 c 0
 251 486 277 485 311 476 c 0
 330 471 393 452 416 388 c 0
 425 363 426 339 426 287 c 2
 426 133 l 2
 426 123 426 112 427 102 c 0
 428 91 429 66 462 66 c 0
 472 66 477 68 486 70 c 1
 486 3 l 1
347 193 m 0
 347 202 346 212 346 221 c 2
 346 230 l 1
 309 224 215 212 178 196 c 0
 163 190 120 170 120 124 c 0
 120 89 146 54 209 54 c 0xae
 252 54 347 72 347 193 c 0
EndSplineSet
Validated: 1
EndChar

StartChar: Thorn
Encoding: 222 222 172
Width: 625
Flags: MW
HStem: 0 21<76 167 76 76> 170 83<167 364 364 383 167 364> 495 82<167 385 167 397> 686 20<76 167 167 167>
VStem: 76 91<0 170 0 253 253 495 577 706> 521 93<379 379>
LayerCount: 2
Fore
SplineSet
614 379 m 0
 615 305 581 210 482 180 c 0
 444 168 389 170 383 170 c 2
 167 170 l 1
 167 0 l 1
 76 0 l 1
 76 706 l 1
 167 706 l 1
 167 577 l 1
 397 577 l 2
 406 577 452 578 490 566 c 0
 583 535 613 450 614 379 c 0
521 379 m 0
 523 499 407 495 385 495 c 2
 167 495 l 1
 167 253 l 1
 364 253 l 2
 408 253 465 247 502 305 c 0
 522 335 521 372 521 379 c 0
EndSplineSet
Validated: 33
EndChar

StartChar: Yacute
Encoding: 221 221 173
Width: 625
Flags: MW
HStem: 0 21<262 357 262 262> 686 20<14 125 125 125 499 611 611 611> 875 20<318 417 417 417>
VStem: 262 95<0 323 0 323>
LayerCount: 2
Fore
SplineSet
417 895 m 1
 330 771 l 1
 270 771 l 1
 318 895 l 1
 417 895 l 1
611 706 m 1
 357 323 l 1
 357 0 l 1
 262 0 l 1
 262 323 l 1
 14 706 l 1
 125 706 l 1
 311 407 l 1
 499 706 l 1
 611 706 l 1
EndSplineSet
Validated: 1
EndChar

StartChar: Udieresis
Encoding: 220 220 174
Width: 688
Flags: MW
HStem: -18 21<319.5 379.5> 686 20<76 170 170 170 516 611 611 611> 781 102<201 288 201 288 398 485>
VStem: 76 94<269 282 282 706> 201 87<781 883> 398 87<781 883> 516 95<284 706>
LayerCount: 2
Fore
SplineSet
485 781 m 1
 398 781 l 1
 398 883 l 1
 485 883 l 1
 485 781 l 1
288 781 m 1
 201 781 l 1
 201 883 l 1
 288 883 l 1
 288 781 l 1
611 255 m 2
 611 248 612 206 605 173 c 0
 599 141 577 73 502 25 c 0
 473 7 421 -18 338 -18 c 0
 301 -18 259 -13 223 1 c 0
 159 25 107 78 86 144 c 0
 76 178 76 203 76 269 c 2
 76 706 l 1
 170 706 l 1
 170 282 l 2
 170 255 169 227 173 200 c 0
 175 184 183 137 219 103 c 0
 236 87 256 76 278 69 c 0
 303 62 331 62 339 62 c 0
 356 62 401 62 444 90 c 0
 514 135 516 211 516 284 c 2
 516 706 l 1
 611 706 l 1
 611 255 l 2
EndSplineSet
Validated: 33
EndChar

StartChar: Ucircumflex
Encoding: 219 219 175
Width: 688
Flags: MW
HStem: -18 21<319.5 379.5> 686 20<76 170 170 170 516 611 611 611> 875 20<310 375 375 375>
VStem: 76 94<269 282 282 706> 516 95<284 706>
LayerCount: 2
Fore
SplineSet
482 771 m 1
 405 771 l 1
 343 845 l 1
 284 771 l 1
 209 771 l 1
 310 895 l 1
 375 895 l 1
 482 771 l 1
611 255 m 2
 611 248 612 206 605 173 c 0
 599 141 577 73 502 25 c 0
 473 7 421 -18 338 -18 c 0
 301 -18 259 -13 223 1 c 0
 159 25 107 78 86 144 c 0
 76 178 76 203 76 269 c 2
 76 706 l 1
 170 706 l 1
 170 282 l 2
 170 255 169 227 173 200 c 0
 175 184 183 137 219 103 c 0
 236 87 256 76 278 69 c 0
 303 62 331 62 339 62 c 0
 356 62 401 62 444 90 c 0
 514 135 516 211 516 284 c 2
 516 706 l 1
 611 706 l 1
 611 255 l 2
EndSplineSet
Validated: 33
EndChar

StartChar: Uacute
Encoding: 218 218 176
Width: 688
Flags: MW
HStem: -18 21<319.5 379.5> 686 20<76 170 170 170 516 611 611 611> 875 20<350 449 449 449>
VStem: 76 94<269 282 282 706> 516 95<284 706>
LayerCount: 2
Fore
SplineSet
449 895 m 1
 362 771 l 1
 302 771 l 1
 350 895 l 1
 449 895 l 1
611 255 m 2
 611 248 612 206 605 173 c 0
 599 141 577 73 502 25 c 0
 473 7 421 -18 338 -18 c 0
 301 -18 259 -13 223 1 c 0
 159 25 107 78 86 144 c 0
 76 178 76 203 76 269 c 2
 76 706 l 1
 170 706 l 1
 170 282 l 2
 170 255 169 227 173 200 c 0
 175 184 183 137 219 103 c 0
 236 87 256 76 278 69 c 0
 303 62 331 62 339 62 c 0
 356 62 401 62 444 90 c 0
 514 135 516 211 516 284 c 2
 516 706 l 1
 611 706 l 1
 611 255 l 2
EndSplineSet
Validated: 33
EndChar

StartChar: Ugrave
Encoding: 217 217 177
Width: 688
Flags: MW
HStem: -18 21<319.5 379.5> 686 20<76 170 170 170 516 611 611 611> 875 20<239 338 338 338>
VStem: 76 94<269 282 282 706> 516 95<284 706>
LayerCount: 2
Fore
SplineSet
386 771 m 1
 326 771 l 1
 239 895 l 1
 338 895 l 1
 386 771 l 1
611 255 m 2
 611 248 612 206 605 173 c 0
 599 141 577 73 502 25 c 0
 473 7 421 -18 338 -18 c 0
 301 -18 259 -13 223 1 c 0
 159 25 107 78 86 144 c 0
 76 178 76 203 76 269 c 2
 76 706 l 1
 170 706 l 1
 170 282 l 2
 170 255 169 227 173 200 c 0
 175 184 183 137 219 103 c 0
 236 87 256 76 278 69 c 0
 303 62 331 62 339 62 c 0
 356 62 401 62 444 90 c 0
 514 135 516 211 516 284 c 2
 516 706 l 1
 611 706 l 1
 611 255 l 2
EndSplineSet
Validated: 33
EndChar

StartChar: multiply
Encoding: 215 215 178
Width: 724
Flags: MW
HStem: 83 21<194 194> 501 20<194 194 514 514>
LayerCount: 2
Fore
SplineSet
576 146 m 1
 515 84 l 1
 352 243 l 1
 194 83 l 1
 138 138 l 1
 296 298 l 1
 132 459 l 1
 194 521 l 1
 357 361 l 1
 514 521 l 1
 570 466 l 1
 413 306 l 1
 576 146 l 1
EndSplineSet
Validated: 1
EndChar

StartChar: Odieresis
Encoding: 214 214 179
Width: 812
Flags: MW
HStem: -18 74<385 418 385 484> 648 76<407 426> 781 102<269 356 269 356 465 552>
VStem: 51 102<306.5 374> 269 87<781 883> 465 87<781 883> 660 102<359 371.5>
LayerCount: 2
Fore
SplineSet
552 781 m 1
 465 781 l 1
 465 883 l 1
 552 883 l 1
 552 781 l 1
356 781 m 1
 269 781 l 1
 269 883 l 1
 356 883 l 1
 356 781 l 1
762 359 m 0
 762 322 759 209 688 113 c 0
 649 61 564 -18 404 -18 c 0
 361 -18 252 -13 161 72 c 0
 114 116 51 201 51 354 c 0
 51 394 53 516 139 613 c 0
 206 688 309 724 407 724 c 0
 455 724 503 716 547 699 c 0
 694 642 762 509 762 359 c 0
660 359 m 0
 660 384 660 480 605 555 c 0
 540 644 445 648 407 648 c 0
 292 647 234 590 207 551 c 0
 168 495 153 418 153 353 c 0
 153 260 181 197 200 166 c 0
 217 140 237 120 245 113 c 0
 274 88 300 77 313 72 c 0
 332 65 361 56 409 56 c 0
 427 56 471 57 516 77 c 0
 584 108 661 190 660 359 c 0
EndSplineSet
Validated: 33
EndChar

StartChar: Otilde
Encoding: 213 213 180
Width: 812
Flags: MW
HStem: -18 74<385 418 385 484> 648 76<407 426> 786 96 865 20<343 365>
VStem: 51 102<306.5 374> 660 102<359 371.5>
LayerCount: 2
Fore
SplineSet
552 882 m 1xec
 551 875 549 859 542 841 c 0
 537 829 520 780 469 781 c 0
 448 781 427 789 387 805 c 0
 364 814 353 817 341 817 c 0
 339 817 335 817 331 816 c 0
 324 813 312 804 309 786 c 1
 261 786 l 1xec
 268 834 282 857 301 871 c 0
 320 885 338 885 348 885 c 0xdc
 382 885 409 867 440 857 c 0
 443 856 460 851 473 851 c 0
 478 851 484 852 488 855 c 0
 497 860 500 866 505 882 c 1
 552 882 l 1xec
762 359 m 0
 762 322 759 209 688 113 c 0
 649 61 564 -18 404 -18 c 0
 361 -18 252 -13 161 72 c 0
 114 116 51 201 51 354 c 0
 51 394 53 516 139 613 c 0
 206 688 309 724 407 724 c 0
 455 724 503 716 547 699 c 0
 694 642 762 509 762 359 c 0
660 359 m 0
 660 384 660 480 605 555 c 0
 540 644 445 648 407 648 c 0
 292 647 234 590 207 551 c 0
 168 495 153 418 153 353 c 0
 153 260 181 197 200 166 c 0
 217 140 237 120 245 113 c 0
 274 88 300 77 313 72 c 0
 332 65 361 56 409 56 c 0
 427 56 471 57 516 77 c 0
 584 108 661 190 660 359 c 0
EndSplineSet
Validated: 33
EndChar

StartChar: Ocircumflex
Encoding: 212 212 181
Width: 812
Flags: MW
HStem: -18 74<385 418 385 484> 648 76<407 426> 724 47<272 431> 875 20<372 437 437 437>
VStem: 51 102<306.5 374> 660 102<359 371.5>
LayerCount: 2
Fore
SplineSet
545 771 m 1xbc
 468 771 l 1
 406 845 l 1
 346 771 l 1
 272 771 l 1
 372 895 l 1
 437 895 l 1
 545 771 l 1xbc
762 359 m 0
 762 322 759 209 688 113 c 0
 649 61 564 -18 404 -18 c 0
 361 -18 252 -13 161 72 c 0
 114 116 51 201 51 354 c 0
 51 394 53 516 139 613 c 0
 206 688 309 724 407 724 c 0xdc
 455 724 503 716 547 699 c 0
 694 642 762 509 762 359 c 0
660 359 m 0
 660 384 660 480 605 555 c 0
 540 644 445 648 407 648 c 0
 292 647 234 590 207 551 c 0
 168 495 153 418 153 353 c 0
 153 260 181 197 200 166 c 0
 217 140 237 120 245 113 c 0
 274 88 300 77 313 72 c 0
 332 65 361 56 409 56 c 0
 427 56 471 57 516 77 c 0
 584 108 661 190 660 359 c 0
EndSplineSet
Validated: 8388641
EndChar

StartChar: Oacute
Encoding: 211 211 182
Width: 812
Flags: MW
HStem: -18 74<385 418 385 484> 648 76<407 426> 875 20<412 511 511 511>
VStem: 51 102<306.5 374> 660 102<359 371.5>
LayerCount: 2
Fore
SplineSet
511 895 m 1
 424 771 l 1
 364 771 l 1
 412 895 l 1
 511 895 l 1
762 359 m 0
 762 322 759 209 688 113 c 0
 649 61 564 -18 404 -18 c 0
 361 -18 252 -13 161 72 c 0
 114 116 51 201 51 354 c 0
 51 394 53 516 139 613 c 0
 206 688 309 724 407 724 c 0
 455 724 503 716 547 699 c 0
 694 642 762 509 762 359 c 0
660 359 m 0
 660 384 660 480 605 555 c 0
 540 644 445 648 407 648 c 0
 292 647 234 590 207 551 c 0
 168 495 153 418 153 353 c 0
 153 260 181 197 200 166 c 0
 217 140 237 120 245 113 c 0
 274 88 300 77 313 72 c 0
 332 65 361 56 409 56 c 0
 427 56 471 57 516 77 c 0
 584 108 661 190 660 359 c 0
EndSplineSet
Validated: 33
EndChar

StartChar: Ograve
Encoding: 210 210 183
Width: 812
Flags: MW
HStem: -18 74<385 418 385 484> 648 76<407 426> 875 20<302 401 401 401>
VStem: 51 102<306.5 374> 660 102<359 371.5>
LayerCount: 2
Fore
SplineSet
448 771 m 1
 389 771 l 1
 302 895 l 1
 401 895 l 1
 448 771 l 1
762 359 m 0
 762 322 759 209 688 113 c 0
 649 61 564 -18 404 -18 c 0
 361 -18 252 -13 161 72 c 0
 114 116 51 201 51 354 c 0
 51 394 53 516 139 613 c 0
 206 688 309 724 407 724 c 0
 455 724 503 716 547 699 c 0
 694 642 762 509 762 359 c 0
660 359 m 0
 660 384 660 480 605 555 c 0
 540 644 445 648 407 648 c 0
 292 647 234 590 207 551 c 0
 168 495 153 418 153 353 c 0
 153 260 181 197 200 166 c 0
 217 140 237 120 245 113 c 0
 274 88 300 77 313 72 c 0
 332 65 361 56 409 56 c 0
 427 56 471 57 516 77 c 0
 584 108 661 190 660 359 c 0
EndSplineSet
Validated: 33
EndChar

StartChar: Ntilde
Encoding: 209 209 184
Width: 708
Flags: MW
HStem: 0 21<78 167 78 78 545 630 545 545> 686 20<78 167 167 167 545 630 630 630> 786 96 865 20<291 313>
VStem: 78 84 547 83
LayerCount: 2
Fore
SplineSet
500 882 m 1xec
 499 875 497 859 490 841 c 0
 485 829 468 780 417 781 c 0
 396 781 375 789 334 805 c 0
 312 814 301 817 289 817 c 0
 287 817 283 817 279 816 c 0
 272 813 260 804 257 786 c 1
 209 786 l 1xec
 216 834 230 857 249 871 c 0
 268 885 286 885 296 885 c 0xdc
 330 885 357 867 388 857 c 0
 391 856 408 851 421 851 c 0
 426 851 432 852 436 855 c 0
 445 860 448 866 453 882 c 1
 500 882 l 1xec
630 0 m 1
 545 0 l 1
 158 574 l 1
 167 0 l 1
 78 0 l 1
 78 706 l 1
 167 706 l 1
 549 140 l 1
 545 706 l 1
 630 706 l 1
 630 0 l 1
EndSplineSet
Validated: 33
EndChar

StartChar: Eth
Encoding: 208 208 185
Width: 708
Flags: MW
HStem: 0 82<175 257> 1 21<310 350> 341 60<13 78 13 78 175 343> 623 83<175 301 175 175>
VStem: 78 97<82 341 82 341 82 341 401 623> 562 96<332.5 392.5>
LayerCount: 2
Fore
SplineSet
658 347 m 0xbc
 658 318 665 64 429 9 c 0
 401 3 378 1 322 1 c 0x7c
 298 1 281 0 257 0 c 2
 78 0 l 1
 78 341 l 1
 13 341 l 1
 13 401 l 1
 78 401 l 1
 78 706 l 1
 326 706 l 2
 371 706 414 706 459 691 c 0
 572 653 660 545 658 347 c 0xbc
562 349 m 0
 562 436 546 575 409 613 c 0
 382 620 355 623 301 623 c 2
 175 623 l 1
 175 401 l 1
 343 401 l 1
 343 341 l 1
 175 341 l 1
 175 82 l 1
 300 82 l 2xbc
 363 82 405 88 432 99 c 0
 512 130 561 215 562 349 c 0
EndSplineSet
Validated: 33
EndChar

StartChar: Idieresis
Encoding: 207 207 186
Width: 229
Flags: MW
HStem: 0 21<67 162 67 67> 686 20<67 162 162 162> 781 102<-27 60 -27 60 169 256>
VStem: -27 87<781 883> 67 95<0 706> 169 87<781 883>
LayerCount: 2
Fore
SplineSet
256 781 m 1
 169 781 l 1
 169 883 l 1
 256 883 l 1
 256 781 l 1
60 781 m 1
 -27 781 l 1
 -27 883 l 1
 60 883 l 1
 60 781 l 1
162 0 m 1
 67 0 l 1
 67 706 l 1
 162 706 l 1
 162 0 l 1
EndSplineSet
Validated: 1
EndChar

StartChar: Icircumflex
Encoding: 206 206 187
Width: 229
Flags: MW
HStem: 0 21<67 162 67 67> 686 20<67 162 162 162> 875 20<81 146 146 146>
VStem: 67 95<0 706>
LayerCount: 2
Fore
SplineSet
253 771 m 1
 176 771 l 1
 114 845 l 1
 55 771 l 1
 -20 771 l 1
 81 895 l 1
 146 895 l 1
 253 771 l 1
162 0 m 1
 67 0 l 1
 67 706 l 1
 162 706 l 1
 162 0 l 1
EndSplineSet
Validated: 1
EndChar

StartChar: Iacute
Encoding: 205 205 188
Width: 229
Flags: MW
HStem: 0 21<67 162 67 67> 686 20<67 162 162 162> 875 20<121 219 219 219>
VStem: 67 95<0 706>
LayerCount: 2
Fore
SplineSet
219 895 m 1
 133 771 l 1
 73 771 l 1
 121 895 l 1
 219 895 l 1
162 0 m 1
 67 0 l 1
 67 706 l 1
 162 706 l 1
 162 0 l 1
EndSplineSet
Validated: 1
EndChar

StartChar: Igrave
Encoding: 204 204 189
Width: 229
Flags: MW
HStem: 0 21<67 162 67 67> 686 20<67 162 162 162> 875 20<10 109 109 109>
VStem: 67 95<0 706>
LayerCount: 2
Fore
SplineSet
156 771 m 1
 97 771 l 1
 10 895 l 1
 109 895 l 1
 156 771 l 1
162 0 m 1
 67 0 l 1
 67 706 l 1
 162 706 l 1
 162 0 l 1
EndSplineSet
Validated: 1
EndChar

StartChar: Edieresis
Encoding: 203 203 190
Width: 604
Flags: MW
HStem: 0 82<169 577 169 577> 323 82<169 513 169 513> 623 83<169 565 169 169> 781 102<176 263 176 263 372 460>
VStem: 79 90<82 323 405 623> 176 87<781 883> 372 88<781 883>
LayerCount: 2
Fore
SplineSet
460 781 m 1
 372 781 l 1
 372 883 l 1
 460 883 l 1
 460 781 l 1
263 781 m 1
 176 781 l 1
 176 883 l 1
 263 883 l 1
 263 781 l 1
577 0 m 1
 79 0 l 1
 79 706 l 1
 565 706 l 1
 565 623 l 1
 169 623 l 1
 169 405 l 1
 513 405 l 1
 513 323 l 1
 169 323 l 1
 169 82 l 1
 577 82 l 1
 577 0 l 1
EndSplineSet
Validated: 1
EndChar

StartChar: Ecircumflex
Encoding: 202 202 191
Width: 604
Flags: MW
HStem: 0 82<169 577 169 577> 323 82<169 513 169 513> 623 83<169 565 169 169> 706 65<183 258 379 456> 875 20<284 349 349 349>
VStem: 79 90<82 323 405 623>
LayerCount: 2
Fore
SplineSet
456 771 m 1xdc
 379 771 l 1
 317 845 l 1
 258 771 l 1
 183 771 l 1
 284 895 l 1
 349 895 l 1
 456 771 l 1xdc
577 0 m 1
 79 0 l 1
 79 706 l 1xdc
 565 706 l 1
 565 623 l 1
 169 623 l 1xec
 169 405 l 1
 513 405 l 1
 513 323 l 1
 169 323 l 1
 169 82 l 1
 577 82 l 1
 577 0 l 1
EndSplineSet
Validated: 8388609
EndChar

StartChar: Eacute
Encoding: 201 201 192
Width: 604
Flags: MW
HStem: 0 82<169 577 169 577> 323 82<169 513 169 513> 623 83<169 565 169 169> 875 20<318 417 417 417>
VStem: 79 90<82 323 405 623>
LayerCount: 2
Fore
SplineSet
417 895 m 1
 330 771 l 1
 270 771 l 1
 318 895 l 1
 417 895 l 1
577 0 m 1
 79 0 l 1
 79 706 l 1
 565 706 l 1
 565 623 l 1
 169 623 l 1
 169 405 l 1
 513 405 l 1
 513 323 l 1
 169 323 l 1
 169 82 l 1
 577 82 l 1
 577 0 l 1
EndSplineSet
Validated: 1
EndChar

StartChar: Egrave
Encoding: 200 200 193
Width: 604
Flags: MW
HStem: 0 82<169 577 169 577> 323 82<169 513 169 513> 623 83<169 565 169 169> 875 20<208 307 307 307>
VStem: 79 90<82 323 405 623>
LayerCount: 2
Fore
SplineSet
354 771 m 1
 295 771 l 1
 208 895 l 1
 307 895 l 1
 354 771 l 1
577 0 m 1
 79 0 l 1
 79 706 l 1
 565 706 l 1
 565 623 l 1
 169 623 l 1
 169 405 l 1
 513 405 l 1
 513 323 l 1
 169 323 l 1
 169 82 l 1
 577 82 l 1
 577 0 l 1
EndSplineSet
Validated: 1
EndChar

StartChar: Ccedilla
Encoding: 199 199 194
Width: 764
Flags: MW
HStem: -203 21<340 380.5> 649 75<349.5 451>
VStem: 49 104<355 355>
LayerCount: 2
Fore
SplineSet
742 256 m 1
 722 155 644 47 530 5 c 0
 493 -9 457 -12 421 -15 c 1
 405 -43 l 1
 418 -53 467 -65 467 -117 c 0
 467 -166 421 -203 340 -203 c 1
 340 -180 l 2
 342 -181 345 -181 347 -181 c 0
 379 -181 393 -160 392 -143 c 0
 390 -117 369 -108 332 -96 c 1
 384 -17 l 1
 338 -12 286 -8 241 13 c 0
 145 56 49 167 49 355 c 0
 50 573 182 724 407 724 c 0
 603 724 696 612 728 508 c 1
 633 488 l 1
 629 499 620 532 594 564 c 0
 558 609 496 649 406 649 c 0
 293 649 152 581 153 355 c 0
 154 215 220 60 405 60 c 0
 528 60 619 136 640 268 c 1
 742 256 l 1
EndSplineSet
Validated: 33
EndChar

StartChar: Aring
Encoding: 197 197 195
Width: 646
Flags: MW
HStem: 0 21<10 110 10 10 535 634 535 535> 216 79<219 430 219 458 189 430> 686 20<279 377 377 377> 753 45<314 341.5 314 353> 899 44<313 341>
VStem: 232 45<834 862 834 875> 378 45<835 863>
LayerCount: 2
Fore
SplineSet
423 848 m 0
 423 795 379 753 327 753 c 0
 274 753 232 796 232 849 c 0
 232 901 275 943 328 943 c 0
 380 943 423 901 423 848 c 0
634 0 m 1
 535 0 l 1
 458 216 l 1
 189 216 l 1
 110 0 l 1
 10 0 l 1
 279 706 l 1
 377 706 l 1
 634 0 l 1
378 849 m 0
 378 877 355 899 327 899 c 0
 299 899 277 876 277 848 c 0
 277 820 300 798 328 798 c 0
 355 798 378 821 378 849 c 0
430 295 m 1
 327 590 l 1
 219 295 l 1
 430 295 l 1
EndSplineSet
Validated: 1
EndChar

StartChar: Adieresis
Encoding: 196 196 196
Width: 646
Flags: MW
HStem: 0 21<10 110 10 10 535 634 535 535> 216 79<219 430 219 458 189 430> 686 20<279 377 377 377> 781 102<184 271 184 271 380 467>
VStem: 184 87<781 883> 380 87<781 883>
LayerCount: 2
Fore
SplineSet
467 781 m 1
 380 781 l 1
 380 883 l 1
 467 883 l 1
 467 781 l 1
271 781 m 1
 184 781 l 1
 184 883 l 1
 271 883 l 1
 271 781 l 1
634 0 m 1
 535 0 l 1
 458 216 l 1
 189 216 l 1
 110 0 l 1
 10 0 l 1
 279 706 l 1
 377 706 l 1
 634 0 l 1
430 295 m 1
 327 590 l 1
 219 295 l 1
 430 295 l 1
EndSplineSet
Validated: 1
EndChar

StartChar: Atilde
Encoding: 195 195 197
Width: 646
Flags: MW
HStem: 0 21<10 110 10 10 535 634 535 535> 216 79<219 430 219 458 189 430> 686 20<279 377 377 377> 786 96 865 20<260 282>
LayerCount: 2
Fore
SplineSet
469 882 m 1xf0
 468 875 465 859 458 841 c 0
 454 829 437 780 386 781 c 0
 364 781 344 789 303 805 c 0
 281 814 270 817 258 817 c 0
 256 817 252 818 247 816 c 0
 241 814 229 804 226 786 c 1
 177 786 l 1xf0
 185 834 199 857 218 871 c 0
 237 885 255 885 265 885 c 0xe8
 299 885 325 867 357 857 c 0
 359 856 376 851 389 851 c 0
 394 851 401 852 405 855 c 0
 413 860 416 866 422 882 c 1
 469 882 l 1xf0
634 0 m 1
 535 0 l 1
 458 216 l 1
 189 216 l 1
 110 0 l 1
 10 0 l 1
 279 706 l 1
 377 706 l 1
 634 0 l 1
430 295 m 1
 327 590 l 1
 219 295 l 1
 430 295 l 1
EndSplineSet
Validated: 33
EndChar

StartChar: Acircumflex
Encoding: 194 194 198
Width: 646
Flags: MW
HStem: 0 21<10 110 10 10 535 634 535 535> 686 20<279 377 377 377> 875 20<289 354 354 354>
LayerCount: 2
Fore
SplineSet
461 771 m 1
 384 771 l 1
 322 845 l 1
 263 771 l 1
 188 771 l 1
 289 895 l 1
 354 895 l 1
 461 771 l 1
634 0 m 1
 535 0 l 1
 458 216 l 1
 189 216 l 1
 110 0 l 1
 10 0 l 1
 279 706 l 1
 377 706 l 1
 634 0 l 1
430 295 m 1
 327 590 l 1
 219 295 l 1
 430 295 l 1
EndSplineSet
Validated: 1
EndChar

StartChar: Aacute
Encoding: 193 193 199
Width: 646
Flags: MW
HStem: 0 21<10 110 10 10 535 634 535 535> 216 79<219 430 219 458 189 430> 686 20<279 377 377 377> 875 20<329 428 428 428>
LayerCount: 2
Fore
SplineSet
428 895 m 1
 341 771 l 1
 281 771 l 1
 329 895 l 1
 428 895 l 1
634 0 m 1
 535 0 l 1
 458 216 l 1
 189 216 l 1
 110 0 l 1
 10 0 l 1
 279 706 l 1
 377 706 l 1
 634 0 l 1
430 295 m 1
 327 590 l 1
 219 295 l 1
 430 295 l 1
EndSplineSet
Validated: 1
EndChar

StartChar: Agrave
Encoding: 192 192 200
Width: 646
Flags: MW
HStem: 0 21<10 110 10 10 535 634 535 535> 216 79<219 430 219 458 189 430> 686 20<279 377 377 377> 875 20<218 318 318 318>
LayerCount: 2
Fore
SplineSet
365 771 m 1
 305 771 l 1
 218 895 l 1
 318 895 l 1
 365 771 l 1
634 0 m 1
 535 0 l 1
 458 216 l 1
 189 216 l 1
 110 0 l 1
 10 0 l 1
 279 706 l 1
 377 706 l 1
 634 0 l 1
430 295 m 1
 327 590 l 1
 219 295 l 1
 430 295 l 1
EndSplineSet
Validated: 1
EndChar

StartChar: mu
Encoding: 181 181 201
Width: 564
Flags: MW
HStem: -216 21<86 168 86 86> -11 67<256.5 295.5 256.5 303.5> -9 21<460 493.5> 450 20<86 166 166 166 390 469 469 469>
VStem: 86 80<196.5 234 234 470> 389 80<217.5 254>
LayerCount: 2
Fore
SplineSet
530 -2 m 1xdc
 510 -7 500 -9 487 -9 c 0xbc
 433 -9 407 14 399 71 c 1
 369 12 334 -11 273 -11 c 0
 225 -11 193 6 164 48 c 1
 168 -216 l 1
 86 -216 l 1
 86 470 l 1
 166 470 l 1
 166 234 l 2
 166 159 171 125 188 100 c 0
 205 73 239 56 274 56 c 0
 317 56 353 81 372 124 c 0
 386 155 389 181 389 254 c 2
 390 470 l 1
 469 470 l 1
 469 123 l 2
 469 70 476 55 502 55 c 0
 511 55 516 56 530 62 c 1
 530 -2 l 1xdc
EndSplineSet
Validated: 1
EndChar

StartChar: plusminus
Encoding: 177 177 202
Width: 724
Flags: MW
HStem: 0 79<94 630 94 94> 355 78<94 318 94 318 406 631> 630 20<318 406 406 406>
VStem: 318 88<136 355 136 355 433 650>
LayerCount: 2
Fore
SplineSet
631 355 m 1
 406 355 l 1
 406 136 l 1
 318 136 l 1
 318 355 l 1
 94 355 l 1
 94 433 l 1
 318 433 l 1
 318 650 l 1
 406 650 l 1
 406 433 l 1
 631 433 l 1
 631 355 l 1
630 0 m 1
 94 0 l 1
 93 79 l 1
 630 79 l 1
 630 0 l 1
EndSplineSet
Validated: 1
EndChar

StartChar: degree
Encoding: 176 176 203
Width: 354
Flags: MW
HStem: 432 85<155.5 199 155.5 222> 675 80<155 199>
VStem: 16 82<574.5 618 574.5 638.5> 256 82<574 618>
LayerCount: 2
Fore
SplineSet
338 594 m 0
 338 505 267 432 177 432 c 0
 87 432 16 505 16 594 c 0
 16 683 88 755 177 755 c 0
 268 755 338 684 338 594 c 0
256 596 m 0
 256 640 221 675 177 675 c 0
 133 675 98 640 98 596 c 0
 98 553 134 517 177 517 c 0
 221 517 256 552 256 596 c 0
EndSplineSet
Validated: 1
EndChar

StartChar: registered
Encoding: 174 174 204
Width: 840
Flags: MW
HStem: -3 34<331 507 331 521> 517 61<351 401 351 351> 675 34<331.5 511>
VStem: 64 37<262.5 441.5 262.5 452> 281 69<128 317 128 578> 500 70<423.5 472.5> 740 36<260.5 439.5>
LayerCount: 2
Fore
SplineSet
776 360 m 0
 776 153 623 -3 419 -3 c 0
 222 -3 64 155 64 353 c 0
 64 551 222 709 421 709 c 0
 615 709 776 551 776 360 c 0
740 346 m 0
 740 533 602 675 420 675 c 0
 243 675 101 531 101 352 c 0
 101 173 242 31 420 31 c 0
 594 31 740 175 740 346 c 0
576 128 m 1
 499 128 l 1
 404 317 l 1
 350 317 l 1
 350 128 l 1
 281 128 l 1
 281 578 l 1
 411 578 l 2
 521 578 570 539 570 449 c 0
 570 380 540 341 474 323 c 1
 576 128 l 1
500 448 m 0
 500 497 471 517 401 517 c 2
 351 517 l 1
 351 378 l 1
 408 378 l 2
 472 378 500 399 500 448 c 0
EndSplineSet
Validated: 1
EndChar

StartChar: logicalnot
Encoding: 172 172 205
Width: 724
Flags: MW
HStem: 6 21<547 636 547 547> 261 80<70 547 70 636>
VStem: 547 89<6 261 261 261>
LayerCount: 2
Fore
SplineSet
636 6 m 1
 547 6 l 1
 547 261 l 1
 70 261 l 1
 70 341 l 1
 636 341 l 1
 636 6 l 1
EndSplineSet
Validated: 1
EndChar

StartChar: copyright
Encoding: 169 169 206
Width: 840
Flags: MW
HStem: -3 34<330.5 507 330.5 521> 119 67<382.5 457.5 382.5 474> 521 65<388 462> 675 34<331.5 511>
VStem: 64 36<262.5 441.5 262.5 452> 214 74<299 401.5 299 415.5> 740 36<260.5 439.5>
LayerCount: 2
Fore
SplineSet
776 360 m 0
 776 153 623 -3 419 -3 c 0
 222 -3 64 155 64 353 c 0
 64 551 222 709 421 709 c 0
 615 709 776 551 776 360 c 0
740 346 m 0
 740 533 602 675 420 675 c 0
 243 675 100 531 100 352 c 0
 100 173 241 31 420 31 c 0
 594 31 740 175 740 346 c 0
620 276 m 1
 589 169 525 119 423 119 c 0
 298 119 214 210 214 345 c 0
 214 486 304 586 433 586 c 0
 528 586 584 544 616 448 c 1
 549 429 l 1
 521 498 492 521 432 521 c 0
 344 521 288 454 288 349 c 0
 288 249 341 186 424 186 c 0
 491 186 530 218 552 290 c 1
 620 276 l 1
EndSplineSet
Validated: 1
EndChar

StartChar: brokenbar
Encoding: 166 166 207
Width: 252
Flags: MW
HStem: -137 21<85 167 85 85> 765 20<85 167 167 167>
VStem: 85 82<-137 264 383 785>
LayerCount: 2
Fore
SplineSet
167 383 m 1
 85 383 l 1
 85 785 l 1
 167 785 l 1
 167 383 l 1
167 -137 m 1
 85 -137 l 1
 85 264 l 1
 167 264 l 1
 167 -137 l 1
EndSplineSet
Validated: 1
EndChar

StartChar: threesuperior
Encoding: 179 179 208
Width: 375
Flags: MW
HStem: 224 58 626 57<151.5 205>
VStem: 88 193<342 376> 270 67<522.5 579.5> 281 70<327 380.5 327 387.5>
LayerCount: 2
Fore
SplineSet
351 357 m 0xe8
 351 297 310 222 188 224 c 0
 102 226 55 261 34 310 c 0
 23 336 21 370 21 376 c 1
 88 376 l 1
 88 308 130 281 191 282 c 0
 205 282 281 283 281 358 c 0xe8
 281 417 241 429 196 429 c 2
 153 429 l 1
 153 488 l 1
 186 488 l 2
 190 488 270 486 270 554 c 0
 270 605 224 626 186 626 c 0
 117 626 106 576 102 551 c 0
 100 537 100 527 100 522 c 1
 35 523 l 1
 35 529 35 565 45 592 c 0
 62 638 100 683 185 683 c 0
 257 683 337 644 337 553 c 0xd0
 337 492 294 471 265 462 c 1
 286 457 297 453 306 447 c 0
 332 431 351 404 351 357 c 0xe8
EndSplineSet
Validated: 8388641
EndChar

StartChar: twosuperior
Encoding: 178 178 209
Width: 375
Flags: MW
HStem: 233 56<132 341 132 341> 626 57
VStem: 44 63<527 563.5 527 583> 270 66<538.5 570.5>
LayerCount: 2
Fore
SplineSet
341 233 m 1
 44 233 l 1
 44 294 l 1
 54 300 l 2
 112 335 202 403 241 464 c 0
 266 502 270 531 270 546 c 0
 270 595 235 625 189 626 c 0
 132 628 107 588 107 539 c 0
 107 515 113 496 115 487 c 1
 50 487 l 1
 47 500 44 513 44 540 c 0
 44 626 100 681 186 683 c 0
 268 685 336 634 336 545 c 0
 336 469 284 388 132 289 c 1
 341 289 l 1
 341 233 l 1
EndSplineSet
Validated: 33
EndChar

StartChar: onesuperior
Encoding: 185 185 210
Width: 375
Flags: MW
HStem: 233 21<166 233 166 166> 664 20<183 233 233 233>
VStem: 166 67<233 560 560 560>
LayerCount: 2
Fore
SplineSet
233 233 m 1
 166 233 l 1
 166 560 l 1
 80 560 l 1
 80 605 l 1
 131 608 172 618 183 684 c 1
 233 684 l 1
 233 233 l 1
EndSplineSet
Validated: 1
EndChar

StartChar: threequarters
Encoding: 190 190 211
Width: 875
Flags: MW
HStem: -29 21<346 346> 0 21<725 788 725 725> 109 56<589 725 789 853> 224 58 626 57<151.5 205>
VStem: 88 193<342 376> 270 67<522.5 579.5> 281 70<327 380.5 327 387.5> 727 62
LayerCount: 2
Fore
SplineSet
853 109 m 1xfd80
 788 109 l 1
 788 0 l 1
 725 0 l 1
 725 109 l 1
 522 109 l 1
 522 167 l 1
 736 450 l 1
 789 450 l 1
 789 165 l 1
 853 165 l 1
 853 109 l 1xfd80
663 656 m 1
 346 -29 l 1
 291 -3 l 1
 609 682 l 1
 663 656 l 1
351 357 m 0
 351 297 310 222 188 224 c 0
 102 226 55 261 34 310 c 0
 23 336 21 370 21 376 c 1
 88 376 l 1
 88 308 130 281 191 282 c 0
 205 282 281 283 281 358 c 0xfd80
 281 417 241 429 196 429 c 2
 153 429 l 1
 153 488 l 1
 186 488 l 2
 190 488 270 486 270 554 c 0
 270 605 224 626 186 626 c 0
 117 626 106 576 102 551 c 0
 100 537 100 527 100 522 c 1
 35 523 l 1
 35 529 35 565 45 592 c 0
 62 638 100 683 185 683 c 0
 257 683 337 644 337 553 c 0xfa80
 337 492 294 471 265 462 c 1
 286 457 297 453 306 447 c 0
 332 431 351 404 351 357 c 0
728 356 m 1
 589 165 l 1
 726 165 l 1
 728 356 l 1
EndSplineSet
Validated: 8388641
EndChar

StartChar: onehalf
Encoding: 189 189 212
Width: 875
Flags: MW
HStem: -29 21<279 279> 0 57<632 841 632 841> 394 56 664 20<183 233 233 233>
VStem: 166 67<233 560 560 560> 544 63<294 331 293 350.5>
LayerCount: 2
Fore
SplineSet
841 0 m 1
 544 0 l 1
 544 61 l 1
 555 67 l 2
 647 117 715 193 737 224 c 0
 766 266 770 298 770 314 c 0
 770 338 757 392 689 394 c 0
 632 395 607 356 607 306 c 0
 607 280 612 268 615 255 c 1
 550 255 l 1
 547 268 544 281 544 307 c 0
 544 394 600 448 686 450 c 0
 767 452 835 402 835 312 c 0
 835 236 785 156 632 57 c 1
 841 57 l 1
 841 0 l 1
596 656 m 1
 279 -29 l 1
 224 -3 l 1
 542 682 l 1
 596 656 l 1
233 233 m 1
 166 233 l 1
 166 560 l 1
 80 560 l 1
 80 605 l 1
 131 608 172 618 183 684 c 1
 233 684 l 1
 233 233 l 1
EndSplineSet
Validated: 33
EndChar

StartChar: onequarter
Encoding: 188 188 213
Width: 875
Flags: MW
HStem: -29 21<303 303> 0 21<725 788 725 725> 109 56<589 725 789 853> 664 20<183 233 233 233>
VStem: 166 67<233 560 560 560> 727 62
LayerCount: 2
Fore
SplineSet
853 109 m 1
 788 109 l 1
 788 0 l 1
 725 0 l 1
 725 109 l 1
 522 109 l 1
 522 167 l 1
 736 450 l 1
 789 450 l 1
 789 165 l 1
 853 165 l 1
 853 109 l 1
620 656 m 1
 303 -29 l 1
 248 -3 l 1
 566 682 l 1
 620 656 l 1
233 233 m 1
 166 233 l 1
 166 560 l 1
 80 560 l 1
 80 605 l 1
 131 608 172 618 183 684 c 1
 233 684 l 1
 233 233 l 1
728 356 m 1
 589 165 l 1
 726 165 l 1
 728 356 l 1
EndSplineSet
Validated: 1
EndChar

StartChar: Euro
Encoding: 8364 8364 214
Width: 700
Flags: MW
HStem: -18 79<386 483.5> 267 62<46 96 46 102 23 96 208 545 208 208> 378 62<46 98 23 105 207 584> 649 75<383 487.5 349 493>
LayerCount: 2
Fore
SplineSet
678 649 m 1
 646 558 l 1
 595 623 534 649 452 649 c 0
 314 649 234 572 207 440 c 1
 606 440 l 1
 584 378 l 1
 200 378 l 1
 200 358 l 2
 200 348 201 339 201 329 c 1
 567 329 l 1
 545 267 l 1
 208 267 l 1
 232 136 319 61 453 61 c 0
 538 61 623 94 677 162 c 1
 677 56 l 1
 609 2 526 -18 441 -18 c 0
 257 -18 132 84 102 267 c 1
 23 267 l 1
 46 329 l 1
 96 329 l 1
 96 345 96 362 98 378 c 1
 23 378 l 1
 46 440 l 1
 105 440 l 1
 139 621 256 724 442 724 c 0
 533 724 608 711 678 649 c 1
EndSplineSet
Validated: 1
EndChar
